<?xml version="1.0" encoding="UTF-8"?>
<svg version="1.1" xmlns="http://www.w3.org/2000/svg" width="512" height="512">
<path d="M0 0 C0.75146301 -0.00014603 1.50292603 -0.00029205 2.27716064 -0.0004425 C4.76073087 0.0002541 7.24422608 0.00803472 9.7277832 0.01586914 C11.44985412 0.01773422 13.17192556 0.0191577 14.89399719 0.02015686 C19.42645737 0.02397499 23.95888549 0.03379928 28.49133301 0.04486084 C33.11636929 0.05509008 37.74141075 0.05965773 42.36645508 0.06469727 C51.44133895 0.07542216 60.51619904 0.09249016 69.59106445 0.11352539 C69.59326429 1.64858356 69.59326429 1.64858356 69.59550858 3.21465302 C69.63210931 28.11962189 69.69156652 53.02445634 69.77496719 77.92931366 C69.81477049 89.97314171 69.84715647 102.01690429 69.86206055 114.06079102 C69.87507032 124.55867782 69.90201789 135.05642067 69.94567752 145.5542264 C69.96830733 151.11236022 69.98397421 156.67031638 69.9829483 162.22850037 C69.9822026 167.46195687 70.00011762 172.69502041 70.03223228 177.92837524 C70.04073837 179.847165 70.04247641 181.76599879 70.03686714 183.68479919 C70.03021639 186.30989535 70.04817302 188.9337451 70.07208252 191.55871582 C70.06044189 192.69104621 70.06044189 192.69104621 70.0485661 193.84625196 C70.15983234 200.77252753 72.50162756 205.92690539 77.27856445 210.92602539 C84.14058513 215.45754848 90.94418485 216.55964514 99.04077148 216.49447632 C100.40260402 216.50149628 100.40260402 216.50149628 101.79194832 216.50865805 C104.8110765 216.52055149 107.82974601 216.51117296 110.84887695 216.50170898 C113.02276879 216.50577719 115.19665856 216.51112047 117.37054443 216.51763916 C123.25890953 216.53128883 129.14711653 216.52602373 135.03548431 216.5165019 C141.20521971 216.50889318 147.3749418 216.51595429 153.54467773 216.5206604 C163.90456567 216.52611441 174.2643894 216.51893561 184.62426758 216.50463867 C196.59230508 216.48831289 208.56018925 216.49360165 220.52822304 216.51011789 C230.81382368 216.52374282 241.09937822 216.52564747 251.38498497 216.51780188 C257.52371101 216.51313093 263.66236504 216.51248468 269.80108643 216.52241135 C275.5730022 216.53109333 281.34472076 216.52503639 287.1166153 216.50772858 C289.23173953 216.50377035 291.34688044 216.50488638 293.46199799 216.51151657 C296.35533997 216.51974831 299.24805507 216.50939068 302.14135742 216.49447632 C303.38851123 216.50451457 303.38851123 216.50451457 304.66086006 216.51475561 C311.82087198 216.44346158 317.8986819 214.89151387 323.90356445 210.92602539 C329.42936831 205.14320741 331.19094891 199.42842891 331.11004639 191.55871582 C331.11754764 190.73516995 331.12504889 189.91162408 331.13277745 189.06312227 C331.15295862 186.32380262 331.14497095 183.58531828 331.13696289 180.84594727 C331.14570311 178.87434068 331.15619046 176.90274118 331.16828918 174.93115234 C331.19611463 169.59289674 331.19955462 164.25487299 331.1985693 158.9165554 C331.20170135 153.33246054 331.22732568 147.74846965 331.25054932 142.16442871 C331.29109037 131.59657186 331.31144561 121.02877669 331.32452321 110.46085405 C331.34039963 98.42698486 331.37881802 86.39322053 331.4191165 74.35941219 C331.50148956 49.61081847 331.55559792 24.86222765 331.59106445 0.11352539 C337.99554786 0.01167263 344.39982052 -0.05812919 350.80493164 -0.10620117 C352.98144333 -0.12625225 355.15790159 -0.15350031 357.33422852 -0.18823242 C360.47205838 -0.23703673 363.6091728 -0.25950899 366.74731445 -0.27709961 C367.71221802 -0.29774475 368.67712158 -0.31838989 369.67126465 -0.33966064 C376.99204303 -0.34206384 382.22728433 1.26769757 387.84887695 6.02368164 C393.91484802 13.01604577 399.34140908 20.43085874 404.7824707 27.91430664 C408.64017103 33.20826771 412.6060427 38.41506476 416.59106445 43.61352539 C422.24520084 50.99947396 427.80577586 58.44548297 433.30200195 65.94946289 C437.66383609 71.89024151 442.11168854 77.76099628 446.59106445 83.61352539 C452.25673046 91.01766736 457.8459352 98.47080445 463.3503418 105.99560547 C466.41576002 110.181266 469.51205244 114.33909607 472.6574707 118.46508789 C473.33479248 119.35639404 474.01211426 120.2477002 474.70996094 121.16601562 C476.00740972 122.87020994 477.30997536 124.57052602 478.61865234 126.26611328 C479.50605103 127.43388306 479.50605103 127.43388306 480.41137695 128.62524414 C480.92974121 129.30031006 481.44810547 129.97537598 481.98217773 130.67089844 C487.551249 139.12591483 488.16958406 145.43468007 488.10572815 155.44747925 C488.11105783 156.90744322 488.11812594 158.3674017 488.12677521 159.82734978 C488.14537401 163.82624454 488.1391072 167.82476827 488.12862217 171.82367826 C488.12162223 176.14145699 488.13763419 180.45916011 488.15061951 184.7769165 C488.17225198 193.23083904 488.17213445 201.68462692 488.16399396 210.13856803 C488.15769148 217.01092141 488.15883328 223.88323556 488.16526604 230.75558853 C488.16616769 231.73409526 488.16706935 232.71260199 488.16799833 233.72076044 C488.16984955 235.70866887 488.17171211 237.69657728 488.17358588 239.68448569 C488.19016197 258.32278318 488.18144702 276.96100496 488.16460031 295.5992979 C488.14990607 312.64433025 488.1645282 329.68918629 488.19337047 346.73419593 C488.22277638 364.24292886 488.23373309 381.75158045 488.22418827 399.260337 C488.22316573 401.24150156 488.22217112 403.22266613 488.22120476 405.20383072 C488.22072837 406.17855873 488.22025198 407.15328674 488.21976115 408.15755197 C488.21759846 415.0188628 488.22739347 421.8800965 488.24197578 428.74139023 C488.2595079 437.10724575 488.25936924 445.47287656 488.23662413 453.83872329 C488.22548948 458.10536679 488.22230159 462.37161452 488.24092484 466.63824081 C488.25777063 470.54803411 488.25132392 474.45708773 488.22670805 478.36683346 C488.22183767 479.77725769 488.22530522 481.18774205 488.23819549 482.59811579 C488.31109352 491.19832106 487.54641102 497.898373 482.59106445 505.11352539 C480.23950195 507.36743164 480.23950195 507.36743164 477.96606445 508.67602539 C477.21067383 509.13106445 476.4552832 509.58610352 475.67700195 510.05493164 C471.47219032 512.18883418 467.78276505 512.25037293 463.18212891 512.22705078 C462.43066589 512.22719681 461.67920288 512.22734283 460.90496826 512.22749329 C458.42139803 512.22679668 455.93790283 512.21901607 453.4543457 512.21118164 C451.73227479 512.20931657 450.01020335 512.20789308 448.28813171 512.20689392 C443.75567154 512.20307579 439.22324341 512.1932515 434.6907959 512.18218994 C430.06575962 512.1719607 425.44071816 512.16739305 420.81567383 512.16235352 C411.74078996 512.15162862 402.66592987 512.13456062 393.59106445 512.11352539 C393.58959789 511.24991898 393.58813133 510.38631256 393.58662033 509.49653625 C393.54955038 488.47207068 393.49053308 467.44776629 393.40716171 446.4234314 C393.36737161 436.2561619 393.33497895 426.0889698 393.32006836 415.92163086 C393.30705172 407.05859943 393.28008667 398.19573829 393.23645139 389.33280277 C393.21383691 384.64097721 393.19815377 379.9493617 393.1991806 375.25747681 C393.19992722 370.83819997 393.18197578 366.41938747 393.14989662 362.00023079 C393.14140201 360.38138001 393.13964473 358.76247713 393.14526176 357.14361382 C393.17510074 347.21928195 393.04872308 339.8895882 385.96606445 332.30102539 C378.66203643 326.87120771 369.48055949 326.67752267 360.75 326.73257446 C359.59694964 326.72789449 358.44389929 326.72321452 357.25590801 326.71839273 C353.41308086 326.70647842 349.57061267 326.71588635 345.7277832 326.7253418 C342.96423613 326.72292404 340.20070405 326.71603979 337.43716431 326.70941162 C330.72277626 326.69610529 324.0084891 326.69893814 317.29409719 326.70764954 C311.83484018 326.71443793 306.37561134 326.71533783 300.91635132 326.71207809 C300.13794158 326.7116184 299.35953184 326.7111587 298.55753392 326.71068507 C296.97597256 326.70972584 295.39441122 326.7087532 293.81284988 326.70776729 C278.99923055 326.69922248 264.18566702 326.70903324 249.37205684 326.72516839 C236.67452364 326.73857075 223.97707273 326.7362424 211.27954102 326.72241211 C196.51719338 326.70634021 181.75489457 326.70004637 166.99253941 326.7092489 C165.41695214 326.7102045 163.84136487 326.71114761 162.26577759 326.71207809 C161.49065549 326.71254092 160.71553339 326.71300375 159.91692275 326.7134806 C154.46725741 326.71606566 149.01762317 326.71170995 143.56796265 326.70463943 C136.9222907 326.69620633 130.27672499 326.6985425 123.63106513 326.71448167 C120.24341051 326.72234023 116.85607848 326.72386973 113.46840286 326.71553421 C109.78946938 326.70731759 106.11103098 326.71764263 102.43212891 326.73257446 C101.3708311 326.7258823 100.30953329 326.71919013 99.21607494 326.71229517 C91.53135483 326.77265234 83.57283197 327.57540159 77.21606445 332.30102539 C69.57313481 340.48987858 70.00844411 348.95191983 70.04516602 359.53540039 C70.03642298 361.20159364 70.02593466 362.86777851 70.01383972 364.53395081 C69.98604841 369.03959893 69.98257352 373.54497214 69.98355961 378.05069351 C69.98042459 382.76595421 69.95479413 387.48109217 69.93157959 392.19628906 C69.89106113 401.1173032 69.87068864 410.03824432 69.8576057 418.95933628 C69.84172158 429.11900697 69.80329999 439.27855365 69.76301241 449.43815231 C69.68067031 470.3299024 69.62654265 491.22164659 69.59106445 512.11352539 C59.7243458 512.22976506 49.85779209 512.31841525 39.9905262 512.37258625 C35.40790616 512.3985958 30.8257572 512.43383408 26.2434082 512.49072266 C21.81484268 512.54535323 17.38672809 512.57501081 12.95785141 512.58791161 C11.27464583 512.59709615 9.59146282 512.61503082 7.90845108 512.64217567 C-1.36112926 512.78563303 -9.59123352 512.84685514 -17.40893555 507.11352539 C-19.6628418 504.76196289 -19.6628418 504.76196289 -20.97143555 502.48852539 C-21.42647461 501.73313477 -21.88151367 500.97774414 -22.3503418 500.19946289 C-24.54124714 495.88232837 -24.55343413 492.03186794 -24.54594994 487.30721188 C-24.54860176 486.49970369 -24.55125359 485.6921955 -24.55398577 484.86021736 C-24.56169727 482.13124155 -24.56223865 479.40231059 -24.56283569 476.67332458 C-24.5668491 474.70620689 -24.57128712 472.73909001 -24.57611525 470.77197415 C-24.58810024 465.34810665 -24.59373366 459.92424806 -24.5982964 454.50036991 C-24.60424523 448.65763505 -24.61585689 442.81491088 -24.62658691 436.97218323 C-24.64996749 423.51995489 -24.66452075 410.06772408 -24.67681633 396.61548155 C-24.68107078 391.96119648 -24.68564979 387.30691182 -24.69039965 382.65262723 C-24.71563536 357.90671174 -24.73770918 333.16079578 -24.75012779 308.41487026 C-24.75304913 302.68087702 -24.75601665 296.94688381 -24.7590332 291.21289062 C-24.75940411 290.50051207 -24.75977502 289.78813351 -24.76015717 289.05416772 C-24.77231109 265.96021241 -24.80325216 242.86633334 -24.84495473 219.77241383 C-24.88774751 196.03145676 -24.91436949 172.29053996 -24.91960251 148.54954328 C-24.92268958 134.56724552 -24.93357914 120.58504341 -24.96815109 106.6027813 C-24.9961288 95.26876297 -25.00716089 83.93488955 -24.99595563 72.60083937 C-24.99076319 66.81732785 -24.99369427 61.03411989 -25.01842117 55.25065231 C-25.04087448 49.95478405 -25.04020389 44.6594381 -25.0212173 39.36356092 C-25.01841183 37.44894253 -25.02404614 35.534289 -25.03903024 33.61972719 C-25.17752262 14.76972386 -25.17752262 14.76972386 -19.40893555 7.11352539 C-17.05737305 4.85961914 -17.05737305 4.85961914 -14.78393555 3.55102539 C-13.65084961 2.8684668 -13.65084961 2.8684668 -12.49487305 2.17211914 C-8.29006141 0.03821661 -4.60063614 -0.02332215 0 0 Z " fill="#000000" transform="translate(24.408935546875,-0.113525390625)"/>
<path d="M0 0 C56.76 0 113.52 0 172 0 C172 56.43 172 112.86 172 171 C115.24 171 58.48 171 0 171 C0 114.57 0 58.14 0 0 Z " fill="#000000" transform="translate(139,0)"/>
<path d="M0 0 C77.22 0 154.44 0 234 0 C234 15.51 234 31.02 234 47 C156.78 47 79.56 47 0 47 C0 31.49 0 15.98 0 0 Z " fill="#000000" transform="translate(139,465)"/>
<path d="M0 0 C77.22 0 154.44 0 234 0 C234 15.51 234 31.02 234 47 C156.78 47 79.56 47 0 47 C0 31.49 0 15.98 0 0 Z " fill="#000000" transform="translate(139,372)"/>
</svg>
