<?xml version="1.0" encoding="UTF-8"?>
<svg version="1.1" xmlns="http://www.w3.org/2000/svg" width="512" height="512">
<path d="M0 0 C0.91297852 0.16628906 1.82595703 0.33257812 2.76660156 0.50390625 C44.3986228 8.16363077 83.16052206 26.40624883 116 53 C116.54446777 53.44005371 117.08893555 53.88010742 117.64990234 54.33349609 C131.72173929 65.81174863 144.93680647 78.57719064 156 93 C156.75925781 93.93070312 157.51851563 94.86140625 158.30078125 95.8203125 C184.1596216 128.07168914 200.62794761 167.52514646 208 208 C208.16371094 208.83563477 208.32742188 209.67126953 208.49609375 210.53222656 C213.78656862 238.24163521 213.41678597 270.35093304 208 298 C207.83371094 298.91297852 207.66742188 299.82595703 207.49609375 300.76660156 C199.83636923 342.3986228 181.59375117 381.16052206 155 414 C154.55994629 414.54446777 154.11989258 415.08893555 153.66650391 415.64990234 C142.18825137 429.72173929 129.42280936 442.93680647 115 454 C114.06929688 454.75925781 113.13859375 455.51851563 112.1796875 456.30078125 C79.92831086 482.1596216 40.47485354 498.62794761 0 506 C-0.83563477 506.16371094 -1.67126953 506.32742188 -2.53222656 506.49609375 C-30.24163521 511.78656862 -62.35093304 511.41678597 -90 506 C-90.91297852 505.83371094 -91.82595703 505.66742188 -92.76660156 505.49609375 C-134.3986228 497.83636923 -173.16052206 479.59375117 -206 453 C-206.54446777 452.55994629 -207.08893555 452.11989258 -207.64990234 451.66650391 C-221.72173929 440.18825137 -234.93680647 427.42280936 -246 413 C-246.75925781 412.06929688 -247.51851562 411.13859375 -248.30078125 410.1796875 C-274.1596216 377.92831086 -290.62794761 338.47485354 -298 298 C-298.16371094 297.16436523 -298.32742188 296.32873047 -298.49609375 295.46777344 C-303.78656862 267.75836479 -303.41678597 235.64906696 -298 208 C-297.83371094 207.08702148 -297.66742188 206.17404297 -297.49609375 205.23339844 C-289.83636923 163.6013772 -271.59375117 124.83947794 -245 92 C-244.55994629 91.45553223 -244.11989258 90.91106445 -243.66650391 90.35009766 C-232.18825137 76.27826071 -219.42280936 63.06319353 -205 52 C-204.06929688 51.24074219 -203.13859375 50.48148438 -202.1796875 49.69921875 C-169.92831086 23.8403784 -130.47485354 7.37205239 -90 0 C-89.16436523 -0.16371094 -88.32873047 -0.32742188 -87.46777344 -0.49609375 C-59.75836479 -5.78656862 -27.64906696 -5.41678597 0 0 Z M40.8890686 169.02432251 C38.58621135 171.33529383 36.29026084 173.6530461 33.99462891 175.97119141 C32.71913325 177.25517284 31.4433687 178.53888719 30.1673584 179.82235718 C27.44013346 182.56618321 24.71432129 185.31140217 21.98949051 188.05760574 C17.68229422 192.3976113 13.36897744 196.73149896 9.05429077 201.0640564 C7.57344223 202.5511644 6.09259392 204.03827263 4.61174583 205.52538109 C3.50036125 206.64143986 3.50036125 206.64143986 2.36652446 207.78004527 C-7.66534714 217.85486638 -17.69251918 227.93429938 -27.70556641 238.02783203 C-34.47980189 244.8564237 -41.26278847 251.67618651 -48.0560652 258.48583734 C-51.64655185 262.08571413 -55.23227078 265.69007689 -58.80726242 269.30534744 C-62.16034054 272.69610803 -65.5247159 276.07522052 -68.89831543 279.44556046 C-70.13627146 280.68649971 -71.36990994 281.93176278 -72.59895706 283.18152618 C-74.27170747 284.88122231 -75.95899661 286.56498591 -77.65097046 288.24551392 C-78.13832117 288.74811096 -78.62567189 289.250708 -79.12779081 289.76853526 C-80.50548363 291.11792946 -80.50548363 291.11792946 -83 293 C-87.34954531 292.88015805 -89.76533712 289.5997623 -92.61962891 286.64160156 C-93.44497131 285.80486908 -93.44497131 285.80486908 -94.2869873 284.95123291 C-95.48082102 283.73929411 -96.67124046 282.52398474 -97.85863113 281.30573273 C-99.74418168 279.37256083 -101.63983331 277.44984621 -103.53866577 275.52972412 C-108.9356834 270.06858655 -114.31447371 264.58966467 -119.68505859 259.10253906 C-122.9727448 255.74495919 -126.27283591 252.39997279 -129.58042526 249.06200409 C-130.83308379 247.79266985 -132.08091783 246.51855425 -133.32359695 245.23944855 C-143.64550779 234.61653994 -152.57235588 227.74007149 -168 227 C-178.81708519 227.74758417 -187.909341 232.88891406 -195 241 C-201.05531227 250.8810535 -203.99586948 260.38924881 -201.31640625 271.94921875 C-197.90227233 282.10662133 -191.1186328 289.1803724 -183.64306641 296.6315918 C-182.82598709 297.45378204 -182.00890778 298.27597229 -181.16706848 299.12307739 C-178.48368513 301.82028101 -175.79301871 304.51007242 -173.1015625 307.19921875 C-171.69860356 308.60508362 -170.2956473 310.01095123 -168.89303052 311.41715747 C-164.49025891 315.83098222 -160.08223325 320.23951029 -155.67089844 324.64477539 C-151.13602833 329.17360131 -146.61042605 333.71153999 -142.08923018 338.25401372 C-138.19041648 342.17049278 -134.2857669 346.08108681 -130.37648714 349.98711902 C-128.04897964 352.31282226 -125.72437926 354.64129789 -123.40410233 356.97421837 C-120.81510459 359.57559242 -118.2166915 362.1671943 -115.61572266 364.7565918 C-114.48078621 365.90299385 -114.48078621 365.90299385 -113.32292175 367.07255554 C-104.46878151 375.84014086 -95.68438863 380.81236111 -83 381 C-71.91493004 380.07050656 -63.12804584 374.89910868 -55.4598999 367.10154724 C-54.76955225 366.41970511 -54.0792046 365.73786298 -53.36793733 365.03535897 C-51.07936357 362.76890329 -48.80888384 360.48518225 -46.53808594 358.20092773 C-44.89221781 356.56348002 -43.24529815 354.92708867 -41.59741211 353.29167175 C-37.13963734 348.86089377 -32.69781994 344.41443971 -28.25956249 339.96412158 C-24.07629734 335.7728065 -19.88329879 331.59126399 -15.69110683 327.40888096 C-6.88097366 318.61814358 1.91343306 309.81180632 10.70273754 301.00025064 C18.22847691 293.4562698 25.76865838 285.92697622 33.31933594 278.40795898 C42.10611121 269.65802543 50.88284631 260.8982047 59.64463592 252.12324673 C64.27612353 247.48528476 68.91171004 242.85162779 73.55835724 238.22884941 C77.92877978 233.87973745 82.28423837 229.51616407 86.62884521 225.14126778 C88.22076644 223.54303943 89.81775638 221.94984045 91.42028046 220.36224365 C106.91162206 205.03370601 106.91162206 205.03370601 112.3125 184.4375 C112.18548829 173.99713753 108.33635616 165.40856439 101 158 C78.40837485 139.43098436 58.71637203 151.21534873 40.8890686 169.02432251 Z " fill="#000000" transform="translate(301,3)"/>
</svg>
