<?xml version="1.0" standalone="no"?>
<!DOCTYPE svg PUBLIC "-//W3C//DTD SVG 20010904//EN"
 "http://www.w3.org/TR/2001/REC-SVG-20010904/DTD/svg10.dtd">
<svg version="1.0" xmlns="http://www.w3.org/2000/svg"
 width="833.000000pt" height="843.000000pt" viewBox="0 0 833.000000 843.000000"
 preserveAspectRatio="xMidYMid meet">

<g transform="translate(0.000000,843.000000) scale(0.100000,-0.100000)"
fill="#000000" stroke="none">
<path d="M3948 7832 c-80 -141 -183 -321 -227 -399 -45 -78 -81 -145 -81 -148
0 -3 54 -5 119 -5 l120 0 43 80 43 80 282 0 282 0 42 -76 c24 -43 51 -79 63
-83 11 -5 70 -11 130 -15 l108 -7 -52 98 c-28 54 -133 241 -232 416 l-181 317
-156 0 -156 0 -147 -258z m404 -63 c48 -90 88 -168 88 -172 0 -4 -85 -7 -190
-7 -104 1 -190 6 -190 10 0 5 35 74 78 152 43 79 84 153 91 166 7 13 18 22 24
20 7 -2 51 -78 99 -169z"/>
<path d="M4873 8075 c-3 -9 -3 -18 -1 -21 3 -3 8 4 11 16 6 23 -1 27 -10 5z"/>
<path d="M4930 8033 c0 -2 64 -140 143 -306 l143 -303 -38 -124 c-21 -68 -35
-127 -31 -131 9 -8 205 -70 209 -66 1 1 20 58 43 127 36 112 44 128 73 145 18
11 147 86 287 167 227 132 252 148 230 157 -13 5 -68 26 -121 46 l-97 37 -168
-102 c-223 -136 -221 -135 -226 -130 -3 3 -46 95 -95 205 -66 147 -96 203
-114 212 -26 13 -238 72 -238 66z"/>
<path d="M2985 7925 c-128 -38 -639 -228 -658 -244 -6 -6 241 -716 258 -738 2
-3 171 64 197 78 15 8 13 19 -23 121 -22 61 -36 114 -32 119 13 11 263 99 284
99 10 0 77 -39 149 -86 l131 -85 107 31 c59 17 115 34 126 37 20 6 -27 40
-184 135 -47 28 -87 53 -89 54 -2 2 24 29 57 61 81 78 98 138 68 248 -18 71
-40 109 -81 143 -71 58 -176 67 -310 27z m119 -165 c46 -17 72 -102 46 -151
-15 -27 -47 -41 -263 -118 -106 -38 -199 -72 -208 -75 -14 -6 -22 8 -47 76
-47 132 -47 123 -10 136 18 6 116 40 218 76 189 66 220 73 264 56z"/>
<path d="M6011 7922 c-1 -9 -8 -11 -23 -6 -36 10 -22 1 117 -76 250 -139 439
-263 472 -310 10 -14 13 -34 10 -56 -6 -34 -483 -780 -535 -836 -36 -39 -80
-37 -162 7 -417 226 -734 342 -1119 411 -74 13 -146 23 -160 23 -15 -1 10 -7
54 -15 122 -20 226 -44 264 -60 19 -9 56 -18 83 -21 26 -3 48 -9 48 -12 0 -4
12 -8 26 -9 15 -1 32 -6 38 -10 6 -5 72 -33 146 -62 74 -29 139 -57 144 -62 6
-4 20 -8 33 -8 13 0 23 -4 23 -8 0 -5 18 -18 40 -31 54 -30 51 -35 -7 -12 -27
10 -82 32 -123 49 -621 247 -1401 288 -2080 111 -140 -36 -291 -84 -345 -108
-74 -33 -133 -53 -146 -49 -16 5 60 42 215 105 226 92 302 117 446 149 47 10
77 20 68 22 -9 2 -68 -9 -130 -24 -322 -76 -622 -193 -924 -358 -115 -63 -157
-70 -198 -33 -13 12 -98 137 -189 277 -90 140 -205 318 -256 395 -50 77 -91
147 -91 157 0 9 -5 20 -10 23 -6 3 -10 1 -10 -6 0 -8 -4 -8 -16 2 -10 8 -14
23 -12 41 4 22 2 25 -9 17 -15 -13 -18 -101 -4 -127 7 -14 -12 -35 -107 -112
-424 -347 -787 -802 -1037 -1300 -202 -404 -340 -878 -391 -1352 -24 -215 -24
-671 -1 -868 74 -622 251 -1142 565 -1653 l88 -142 284 -6 c157 -3 286 -6 288
-7 24 -15 122 -119 122 -130 0 -9 3 -12 7 -9 3 4 58 -44 122 -106 499 -485
1108 -824 1776 -986 94 -23 211 -52 260 -65 155 -41 156 -41 55 21 -112 69
-296 193 -286 193 4 0 21 -7 38 -16 28 -15 30 -15 25 0 -4 10 -1 16 9 16 8 0
13 4 9 9 -3 5 -1 12 5 16 6 4 8 11 5 16 -4 5 4 5 19 -1 32 -12 35 4 5 20 -11
7 -18 14 -16 17 3 2 19 -3 36 -12 44 -22 38 -12 -15 30 -57 43 -51 44 26 5 33
-17 60 -28 60 -26 0 3 -20 19 -45 36 -25 17 -45 36 -45 42 0 7 4 7 13 1 6 -6
23 -13 37 -16 l25 -6 -25 20 c-16 13 -19 19 -8 15 10 -3 20 -1 23 4 4 7 14 6
28 0 26 -13 25 -12 -148 109 -162 113 -358 273 -544 444 -85 78 -158 141 -163
140 -4 -2 -7 3 -5 10 1 7 -6 11 -18 9 -14 -2 -16 0 -7 6 10 6 8 13 -8 27 -11
10 -20 13 -20 7 0 -6 5 -12 12 -14 7 -3 5 -7 -6 -11 -9 -4 -15 -3 -11 2 10 17
-13 21 -29 5 -9 -8 -17 -14 -17 -12 -7 20 -6 57 2 52 6 -3 8 -12 5 -20 -4 -11
-2 -12 14 -4 30 16 31 26 4 51 -53 49 -318 382 -331 416 -9 23 -23 13 -23 -16
0 -46 -46 -213 -76 -276 -15 -32 -55 -95 -89 -139 -106 -140 -102 -130 -66
-171 17 -20 31 -39 31 -44 0 -25 280 -219 482 -333 123 -70 163 -99 249 -182
93 -87 100 -96 64 -81 -22 9 -56 23 -75 30 -150 54 -512 263 -647 373 l-42 34
-3 -85 -3 -85 -38 32 -38 32 21 46 c36 83 37 128 1 204 -37 78 -47 76 -64 -15
-13 -67 -27 -84 -21 -23 12 97 42 178 75 202 34 24 136 179 144 219 2 9 12 52
23 96 12 44 21 91 21 105 1 100 9 228 15 238 5 9 1 9 -18 2 -21 -7 -26 -6 -26
5 0 8 4 15 10 15 5 0 13 12 16 27 4 16 10 33 14 38 7 9 24 102 35 190 10 86
14 101 29 130 9 17 16 38 16 47 0 9 16 49 35 89 19 41 35 81 35 91 0 10 5 18
10 18 6 0 10 7 10 15 0 8 9 30 19 49 30 53 46 166 26 184 -5 4 -5 -1 -2 -11 5
-14 0 -19 -22 -23 -24 -5 -75 -64 -55 -64 3 0 2 -6 -4 -13 -6 -7 -13 -26 -16
-41 -3 -16 -10 -34 -16 -40 -5 -5 -10 -17 -10 -27 0 -9 -16 -46 -35 -83 -19
-37 -34 -70 -34 -74 3 -21 -2 -32 -14 -26 -6 4 -9 4 -5 -1 8 -8 -21 -65 -34
-65 -4 0 -4 -7 -1 -17 4 -11 3 -14 -5 -9 -8 5 -12 0 -12 -13 0 -11 -4 -22 -9
-25 -5 -4 -17 -42 -27 -87 -12 -55 -21 -78 -30 -75 -7 3 -15 -2 -18 -11 -4 -9
-14 -13 -26 -10 -10 3 -27 -2 -37 -10 -10 -8 -13 -12 -6 -9 6 4 14 2 18 -4 4
-6 -6 -10 -22 -10 -16 0 -33 -4 -39 -9 -5 -5 -23 -12 -40 -15 -24 -5 -33 -3
-37 8 -4 9 -16 16 -27 16 -12 0 -19 4 -15 9 3 6 -2 14 -10 18 -21 12 -28 81
-14 135 6 23 13 55 16 70 4 19 15 31 43 42 21 8 54 31 72 49 34 34 178 308
178 339 0 8 7 21 15 28 8 7 15 16 15 21 0 5 11 31 24 59 24 50 24 69 -1 49 -8
-7 -13 -8 -13 -1 0 14 45 41 79 48 70 14 221 -78 221 -135 0 -13 8 -25 22 -30
11 -4 95 -88 185 -186 l163 -179 0 -278 c0 -308 -4 -292 67 -263 l38 15 -1
143 c0 78 -1 255 -2 392 l-2 250 -171 188 -170 187 -219 0 -220 0 0 -32 -1
-33 -14 25 c-14 24 -14 24 -15 3 0 -12 -4 -25 -10 -28 -6 -4 -10 12 -10 40 0
32 -6 52 -19 67 -21 22 -54 19 -46 -4 3 -7 -13 -37 -35 -65 -22 -29 -42 -64
-46 -77 -3 -13 -15 -27 -26 -29 -15 -4 -19 -11 -15 -26 3 -12 1 -21 -4 -21 -5
0 -9 -5 -9 -11 0 -11 -9 -32 -56 -134 -10 -22 -18 -46 -17 -52 0 -7 -3 -13 -8
-13 -4 0 -13 -10 -20 -21 -9 -17 -8 -20 3 -13 10 6 11 5 2 -7 -7 -8 -15 -29
-19 -47 -3 -17 -11 -32 -16 -32 -6 0 -8 -4 -5 -9 7 -11 -20 -35 -32 -27 -17
10 -56 -99 -67 -189 -3 -28 -9 -55 -13 -61 -20 -27 -86 -65 -115 -66 -17 -1
-26 -3 -19 -5 6 -3 12 -9 12 -14 0 -6 -4 -7 -10 -4 -5 3 -18 1 -28 -4 -15 -8
-24 -5 -42 14 -13 14 -28 25 -34 25 -6 0 -28 26 -49 58 -35 52 -38 62 -35 114
3 35 0 59 -6 61 -7 2 -6 10 3 20 11 14 11 20 1 32 -11 13 -8 15 13 15 14 0 29
5 32 10 4 6 10 8 15 5 5 -3 14 4 21 16 14 26 55 63 89 81 67 33 82 53 144 176
35 70 78 149 97 175 59 84 69 102 69 120 0 9 5 17 10 17 6 0 10 9 10 20 0 11
5 20 11 20 6 0 9 6 6 14 -7 18 14 27 44 19 14 -4 20 -2 15 5 -11 17 -65 25
-82 11 -8 -7 -25 -35 -38 -63 -13 -28 -38 -82 -56 -121 -37 -80 -81 -158 -86
-152 -6 6 98 259 123 300 44 70 118 98 208 78 71 -16 128 -58 148 -110 l17
-41 231 0 232 0 72 -77 c39 -43 120 -131 178 -196 l107 -119 0 -394 c0 -217 1
-394 3 -394 1 0 25 9 52 19 l50 19 2 403 2 404 -235 258 -235 257 -227 0
c-301 0 -665 11 -655 20 4 4 207 10 451 12 l443 5 197 -216 c108 -119 218
-240 244 -269 l48 -54 0 -399 c0 -269 3 -399 10 -399 6 0 29 9 52 21 l41 21
-5 387 -4 388 -185 204 c-278 305 -261 286 -254 309 6 19 9 17 38 -19 18 -22
123 -139 235 -260 l202 -221 0 -390 c0 -214 3 -390 6 -390 4 0 22 10 42 22 28
17 45 43 86 132 29 61 58 127 66 146 7 19 33 65 56 102 l42 66 -18 71 c-13 53
-28 83 -62 123 -195 234 -247 299 -332 411 -53 71 -123 177 -156 237 -65 117
-86 142 -95 118 -4 -10 -20 -15 -45 -15 -35 0 -40 3 -40 23 0 57 34 54 -531
54 -426 0 -519 2 -519 13 0 11 95 15 517 20 284 4 517 8 519 9 1 2 5 14 8 28
4 18 -1 33 -19 53 l-24 27 -278 6 -278 5 -75 80 -75 80 -112 -1 c-94 0 -113 3
-113 15 0 12 20 15 119 15 l119 0 75 -80 75 -80 256 0 255 0 -27 44 -27 43
-140 7 c-77 3 -170 6 -206 6 l-66 0 -93 100 -92 100 -96 0 c-88 1 -95 2 -78
15 14 10 45 15 102 15 l82 0 96 -100 96 -100 185 0 c102 0 185 2 185 4 0 2 -9
24 -20 50 l-21 46 -124 0 -124 0 -118 130 -118 130 -77 0 c-65 0 -76 2 -72 15
5 12 24 15 83 15 l77 0 117 -124 117 -125 115 -3 c99 -3 114 -1 109 12 -12 31
-34 136 -34 163 l0 27 -102 0 -102 0 -78 78 -78 78 0 236 c0 226 -1 236 -20
241 -10 3 -27 20 -36 39 -15 32 -15 37 0 67 33 62 114 61 141 -2 16 -38 9 -61
-26 -91 l-29 -25 0 -223 0 -223 61 -67 61 -68 100 0 101 0 -7 54 c-3 30 -15
92 -26 139 -57 239 -65 473 -25 727 4 25 3 31 -4 20 -12 -18 -24 -8 -15 14 3
9 11 13 17 9 6 -3 7 -1 3 5 -4 7 -14 12 -23 12 -10 0 -13 6 -9 16 3 9 6 18 6
20 0 3 4 3 9 -1 6 -3 8 4 4 17 -12 52 -14 83 -5 69 7 -10 12 -3 17 27 5 32 10
39 22 35 11 -4 14 -2 9 5 -4 7 -1 12 8 12 9 0 16 -6 17 -12 1 -15 27 51 28 70
1 8 -4 10 -11 6 -7 -4 -8 -3 -4 5 4 6 11 9 16 6 7 -5 30 37 70 131 41 95 66
122 148 160 122 57 194 86 199 80 3 -2 -5 -9 -16 -16 -12 -6 -19 -15 -16 -19
2 -5 -2 -14 -11 -21 -8 -7 -13 -19 -10 -26 3 -7 1 -16 -4 -19 -6 -4 -10 -17
-10 -31 0 -13 -5 -24 -11 -24 -7 0 -9 -10 -7 -25 3 -14 1 -25 -4 -25 -5 0 -1
-14 7 -30 9 -17 20 -28 25 -25 13 8 13 -8 -1 -22 -7 -7 -6 -12 4 -16 9 -3 19
6 27 29 8 19 20 34 29 34 8 0 11 3 8 6 -4 4 4 19 16 34 12 15 28 36 35 46 7
11 9 12 5 4 -6 -13 -4 -13 10 -1 21 17 22 31 2 31 -8 0 -15 2 -15 5 0 7 31 44
53 64 9 8 17 23 17 33 0 10 5 18 11 18 6 0 9 -7 6 -14 -4 -10 -1 -13 8 -10 7
3 16 -3 20 -15 6 -19 7 -19 26 -3 11 9 21 15 23 12 2 -3 14 4 27 15 14 13 20
14 15 5 -4 -8 9 3 28 24 24 26 32 42 25 47 -7 4 -8 13 -4 20 8 14 -34 -18 -46
-34 -3 -5 -9 -1 -13 8 -5 13 -14 16 -36 11 -50 -9 -34 9 23 27 264 83 555 127
827 127 203 -1 500 -31 500 -52 0 -5 -10 -7 -22 -3 -20 5 -21 5 -5 -5 9 -6 14
-17 11 -23 -5 -8 -3 -8 7 1 7 6 18 12 24 12 5 0 4 -4 -4 -9 -13 -8 -13 -12 0
-27 12 -16 12 -17 -3 -11 -10 3 -18 2 -18 -3 0 -6 5 -10 10 -10 6 0 10 -7 10
-16 0 -8 4 -13 8 -10 5 3 16 -4 25 -15 9 -10 26 -19 37 -19 11 0 20 -4 20 -10
0 -5 -4 -10 -10 -10 -13 0 -13 -27 0 -35 6 -4 9 -1 8 7 -4 16 34 11 44 -5 4
-7 8 -8 8 -3 0 5 6 3 13 -3 8 -6 17 -7 21 -3 4 4 5 -7 1 -23 -4 -20 -3 -26 3
-17 7 11 10 9 14 -6 5 -16 1 -20 -13 -17 -11 2 -19 0 -19 -6 0 -5 5 -9 11 -9
6 0 9 -6 6 -13 -6 -16 21 -35 43 -32 9 2 16 -5 16 -14 1 -9 4 -24 9 -33 11
-26 -10 -22 -24 5 l-11 22 6 -24 c4 -16 3 -21 -5 -17 -14 9 -14 -4 -1 -24 6
-10 10 -11 10 -2 0 6 5 12 11 12 7 0 8 -7 4 -17 -13 -34 -14 -53 -2 -60 24
-16 38 -53 28 -72 -6 -10 -7 -21 -3 -25 3 -4 -2 -4 -12 0 -14 5 -17 3 -14 -12
2 -11 11 -18 21 -16 12 2 15 -2 11 -15 -5 -14 -4 -15 4 -4 6 8 8 20 5 27 -2 6
0 15 5 18 13 8 13 -56 0 -71 -7 -9 -7 -17 1 -26 6 -8 7 -18 3 -22 -4 -5 1 -5
12 -1 13 5 17 2 13 -9 -4 -8 -1 -17 5 -21 6 -4 8 -3 5 3 -4 6 -1 13 7 16 11 4
13 -1 10 -21 -7 -36 -13 -40 -30 -18 -7 11 -16 18 -18 15 -10 -10 35 -51 50
-45 8 3 13 10 10 15 -3 5 1 12 9 15 12 4 13 2 6 -13 -13 -24 -3 -34 16 -16 18
19 33 19 33 2 0 -7 10 -13 23 -14 39 -2 71 -12 99 -33 15 -11 31 -20 35 -20 5
0 14 -9 21 -20 7 -11 19 -20 28 -20 8 0 13 -4 10 -9 -4 -5 0 -11 6 -14 10 -3
10 -7 -1 -20 -7 -9 -17 -15 -20 -12 -4 2 -8 -3 -8 -11 0 -8 6 -13 14 -10 21 9
10 -46 -12 -58 -20 -11 -31 -20 -62 -46 -15 -13 -16 -13 -10 3 5 13 1 17 -14
17 -11 0 -17 -4 -14 -10 3 -5 -1 -10 -10 -10 -9 0 -23 -7 -32 -16 -9 -8 -21
-13 -29 -10 -7 3 -18 -2 -24 -9 -7 -8 -16 -12 -21 -9 -5 3 -25 -8 -45 -25 -19
-17 -39 -29 -43 -26 -5 2 -11 -5 -15 -18 -4 -15 -8 -18 -14 -10 -6 9 -12 8
-24 -6 -9 -11 -13 -22 -10 -26 4 -3 -1 -3 -11 1 -10 3 -17 1 -17 -5 0 -6 -6
-11 -14 -11 -8 0 -16 -7 -20 -15 -3 -8 -12 -15 -21 -15 -8 0 -15 -4 -15 -10 0
-5 -4 -10 -10 -10 -9 0 -43 -26 -78 -60 -9 -8 -18 -15 -21 -16 -20 -3 -41 -18
-41 -29 0 -30 -130 -161 -146 -147 -4 4 -4 2 0 -5 4 -7 -8 -23 -28 -38 -20
-15 -34 -32 -33 -38 1 -7 -3 -11 -10 -10 -7 2 -10 -3 -7 -10 8 -21 -38 -15
-59 8 -10 11 -16 15 -13 8 4 -6 2 -14 -3 -17 -12 -8 -41 3 -41 16 0 5 6 6 13
3 6 -4 3 1 -8 10 -11 9 -19 21 -17 26 1 5 -2 9 -8 9 -5 0 -10 7 -10 15 0 8 -4
15 -9 15 -16 0 -22 -35 -12 -61 5 -13 10 -18 10 -10 1 8 4 11 7 8 10 -10 -16
-37 -29 -31 -7 2 -18 -5 -25 -17 -11 -18 -11 -23 -1 -30 7 -4 17 -5 22 -2 5 3
3 9 -4 14 -7 4 -10 11 -6 16 14 14 26 -19 14 -39 -7 -10 -13 -14 -15 -8 -2 5
-9 10 -15 10 -6 0 3 -14 21 -31 28 -27 30 -33 17 -46 -13 -12 -12 -20 10 -61
14 -26 21 -48 16 -50 -6 -2 -7 -12 -1 -26 4 -13 4 -29 -1 -39 -7 -11 -6 -17 0
-17 7 0 10 -21 8 -55 -2 -34 0 -52 6 -48 6 4 7 1 2 -8 -11 -16 -7 -103 5 -107
4 -2 4 -18 0 -37 -5 -21 -4 -35 2 -35 5 0 6 -9 3 -20 -4 -12 -2 -20 5 -20 7 0
10 -6 7 -14 -3 -8 -3 -16 1 -18 4 -2 17 -15 30 -29 l23 -26 -48 -50 c-27 -28
-58 -55 -70 -61 -11 -6 -28 -26 -36 -45 -9 -19 -28 -42 -41 -52 -25 -19 -26
-38 -2 -29 7 3 19 -2 26 -11 22 -26 37 -17 101 58 34 39 66 74 71 75 15 6 8
-23 -12 -48 -11 -14 -20 -31 -20 -37 0 -7 -4 -13 -9 -13 -5 0 -11 -9 -14 -20
-7 -26 -1 -25 39 5 18 14 39 25 48 25 8 0 23 14 33 30 9 17 21 30 25 30 4 0 8
7 8 15 0 8 5 15 10 15 6 0 10 -5 10 -10 0 -6 18 -18 40 -27 22 -10 40 -23 40
-30 0 -7 -5 -12 -11 -10 -6 1 -13 -3 -15 -9 -4 -10 15 -33 51 -60 19 -15 19
-15 -5 -8 -22 6 -23 5 -11 -9 7 -9 17 -14 22 -11 5 3 9 -2 9 -11 0 -12 -7 -14
-27 -9 l-28 5 23 -19 c22 -21 31 -38 12 -27 -16 10 -40 -15 -40 -41 0 -17 -8
-28 -25 -34 -14 -5 -28 -18 -32 -27 -4 -10 -10 -20 -15 -23 -4 -3 -9 -17 -11
-30 -3 -16 -11 -26 -25 -28 -12 -2 -22 -10 -22 -19 0 -9 6 -13 14 -10 9 4 13
1 10 -6 -4 -10 -144 -45 -261 -64 -17 -3 -60 2 -95 10 -35 9 -103 21 -153 28
-49 6 -108 18 -130 26 -38 13 -95 58 -95 74 0 5 -10 19 -22 32 -13 13 -36 38
-51 55 -16 18 -35 32 -43 32 -8 0 -14 5 -14 11 0 5 -4 7 -10 4 -13 -8 -13 28
1 57 5 13 26 34 45 47 39 27 104 96 104 111 0 5 -14 7 -32 4 -18 -3 -41 -6
-50 -7 -9 -1 -16 -5 -15 -10 1 -5 -4 -12 -12 -15 -9 -3 -11 0 -6 8 5 8 4 11
-2 7 -5 -3 -24 -9 -43 -12 -26 -5 -31 -3 -27 10 7 17 -8 21 -18 5 -3 -5 -12
-10 -18 -10 -8 0 -8 3 1 9 10 6 10 11 -3 21 -14 12 -18 11 -27 -1 -8 -11 -9
-11 -5 3 7 20 -16 31 -32 15 -8 -8 -16 -6 -29 6 -10 9 -22 14 -25 10 -4 -3 -7
-1 -7 5 0 7 -12 9 -33 5 -22 -3 -46 1 -67 12 -23 12 -30 13 -25 3 6 -10 5 -11
-6 -1 -7 7 -24 13 -38 13 -31 0 -111 30 -111 41 0 5 -9 9 -20 9 -11 0 -20 5
-20 10 0 6 -9 10 -20 10 -11 0 -20 4 -20 10 0 5 -3 9 -7 8 -5 -1 -26 14 -47
34 -22 20 -43 35 -48 32 -4 -3 -5 2 -2 10 4 10 1 16 -7 16 -10 0 -14 -13 -14
-39 0 -22 2 -39 5 -39 17 1 19 -4 10 -23 -18 -33 4 -69 66 -109 30 -19 54 -38
54 -43 0 -4 -6 -5 -12 0 -16 9 18 -44 46 -72 51 -52 100 -113 114 -142 9 -18
19 -33 24 -33 4 0 8 -7 8 -15 0 -9 6 -18 14 -21 8 -3 17 -16 20 -29 4 -16 11
-22 21 -19 11 5 13 2 9 -10 -4 -10 -1 -16 7 -16 8 0 25 -18 39 -40 23 -39 40
-51 40 -30 0 6 -4 10 -10 10 -5 0 -10 14 -10 30 0 17 -3 30 -7 30 -5 0 -9 12
-9 26 -1 14 -9 33 -17 42 -8 9 -17 28 -20 42 -6 22 -3 21 23 -10 17 -19 30
-40 30 -47 0 -6 4 -13 9 -15 4 -1 35 -55 67 -118 32 -63 77 -146 99 -185 22
-38 47 -83 55 -100 8 -16 23 -37 33 -47 9 -10 17 -25 17 -34 0 -8 5 -12 10 -9
6 3 10 -2 10 -12 0 -25 58 -115 70 -108 5 3 11 -3 15 -14 3 -11 17 -26 30 -35
13 -9 34 -26 47 -38 58 -58 172 -150 208 -168 22 -11 57 -25 77 -30 l38 -10
-45 5 c-86 10 -198 76 -311 182 -57 54 -100 93 -96 87 15 -26 101 -384 93
-391 -2 -2 -18 20 -35 50 -17 30 -38 60 -45 66 -8 7 -18 42 -22 79 -9 87 -22
57 -23 -53 -1 -96 23 -161 92 -257 71 -99 215 -228 400 -358 26 -18 47 -38 47
-44 0 -5 15 4 33 21 17 17 70 58 117 92 47 34 91 66 98 71 6 6 12 8 12 5 0 -3
9 -1 20 5 17 9 20 8 20 -10 0 -11 7 -23 15 -26 8 -4 12 -10 9 -15 -3 -5 9 -9
26 -9 17 0 29 -4 25 -9 -3 -6 6 -6 25 -1 23 7 30 5 30 -5 0 -12 6 -11 33 3 23
13 33 27 35 48 2 16 8 34 13 40 5 6 7 48 5 94 -4 72 -1 91 26 163 49 133 51
143 37 216 -7 36 -18 72 -26 79 -7 7 -13 21 -13 30 -1 38 -17 -14 -23 -72 -4
-38 -13 -66 -25 -80 -11 -11 -28 -37 -37 -56 -22 -43 -31 -24 -16 33 6 23 16
71 22 106 5 35 19 91 30 125 10 33 19 63 19 64 0 2 -45 -39 -100 -91 -56 -52
-127 -109 -159 -126 -68 -36 -85 -40 -48 -11 14 11 29 20 34 20 5 0 16 8 24
18 15 15 62 56 114 98 11 8 13 12 5 8 -8 -4 13 20 48 55 34 34 60 66 58 70 -4
6 8 24 54 79 6 6 9 12 6 12 -3 0 11 24 30 52 19 29 34 56 34 61 0 4 19 38 43
75 49 79 60 98 122 216 43 83 101 176 110 176 6 0 -36 -114 -47 -128 -6 -7
-12 -27 -14 -45 -3 -28 -2 -29 8 -13 6 11 25 34 42 52 50 52 80 89 79 95 -1 3
9 18 23 34 13 15 24 32 24 37 0 5 18 28 39 51 79 84 111 122 111 131 0 5 -7 3
-15 -4 -8 -7 -15 -9 -15 -4 0 12 49 58 78 73 12 7 20 16 17 22 -4 5 1 9 9 9 9
0 16 5 16 11 0 5 4 8 8 5 5 -3 19 13 31 34 12 22 17 40 12 40 -6 0 -11 4 -11
9 0 12 35 86 77 161 44 79 87 202 114 328 39 177 28 489 -18 543 -12 14 -12
18 -1 22 10 4 10 6 1 6 -7 1 -13 7 -13 14 0 6 -7 25 -15 41 -8 15 -12 32 -9
37 3 5 -2 9 -10 9 -8 0 -18 10 -22 23 -4 12 -14 29 -24 37 -9 8 -28 45 -41 83
-13 37 -28 67 -32 67 -5 0 -6 -7 -3 -16 3 -9 2 -12 -5 -9 -6 4 -8 13 -5 21 3
8 -1 17 -9 20 -8 4 -15 10 -15 16 0 5 5 6 10 3 6 -3 10 -1 10 5 0 6 5 8 12 4
7 -5 8 -3 3 6 -5 8 -10 31 -11 51 -1 21 -7 53 -13 71 -20 63 -40 143 -47 183
-9 57 -12 215 -4 220 9 5 6 37 -4 53 -4 6 -4 18 1 25 4 6 8 18 10 26 3 21 23
38 23 20 0 -8 9 -20 20 -27 21 -12 28 -4 10 14 -5 5 -6 15 -1 23 7 11 19 9 65
-12 31 -14 56 -31 56 -37 0 -6 4 -9 10 -5 5 3 104 -42 220 -100 333 -167 556
-258 840 -343 186 -57 222 -75 62 -32 -291 78 -485 156 -876 352 -131 65 -240
117 -242 115 -2 -2 17 -48 42 -103 85 -182 140 -384 163 -596 21 -191 10 -348
-43 -610 -37 -184 -44 -168 73 -168 l99 0 61 69 61 69 0 224 0 224 -30 22
c-23 17 -30 31 -30 56 0 69 87 103 129 50 30 -39 27 -77 -9 -107 l-30 -26 0
-228 0 -228 -72 -78 c-40 -43 -82 -80 -93 -82 -11 -2 -59 -4 -107 -4 -84 -1
-88 -2 -88 -23 0 -25 -25 -144 -34 -168 -5 -13 10 -15 106 -13 l113 1 120 126
120 126 73 0 c39 0 72 1 72 3 0 2 -11 37 -26 78 -80 235 -85 381 -14 457 17
18 20 36 20 116 0 92 -1 95 -30 124 -54 54 -28 126 45 126 73 0 101 -80 45
-127 -29 -25 -30 -28 -30 -111 l0 -86 26 10 c43 17 113 12 153 -11 69 -39 96
-90 210 -409 35 -96 66 -182 69 -190 10 -26 20 147 21 368 1 159 4 211 13 210
7 -2 15 11 18 27 l7 30 6 -35 c4 -19 9 -55 11 -80 2 -25 3 70 1 210 -3 308 10
235 20 -110 8 -234 -2 -476 -29 -738 -12 -121 -7 -211 7 -124 4 24 15 121 24
215 17 189 23 789 9 958 l-8 97 -63 16 c-311 78 -585 187 -1069 426 -166 81
-364 173 -442 203 -736 292 -1520 283 -2254 -25 -52 -22 -231 -107 -397 -188
-449 -222 -669 -311 -974 -395 -74 -21 -138 -41 -142 -45 -4 -4 -13 -123 -18
-266 -12 -281 -2 -608 26 -866 18 -163 23 -184 36 -150 5 14 3 59 -6 120 -20
141 -35 425 -33 635 1 178 1 176 9 -88 6 -235 32 -592 43 -603 3 -2 10 23 16
55 21 104 41 177 75 268 19 50 54 149 79 220 50 141 98 222 153 256 28 17 45
20 91 17 31 -3 65 -9 75 -13 15 -6 17 1 17 79 0 75 -2 87 -20 96 -52 28 -61
89 -20 130 45 45 130 6 130 -60 0 -29 -29 -70 -50 -70 -6 0 -10 -41 -10 -104
0 -82 3 -106 16 -117 36 -30 57 -91 56 -167 0 -41 -3 -77 -6 -80 -3 -3 -6 27
-6 67 0 68 -16 131 -37 144 -6 4 -6 -13 0 -45 7 -37 7 -64 -2 -96 -12 -45 -66
-142 -100 -178 -36 -40 -63 -85 -58 -98 3 -8 3 -17 -1 -21 -4 -4 -7 -10 -7
-13 -1 -4 -6 -17 -13 -28 -6 -12 -8 -24 -5 -28 3 -3 2 -6 -4 -6 -6 0 -14 -15
-17 -34 -4 -19 -14 -37 -23 -40 -9 -4 -13 -9 -10 -12 7 -8 -12 -28 -34 -36 -9
-4 -42 -3 -73 1 -65 9 -63 -3 3 -16 55 -10 63 -29 19 -48 -26 -11 -28 -14 -12
-15 27 0 37 -41 17 -70 -8 -11 -15 -34 -15 -50 -1 -17 -4 -30 -7 -30 -3 0 -6
-15 -7 -32 -1 -52 -11 -107 -22 -121 -13 -16 -34 -116 -26 -128 3 -5 0 -9 -6
-9 -7 0 -10 -7 -7 -15 4 -8 2 -17 -4 -21 -6 -3 -8 -11 -6 -17 2 -7 -5 -20 -16
-30 -11 -9 -25 -27 -31 -40 -9 -17 -22 -23 -56 -25 -49 -4 -147 14 -168 31 -7
5 -16 7 -20 3 -11 -11 35 -44 76 -56 20 -5 56 -10 80 -10 46 0 50 -4 26 -27
-28 -29 -103 -28 -156 1 -54 29 -59 27 -23 -8 23 -23 54 -36 118 -50 36 -8 34
-22 -4 -30 -19 -3 -29 -11 -26 -18 2 -7 10 -12 16 -10 18 4 26 -29 10 -39 -10
-6 -10 -9 -1 -9 6 0 12 -12 12 -26 0 -14 -4 -23 -8 -20 -4 2 -9 -5 -9 -16 -1
-12 -6 -24 -11 -27 -9 -6 -27 -60 -24 -73 1 -5 -3 -8 -9 -8 -8 0 -8 -4 -1 -13
9 -10 8 -19 -3 -34 -8 -12 -16 -31 -18 -43 -2 -12 -8 -25 -13 -28 -5 -4 -11
-25 -13 -47 -1 -22 -8 -43 -13 -46 -10 -6 -19 -60 -18 -108 0 -13 -4 -29 -9
-35 -5 -6 -8 -26 -6 -44 1 -18 -1 -35 -5 -37 -4 -3 -5 -16 -3 -30 3 -14 -3
-38 -14 -58 -15 -24 -18 -39 -11 -57 5 -13 5 -26 0 -29 -12 -8 -26 -43 -23
-58 1 -7 -9 -15 -23 -19 -18 -4 -23 -11 -19 -22 4 -10 3 -14 -1 -10 -5 4 -19
3 -32 -2 -18 -7 -22 -6 -18 5 4 10 0 12 -15 8 -12 -3 -21 -9 -21 -14 0 -5 -5
-9 -11 -9 -5 0 -7 5 -3 11 4 8 0 8 -15 0 -23 -13 -45 -6 -36 10 4 5 -2 12 -12
16 -51 18 -68 73 -43 139 9 24 9 25 -5 14 -8 -7 -15 -18 -15 -25 0 -7 -7 -16
-16 -19 -10 -4 -14 -14 -11 -26 5 -21 -7 -28 -18 -10 -3 6 -15 10 -26 10 -10
0 -19 4 -19 10 0 20 -48 22 -76 4 -21 -14 -29 -15 -32 -6 -3 10 -7 10 -18 1
-11 -9 -18 -9 -26 -1 -7 7 -19 12 -28 12 -22 0 -64 45 -56 59 4 7 1 8 -8 5 -9
-3 -18 -21 -22 -40 -8 -42 17 -116 82 -238 24 -48 42 -92 38 -98 -4 -6 -3 -8
4 -4 6 3 14 1 18 -5 3 -6 2 -14 -5 -18 -7 -5 -8 -17 -2 -39 5 -18 8 -32 5 -32
-3 0 0 -8 5 -17 17 -33 21 -83 5 -83 -8 0 -14 -5 -14 -11 0 -6 7 -8 16 -5 10
4 14 2 11 -6 -2 -7 -10 -12 -16 -10 -6 1 -11 -5 -11 -13 0 -8 5 -15 10 -15 6
0 10 -6 10 -12 0 -7 11 -37 25 -66 13 -29 20 -50 15 -47 -18 11 -122 233 -115
245 3 6 1 9 -5 8 -7 -2 -16 7 -21 20 -5 13 -5 21 -1 18 4 -2 6 30 4 72 -3 108
-5 121 -14 116 -4 -3 -8 3 -9 13 -2 64 -16 86 -61 102 -25 9 -29 8 -24 -4 3
-8 0 -15 -6 -15 -15 0 -3 -90 17 -131 9 -17 12 -28 6 -25 -5 4 -19 32 -31 64
-20 52 -22 70 -17 197 3 77 1 177 -4 223 -10 86 -46 233 -59 242 -4 3 -3 32 3
65 20 116 10 145 -52 145 -49 0 -61 -14 -61 -71 0 -60 -26 -77 -36 -24 -12 64
17 117 71 131 36 9 82 -13 96 -45 l12 -28 38 38 c20 20 63 54 94 74 51 32 57
39 52 63 -35 176 -34 701 2 937 51 328 149 654 283 938 53 111 78 143 33 42
-27 -62 -31 -85 -14 -85 5 0 8 -4 4 -9 -3 -6 3 -8 14 -6 20 4 20 3 0 -48 -150
-375 -225 -675 -259 -1039 -14 -144 -9 -618 7 -657 l10 -25 16 25 c9 13 35 58
59 101 l44 76 -7 89 c-10 116 6 405 30 568 23 152 60 314 100 440 29 89 30 94
39 435 6 190 9 346 7 348 -8 8 -151 -297 -216 -460 -83 -210 -171 -562 -200
-805 -7 -57 -16 -103 -20 -103 -4 0 -6 15 -3 33 13 86 30 251 29 281 0 19 3
32 7 30 4 -3 8 -2 9 3 2 24 10 55 27 113 11 36 23 90 27 120 4 30 12 63 17 74
7 12 6 22 -1 29 -11 11 12 67 28 67 5 0 11 8 14 18 2 9 8 26 11 37 4 11 -2 4
-14 -15 -12 -19 -18 -26 -14 -15 3 11 9 28 11 38 3 10 12 16 19 13 10 -4 14 3
14 24 0 17 4 30 9 30 5 0 11 10 14 23 3 12 9 32 12 45 6 18 4 21 -8 16 -12 -4
-14 0 -11 18 4 21 4 21 -5 3 -5 -11 -7 -31 -5 -45 l4 -25 -10 24 c-6 14 -8 31
-6 38 3 7 -1 13 -9 13 -8 0 -19 -18 -26 -42 -14 -49 -35 -79 -25 -36 3 15 10
37 15 50 5 13 9 28 9 33 1 6 11 13 24 17 13 3 -32 6 -100 7 l-122 1 -11 28
c-6 15 -9 66 -7 114 2 47 0 84 -4 81 -5 -2 -8 -13 -8 -24 0 -11 -4 -18 -9 -15
-12 8 -2 46 13 47 6 1 18 2 26 3 10 1 17 17 21 54 7 56 37 101 68 103 11 0 12
2 3 6 -7 3 -19 -1 -27 -7 -21 -18 -19 3 4 31 23 30 36 69 22 69 -5 0 -13 -10
-17 -22 -4 -13 -18 -41 -32 -63 -14 -22 -25 -41 -24 -43 1 -1 -5 -18 -13 -38
-8 -20 -15 -42 -15 -49 0 -7 -6 -18 -14 -24 -12 -10 -13 -8 -9 11 3 13 10 29
16 36 5 7 7 29 4 50 -3 20 -3 31 0 23 3 -8 42 59 89 154 46 92 92 177 101 188
12 13 14 18 4 16 -7 -3 -23 -23 -35 -45 -12 -22 -31 -53 -44 -69 l-23 -30 16
32 c18 38 11 85 -11 76 -10 -4 -12 0 -8 11 5 12 10 14 19 6 9 -8 14 -6 19 5 3
9 2 13 -4 10 -6 -3 -10 1 -10 9 0 9 5 16 10 16 6 0 10 6 10 13 0 23 173 275
286 417 124 155 426 463 559 568 49 40 92 72 95 71 3 0 25 -41 50 -90 24 -49
48 -89 52 -89 3 0 10 -9 13 -21 5 -13 12 -18 23 -14 24 9 33 -17 14 -39 -9
-11 -11 -16 -4 -12 9 5 15 1 19 -13 3 -12 9 -21 14 -21 5 0 9 -6 9 -12 0 -19
52 -118 62 -118 5 0 7 -4 3 -9 -3 -5 4 -16 14 -23 19 -13 12 -21 -111 -129
-210 -183 -404 -402 -563 -632 -65 -94 -66 -98 -39 -91 16 4 29 7 30 8 1 1 25
37 54 81 143 216 349 445 567 632 40 34 81 67 92 72 16 9 18 8 14 -9 -4 -13 2
-27 16 -39 18 -16 20 -21 8 -28 -42 -23 -261 -231 -359 -339 -104 -116 -268
-321 -268 -336 0 -4 12 -3 28 2 15 5 72 22 127 39 l100 30 74 91 c41 50 120
134 175 188 101 97 254 227 260 221 2 -2 13 -22 24 -45 l21 -41 -87 -76 c-48
-42 -132 -121 -187 -177 l-100 -100 135 54 c74 30 179 75 233 100 54 25 104
44 110 43 6 -1 22 18 35 43 14 27 36 52 55 61 429 217 557 276 674 314 23 8
51 19 63 25 12 6 29 13 38 16 9 2 71 20 137 40 161 48 430 91 653 106 257 16
601 -7 702 -47 19 -8 91 -26 159 -40 112 -23 266 -74 379 -126 23 -10 47 -19
53 -19 10 0 43 -13 109 -44 14 -6 31 -17 38 -23 7 -7 22 -13 33 -13 21 0 54
-17 78 -39 8 -7 27 -18 43 -23 15 -6 26 -14 23 -18 -6 -10 44 -44 53 -36 3 3
-1 6 -8 6 -7 0 -11 3 -8 6 3 3 14 1 25 -5 10 -6 38 -20 63 -31 62 -27 128 -65
154 -88 26 -24 86 -55 86 -45 0 5 4 3 8 -4 4 -7 64 -39 132 -71 149 -70 164
-76 154 -60 -5 8 -1 9 12 4 106 -42 206 -77 210 -74 5 5 -182 188 -284 278
l-74 65 25 43 24 43 91 -74 c109 -91 238 -220 343 -343 l78 -90 111 -33 c62
-18 121 -34 133 -36 12 -1 48 -10 80 -19 31 -9 83 -23 115 -32 31 -8 60 -18
63 -22 11 -12 29 -405 29 -618 0 -110 4 -204 9 -210 13 -13 75 -230 99 -349
40 -192 54 -336 59 -585 4 -262 3 -253 66 -360 48 -80 105 -141 175 -186 155
-101 188 -165 157 -315 -9 -46 -17 -88 -18 -94 -1 -6 34 -11 89 -13 86 -3 91
-2 102 20 6 13 11 18 11 12 1 -5 -5 -18 -12 -28 -11 -15 -27 -18 -96 -17 -45
0 -86 3 -91 6 -23 14 -39 -169 -28 -327 8 -119 -3 -190 -37 -233 -14 -18 -14
-17 0 19 11 30 15 81 14 230 0 183 11 295 41 396 13 46 13 156 -1 181 -25 48
-64 73 -55 36 1 -7 1 -9 -1 -4 -3 4 -11 7 -19 7 -8 0 -14 7 -14 16 0 8 -4 12
-10 9 -5 -3 -10 -2 -10 3 0 5 -16 20 -35 33 -19 13 -35 29 -35 35 0 15 -28 26
-43 17 -7 -3 -9 -3 -5 2 10 11 -11 47 -23 40 -5 -4 -9 -1 -9 6 0 7 -19 33 -42
58 -24 26 -58 64 -77 86 -19 22 -31 31 -26 20 4 -11 36 -99 70 -195 34 -96 87
-229 117 -295 104 -224 117 -256 129 -315 14 -70 8 -151 -14 -200 l-16 -35 7
35 c4 19 7 63 7 97 0 57 -6 73 -71 202 -39 78 -67 141 -63 141 5 0 9 -3 9 -7
0 -5 14 -24 31 -43 26 -31 24 -25 -20 65 -27 55 -59 123 -71 150 -12 28 -30
68 -40 90 -10 22 -40 100 -66 174 -51 144 -95 215 -132 217 l-23 1 23 -25 c13
-14 18 -22 11 -18 -6 3 -14 2 -18 -4 -3 -5 -1 -10 5 -10 7 0 10 -6 7 -14 -3
-8 0 -16 7 -19 16 -6 37 -75 25 -83 -13 -8 -11 -44 2 -44 6 0 9 7 5 15 -7 18
10 20 21 3 14 -24 51 -137 45 -142 -2 -3 0 -12 6 -19 6 -7 13 -32 14 -54 3
-34 5 -39 17 -30 12 10 13 9 8 -7 -5 -13 -3 -17 7 -13 10 4 14 0 13 -14 -1
-10 -5 -19 -9 -19 -4 0 -8 -5 -8 -11 0 -5 4 -8 9 -4 5 3 12 -4 16 -15 3 -11
10 -20 14 -20 14 0 55 -40 48 -46 -3 -4 -1 -16 6 -28 6 -11 12 -28 13 -36 1
-8 13 -33 28 -54 14 -21 26 -45 26 -52 0 -7 7 -34 15 -59 15 -42 15 -48 -4
-90 -11 -25 -25 -45 -30 -45 -6 0 -11 -8 -11 -17 -1 -26 -47 -58 -64 -44 -8 7
-16 7 -23 0 -12 -12 -67 6 -58 20 3 6 -4 15 -15 21 -11 6 -18 15 -15 21 4 5 2
9 -3 9 -5 0 -19 24 -31 54 -12 29 -38 77 -57 106 -19 28 -34 53 -34 56 0 2 11
-1 25 -6 16 -6 25 -6 25 0 0 6 9 10 20 10 18 0 19 3 10 20 -6 11 -15 39 -19
62 -5 24 -18 66 -29 95 -14 37 -17 54 -9 62 8 8 8 11 0 11 -6 0 -15 15 -18 33
-4 17 -16 48 -26 68 -10 20 -16 39 -14 41 3 2 -4 22 -15 43 -11 21 -17 42 -14
47 3 5 0 16 -7 24 -6 8 -9 17 -6 20 3 4 -5 18 -19 33 -14 14 -28 38 -31 53 -3
15 -11 29 -19 32 -8 3 -14 14 -14 24 0 10 -5 23 -12 30 -13 13 -15 12 32 35
19 9 26 15 15 13 -11 -2 -37 -7 -58 -11 -36 -6 -37 -7 -32 -43 8 -64 16 -202
11 -202 -2 0 -11 44 -21 98 -37 215 -45 240 -146 447 -57 117 -98 235 -105
308 -7 63 -40 176 -93 322 -32 89 -40 103 -40 75 -1 -19 -10 -49 -20 -67 -11
-17 -17 -34 -13 -38 4 -4 7 -12 7 -18 0 -7 8 -11 17 -9 21 3 52 -52 45 -79 -3
-12 2 -20 13 -24 10 -3 21 -13 24 -21 6 -15 -26 -32 -124 -69 -30 -12 -31 -14
-11 -14 13 -1 48 7 77 16 57 18 68 16 59 -10 -7 -16 -92 -57 -119 -57 -9 0
-16 -4 -16 -9 0 -12 64 -3 109 15 43 18 43 18 29 -12 -12 -26 -64 -54 -100
-54 -10 0 -17 -4 -14 -9 3 -5 26 -5 53 1 45 8 49 7 69 -18 12 -15 21 -37 19
-50 -1 -13 1 -21 6 -19 8 5 25 -34 21 -48 -1 -5 2 -6 8 -2 5 3 10 -1 10 -9 0
-9 5 -16 10 -16 6 0 10 -9 10 -20 0 -11 5 -20 10 -20 6 0 10 -11 10 -25 0 -14
4 -25 8 -25 4 0 16 -14 26 -31 15 -26 16 -33 5 -41 -11 -8 -10 -9 3 -5 19 6
44 -43 34 -68 -3 -9 0 -15 9 -15 13 0 41 -37 33 -45 -2 -2 -37 -19 -79 -38
-96 -44 -110 -62 -23 -31 104 38 148 29 82 -17 -18 -13 -38 -30 -44 -37 -6 -8
-34 -18 -64 -23 -59 -9 -68 -15 -53 -30 8 -8 34 -9 87 -2 60 7 76 6 76 -4 0
-20 -72 -36 -125 -29 -36 6 -58 18 -101 57 -30 27 -52 49 -49 49 3 0 -3 9 -14
21 -22 24 -46 17 -32 -9 5 -10 7 -29 4 -43 -3 -15 0 -30 6 -33 6 -4 11 -12 11
-17 0 -6 -4 -7 -10 -4 -5 3 -10 -2 -10 -12 -1 -37 -23 20 -47 120 -27 115 -26
110 -12 101 7 -4 10 -1 7 7 -3 8 -11 13 -18 11 -8 -2 -10 7 -5 30 4 21 3 28
-3 20 -6 -10 -14 6 -26 53 -9 37 -15 69 -12 72 2 2 7 -9 11 -26 8 -38 24 -32
17 5 -3 19 -1 25 7 20 6 -4 9 -11 6 -16 -3 -4 2 -13 10 -20 9 -7 13 -21 10
-31 -5 -14 -1 -19 12 -19 14 0 15 2 4 9 -8 5 -9 11 -3 15 10 6 4 56 -8 56 -4
0 -7 13 -8 29 0 17 -5 39 -11 50 -8 14 -8 22 -1 26 8 5 8 11 0 20 -6 8 -12 29
-13 48 -1 19 -6 33 -10 30 -5 -3 -8 3 -6 13 1 11 -3 33 -10 49 -7 17 -15 39
-17 50 -2 11 -12 27 -22 35 -14 12 -54 81 -57 100 -4 20 -18 50 -24 50 -4 0
-13 -6 -20 -12 -11 -11 -11 -9 -2 10 6 12 8 22 3 22 -5 0 -12 13 -15 29 -4 16
-27 60 -53 98 l-47 68 7 -40 c10 -55 78 -255 86 -250 3 2 6 -11 7 -28 l1 -32
-11 28 c-11 26 -13 27 -87 27 l-76 0 -119 -130 -119 -130 -121 0 -121 0 -22
-45 c-12 -25 -22 -48 -22 -50 0 -3 83 -5 185 -5 l185 0 98 101 97 102 87 -7
c64 -4 88 -2 91 7 3 6 6 2 6 -10 1 -22 -2 -23 -88 -23 l-89 0 -94 -99 -93
-100 -204 -6 -204 -5 -28 -45 -29 -45 253 0 252 0 80 80 79 79 115 3 c113 3
116 2 129 -21 6 -13 12 -31 11 -40 0 -9 -5 -3 -11 13 l-10 28 -111 -4 -111 -5
-76 -80 -76 -81 -280 -7 -280 -8 -23 -34 c-12 -19 -19 -42 -16 -52 5 -16 26
-18 208 -24 111 -4 343 -7 515 -7 305 0 404 -11 220 -24 -50 -3 -281 -6 -514
-6 l-422 0 -12 -36 c-11 -33 -14 -35 -48 -32 -32 3 -37 6 -35 26 2 12 1 22 -1
22 -3 0 -35 -53 -72 -117 -98 -171 -166 -270 -300 -432 -240 -291 -263 -322
-270 -360 -3 -20 -9 -50 -14 -66 -6 -26 -2 -37 21 -65 16 -19 42 -66 58 -105
16 -38 52 -118 80 -177 44 -96 54 -109 90 -128 l41 -20 0 392 1 393 190 205
c105 113 211 231 236 263 46 57 73 65 54 16 -9 -23 -156 -189 -358 -403 l-93
-99 0 -388 0 -389 50 -25 50 -25 0 405 0 406 203 221 c111 122 219 241 240
265 l39 43 454 0 c250 0 454 -4 454 -8 0 -8 -482 -22 -761 -22 l-127 0 -193
-212 c-107 -117 -213 -233 -236 -259 l-43 -46 0 -399 -1 -399 48 -22 c26 -12
51 -22 56 -22 4 -1 7 176 7 393 l0 393 122 134 c66 74 147 162 179 197 l58 62
231 0 230 0 11 28 c36 95 176 155 274 118 52 -20 109 -81 126 -135 6 -20 14
-39 18 -43 3 -4 19 43 35 104 l29 112 15 -39 c21 -60 17 -131 -11 -214 -15
-45 -22 -82 -18 -94 5 -14 14 4 34 69 15 49 27 96 28 104 0 8 4 5 9 -8 7 -17
2 -45 -21 -110 -17 -48 -33 -94 -35 -102 -3 -9 -16 6 -35 40 -17 30 -34 59
-39 64 -6 6 -10 18 -10 27 0 10 -7 25 -16 33 -8 9 -13 20 -9 25 3 6 -3 15 -14
20 -11 6 -22 24 -26 41 -6 28 -24 51 -26 33 0 -4 -2 -19 -3 -31 -2 -13 4 -30
11 -38 8 -8 12 -18 9 -23 -3 -5 1 -11 9 -15 8 -3 15 -14 15 -25 0 -11 5 -23
10 -26 6 -4 8 -10 5 -15 -3 -5 2 -16 11 -25 9 -9 17 -26 18 -38 1 -12 8 -22
16 -22 8 0 16 -10 18 -22 2 -13 8 -23 13 -23 6 0 8 -4 4 -9 -3 -5 1 -15 8 -23
7 -7 13 -24 14 -36 1 -13 12 -34 25 -47 52 -54 60 -64 53 -74 -3 -6 1 -11 9
-11 14 0 21 -13 14 -23 -2 -2 5 -12 15 -22 15 -15 20 -16 27 -5 5 8 6 27 3 43
l-6 30 31 -23 c46 -34 131 -28 96 8 -15 15 -15 16 2 23 18 7 18 8 1 8 -24 1
-17 23 12 37 13 7 18 13 12 15 -6 2 -8 14 -5 26 4 13 11 20 20 16 8 -3 14 0
14 6 0 6 -5 11 -11 11 -6 0 -9 9 -6 20 3 11 1 17 -4 14 -6 -3 -8 6 -5 21 4 21
2 24 -8 16 -10 -8 -12 -4 -8 19 3 19 0 30 -8 30 -7 0 -10 7 -7 15 4 8 2 17 -3
20 -6 4 -6 14 1 27 6 11 7 18 2 15 -13 -8 -40 11 -28 21 17 12 16 32 -1 25
-12 -4 -14 0 -9 20 4 13 2 28 -4 31 -5 4 -8 15 -6 26 2 12 0 18 -6 15 -5 -4
-9 1 -9 9 0 9 5 16 12 16 6 0 2 10 -10 23 -29 31 -15 47 40 49 52 1 72 -8 64
-28 -3 -8 -2 -13 2 -13 22 4 33 -3 29 -16 -4 -8 -2 -17 3 -20 6 -4 10 -12 10
-18 0 -8 -3 -8 -9 2 -6 10 -10 10 -16 1 -4 -7 1 -13 12 -16 14 -4 20 -15 21
-34 1 -27 39 -111 53 -118 4 -2 5 -12 2 -22 -3 -12 0 -20 7 -20 6 0 10 -8 8
-17 -2 -10 4 -26 13 -37 10 -10 15 -24 12 -32 -3 -7 2 -28 11 -45 9 -18 16
-38 16 -45 0 -7 6 -19 13 -26 7 -7 22 -29 33 -48 10 -19 25 -39 32 -43 6 -4
12 -13 12 -18 0 -6 6 -25 14 -42 35 -82 42 -147 13 -131 -8 5 -8 3 1 -7 6 -7
12 -18 12 -24 0 -5 -4 -4 -9 4 -8 12 -12 12 -25 2 -20 -17 -21 -32 -2 -25 8 3
17 0 21 -6 3 -6 3 -10 -2 -9 -31 5 -55 -4 -65 -26 -8 -17 -24 -28 -52 -35 -23
-6 -49 -15 -60 -21 -10 -6 -16 -7 -13 -2 3 4 -18 8 -47 8 -40 0 -57 5 -76 23
-22 20 -41 27 -64 23 -4 -1 -15 4 -24 11 -14 12 -15 9 -9 -26 4 -25 2 -45 -5
-54 -7 -8 -17 -23 -23 -34 -6 -13 -30 -27 -60 -36 -27 -8 -56 -16 -64 -18 -7
-2 -10 -11 -7 -19 4 -10 -6 -7 -28 10 -37 28 -48 31 -40 11 5 -13 -49 -46 -75
-46 -6 0 -11 -4 -11 -10 0 -15 -21 -12 -41 6 -17 15 -20 15 -46 -4 -15 -10
-45 -25 -65 -32 -20 -8 -35 -17 -32 -22 3 -4 -6 -8 -19 -8 -14 0 -30 -7 -37
-15 -18 -22 -44 -18 -79 11 -17 14 -31 21 -31 15 0 -14 -37 -14 -45 -1 -14 22
-27 -3 -20 -39 4 -20 9 -115 10 -211 3 -153 7 -185 30 -260 43 -142 80 -208
167 -292 21 -21 38 -43 38 -49 0 -7 7 -17 15 -23 10 -7 17 -34 19 -83 3 -40 7
-77 10 -82 4 -5 2 -12 -3 -15 -4 -3 -14 21 -20 54 -7 33 -15 60 -20 60 -4 0
-17 -17 -28 -37 -30 -55 -36 -127 -18 -198 l16 -60 -33 -27 -33 -27 -6 27 c-4
15 -7 51 -8 80 l-1 53 -42 -34 c-86 -70 -297 -200 -449 -277 -142 -72 -288
-135 -295 -127 -2 1 44 45 102 97 70 63 140 114 204 150 261 146 479 301 541
386 l38 51 -71 89 c-38 49 -75 99 -81 112 -6 12 -16 21 -23 18 -8 -3 -11 1 -7
10 3 8 1 20 -5 27 -18 22 -62 164 -75 241 l-13 76 -64 -87 c-269 -364 -711
-784 -1110 -1057 -134 -92 -149 -104 -97 -80 20 10 37 21 37 26 0 4 9 8 19 8
11 0 21 5 23 12 3 7 12 9 22 5 10 -4 14 -12 10 -18 -4 -7 -7 -20 -8 -31 -1
-10 -14 -28 -31 -39 -26 -18 -27 -20 -6 -14 18 5 22 4 16 -6 -6 -9 -3 -10 11
-5 10 5 25 9 32 9 6 0 12 4 12 8 0 4 7 9 14 12 10 4 13 1 9 -9 -3 -7 -9 -15
-14 -15 -5 -1 -13 -2 -18 -3 -15 -2 -25 -16 -12 -16 7 0 9 -5 5 -12 -5 -9 -2
-8 9 1 15 12 17 12 11 -3 -4 -11 -1 -16 11 -16 14 0 13 -4 -6 -20 l-24 -19 32
2 c18 1 33 5 33 10 0 4 5 7 11 7 5 0 8 -4 5 -9 -4 -5 0 -12 6 -14 9 -4 10 -8
2 -14 -41 -32 -187 -131 -277 -188 -59 -37 -106 -69 -105 -71 6 -5 216 38 248
51 19 8 89 28 155 45 476 124 857 295 1238 556 215 148 380 287 617 520 80 79
158 148 173 154 17 6 134 10 298 10 225 0 269 2 269 14 0 8 3 16 8 18 4 1 27
35 52 73 24 39 47 72 50 75 3 3 48 91 102 195 310 611 451 1191 451 1865 0
607 -127 1172 -385 1720 -227 481 -582 941 -1015 1317 -73 63 -130 120 -126
125 3 6 6 25 5 41 -1 29 -6 43 -36 107 -28 60 -614 419 -617 378 0 -7 -4 -4
-9 7 -5 11 -9 14 -9 7z m859 -777 c13 -14 21 -25 18 -25 -2 0 -15 11 -28 25
-13 14 -21 25 -18 25 2 0 15 -11 28 -25z m-305 -71 c42 -33 45 -34 30 -10 -10
14 -13 26 -7 26 6 0 14 -5 17 -11 4 -6 13 -8 21 -5 7 3 16 1 19 -5 4 -5 12 -9
18 -8 25 3 37 -1 35 -13 -2 -7 4 -12 12 -13 9 0 14 -8 12 -19 -3 -13 1 -17 12
-13 8 3 18 1 22 -5 4 -7 3 -8 -4 -4 -18 11 -14 -10 4 -29 23 -22 9 -32 -15
-11 -19 17 -19 17 -14 -3 5 -20 -5 -26 -30 -22 -5 1 -6 -3 -3 -8 4 -5 2 -12
-4 -16 -16 -10 -2 -25 18 -19 16 5 16 5 0 -6 -10 -6 -18 -17 -18 -25 0 -7 -6
-15 -12 -18 -9 -3 -3 -15 16 -36 38 -40 24 -41 -16 -1 -34 34 -34 34 -44 18
-4 -7 -4 -10 1 -6 4 4 14 0 23 -8 12 -12 12 -20 3 -40 -6 -14 -7 -23 -2 -19
17 10 23 -15 7 -31 -20 -20 -20 -30 0 -38 10 -4 13 -2 8 7 -5 9 -4 9 5 1 10
-9 10 -17 1 -34 -9 -16 -8 -25 2 -38 12 -15 11 -16 -5 -3 -9 8 -20 11 -24 8
-3 -4 20 -32 51 -64 37 -37 55 -50 52 -37 -4 13 -2 21 7 21 7 0 13 -9 13 -19
0 -10 -4 -18 -8 -18 -5 0 22 -37 59 -82 125 -155 106 -139 -63 53 -52 59 -140
149 -197 201 -56 52 -118 109 -137 127 l-35 32 33 -16 c18 -9 32 -11 32 -5 0
5 -4 10 -10 10 -5 0 -7 7 -4 15 7 18 34 20 34 3 0 -6 3 -9 6 -6 3 4 1 16 -6
27 -13 25 -8 26 30 6 35 -18 38 -13 11 16 -12 13 -25 18 -33 14 -10 -6 -10 -5
-1 5 12 13 16 12 63 -15 13 -8 27 -12 30 -9 2 3 -2 9 -10 14 -8 5 -24 16 -35
24 -16 12 -17 15 -4 16 9 0 27 -9 40 -20 54 -44 52 -42 37 -52 -9 -7 -7 -7 9
-3 12 3 24 1 28 -5 9 -14 22 -13 28 4 4 10 0 12 -14 9 -10 -3 -19 -1 -19 4 0
5 -20 24 -45 43 -25 19 -45 42 -45 52 0 10 -4 18 -10 18 -14 0 -12 16 4 33 13
12 10 19 -19 47 -31 30 -37 50 -16 50 5 0 29 -16 56 -36z m130 26 c3 -6 -1 -7
-9 -4 -18 7 -21 14 -7 14 6 0 13 -4 16 -10z m45 -40 c11 -11 20 -22 20 -25 0
-9 -49 29 -50 38 0 12 9 8 30 -13z m241 -160 c25 -14 49 -62 49 -100 0 -18 9
-43 20 -57 16 -21 20 -41 20 -109 0 -112 -3 -114 -136 -114 -146 0 -144 -2
-144 124 0 83 3 105 15 110 8 3 15 16 15 28 0 49 21 98 48 113 32 17 85 19
113 5z m-4770 -214 c35 -49 76 -97 95 -108 36 -21 37 -38 3 -38 -32 0 -69 45
-157 191 -133 222 -120 212 59 -45z m3982 64 c-78 -140 -156 -230 -178 -208
-6 6 19 41 114 158 97 118 107 126 64 50z m411 -172 c128 -128 224 -235 285
-316 124 -167 167 -236 125 -201 -9 7 -25 14 -37 16 -11 2 -27 9 -36 16 -12 9
-13 9 -7 0 4 -7 3 -13 -3 -13 -5 0 -50 53 -100 118 -100 131 -241 286 -346
384 -120 110 -161 150 -145 142 21 -12 41 -14 35 -4 -7 11 16 50 28 50 5 0 96
-87 201 -192z m101 167 c34 -33 31 -40 -5 -13 -16 12 -30 25 -30 30 0 14 10 9
35 -17z m5 -115 c0 -5 -5 -10 -11 -10 -5 0 -7 5 -4 10 3 6 8 10 11 10 2 0 4
-4 4 -10z m530 -265 c68 -93 200 -305 200 -322 0 -28 -22 -10 -57 45 -65 102
-127 196 -175 263 -27 37 -48 72 -48 78 0 28 30 4 80 -64z m-3923 14 c-6 -10
-20 -20 -30 -23 -17 -4 -18 -3 -3 13 9 10 13 20 10 24 -3 3 3 5 14 4 16 -1 18
-4 9 -18z m-142 -9 c-3 -5 -14 -10 -23 -10 -15 0 -15 2 -2 10 20 13 33 13 25
0z m1655 -40 c0 -5 -4 -10 -10 -10 -5 0 -10 5 -10 10 0 6 5 10 10 10 6 0 10
-4 10 -10z m2350 -10 c0 -5 -2 -10 -4 -10 -3 0 -8 5 -11 10 -3 6 -1 10 4 10 6
0 11 -4 11 -10z m-945 -28 c-3 -3 -11 0 -18 7 -9 10 -8 11 6 5 10 -3 15 -9 12
-12z m696 -9 c13 -16 12 -17 -3 -4 -10 7 -18 15 -18 17 0 8 8 3 21 -13z m274
7 c3 -5 1 -10 -4 -10 -6 0 -11 5 -11 10 0 6 2 10 4 10 3 0 8 -4 11 -10z m25
-30 c0 -5 -2 -10 -4 -10 -3 0 -8 5 -11 10 -3 6 -1 10 4 10 6 0 11 -4 11 -10z
m24 -36 c5 -14 4 -15 -9 -4 -17 14 -19 20 -6 20 5 0 12 -7 15 -16z m-244 -49
c14 -19 14 -19 -2 -6 -10 7 -18 18 -18 24 0 6 1 8 3 6 1 -2 9 -13 17 -24z
m271 8 c13 -16 12 -17 -3 -4 -10 7 -18 15 -18 17 0 8 8 3 21 -13z m-4254 -20
c-15 -16 -17 -16 -17 -1 0 9 6 18 13 21 20 7 22 -2 4 -20z m-327 2 c0 -2 -18
-14 -40 -25 -22 -11 -40 -18 -40 -15 0 2 17 13 38 24 42 23 42 23 42 16z
m4610 -15 c0 -5 -2 -10 -4 -10 -3 0 -8 5 -11 10 -3 6 -1 10 4 10 6 0 11 -4 11
-10z m-4740 -54 c0 -2 -7 -7 -16 -10 -8 -3 -12 -2 -9 4 6 10 25 14 25 6z
m-175 -87 c-77 -38 -144 -68 -150 -68 -12 1 266 137 280 137 6 0 -53 -31 -130
-69z m-186 -84 c-65 -35 -453 -176 -481 -174 -7 0 57 24 142 54 85 29 198 72
250 93 96 41 136 53 89 27z m5413 -26 c25 -13 48 -68 48 -114 0 -23 5 -35 14
-35 21 0 26 -23 26 -120 0 -112 0 -112 -152 -108 l-113 3 -7 80 c-9 99 -2 142
23 150 15 5 19 16 19 51 0 79 75 129 142 93z m-2635 -36 c5 3 10 -4 10 -16 2
-16 0 -18 -7 -8 -7 12 -12 12 -23 3 -19 -16 -28 -4 -14 19 7 12 14 14 18 7 4
-6 11 -8 16 -5z m-4348 -97 c-9 -8 -10 -7 -5 7 3 10 7 24 7 30 1 7 3 4 6 -7 3
-10 -1 -23 -8 -30z m1041 -30 c-20 -8 -51 -16 -70 -19 -23 -4 -15 0 20 12 62
21 104 27 50 7z m-130 -39 c-14 -8 -27 -12 -30 -10 -7 6 23 23 40 23 8 0 4 -6
-10 -13z m-800 -197 c0 -5 -5 -10 -11 -10 -5 0 -7 5 -4 10 3 6 8 10 11 10 2 0
4 -4 4 -10z m80 -1 c0 -15 -18 -19 -23 -6 -3 8 1 14 9 14 8 0 14 -4 14 -8z
m4465 -9 c3 -5 1 -10 -4 -10 -6 0 -11 5 -11 10 0 6 2 10 4 10 3 0 8 -4 11 -10z
m179 -16 c3 -8 2 -12 -4 -9 -6 3 -10 10 -10 16 0 14 7 11 14 -7z m-4859 -127
c-43 -129 -68 -170 -53 -87 11 60 55 188 71 209 25 30 18 -14 -18 -122z m81
116 c-44 -134 -85 -241 -81 -213 8 55 67 230 78 230 5 0 7 -8 3 -17z m1841 -5
c-3 -8 -6 -5 -6 6 -1 11 2 17 5 13 3 -3 4 -12 1 -19z m-1796 -21 c-10 -9 -11
-8 -5 6 3 10 9 15 12 12 3 -3 0 -11 -7 -18z m59 -7 c0 -5 -2 -10 -4 -10 -3 0
-8 5 -11 10 -3 6 -1 10 4 10 6 0 11 -4 11 -10z m67 -4 c-3 -8 -1 -17 6 -19 7
-2 10 -7 7 -10 -11 -11 -33 11 -27 27 4 9 9 16 13 16 3 0 4 -6 1 -14z m1673
-14 c0 -10 -7 -19 -14 -19 -11 0 -13 5 -5 19 5 10 12 18 14 18 3 0 5 -8 5 -18z
m-1757 -17 c-3 -9 -8 -14 -10 -11 -3 3 -2 9 2 15 9 16 15 13 8 -4z m6973 -102
c9 -30 14 -57 11 -60 -6 -5 -57 150 -57 170 1 17 28 -47 46 -110z m-281 -188
c41 -142 78 -316 100 -475 33 -229 30 -761 -5 -877 l-8 -28 -2 35 c-1 19 -4
29 -7 23 -2 -7 -10 -13 -18 -13 -26 0 -32 24 -24 95 4 39 8 167 9 286 1 371
-44 681 -150 1023 -32 105 -35 121 -19 94 15 -27 27 -22 23 10 -3 22 -2 21 7
-7 6 -22 14 -30 20 -24 6 6 2 33 -11 74 -11 35 -20 69 -19 74 0 21 71 -175
104 -290z m-6630 268 c-4 -10 -8 -25 -10 -33 -2 -8 -4 -15 -5 -15 -1 0 -3 -9
-5 -21 -3 -11 -9 -31 -15 -45 -8 -20 -9 -17 -3 16 6 42 32 115 40 115 3 0 2
-8 -2 -17z m-56 -57 c-6 -21 -12 -36 -14 -34 -3 2 0 21 6 42 6 21 12 36 14 34
3 -2 0 -21 -6 -42z m1750 12 c-1 -31 -1 -31 -8 -8 -5 14 -6 28 -4 33 9 15 13
6 12 -25z m4795 -18 c5 -17 4 -20 -2 -10 -5 8 -13 26 -16 40 -5 17 -4 20 2 10
5 -8 13 -26 16 -40z m-6624 16 c0 -3 -4 -8 -10 -11 -5 -3 -10 -1 -10 4 0 6 5
11 10 11 6 0 10 -2 10 -4z m43 -16 c-3 -11 -9 -20 -13 -20 -5 0 -6 9 -3 20 3
11 9 20 13 20 5 0 6 -9 3 -20z m6014 -12 c-3 -7 -5 -2 -5 12 0 14 2 19 5 13 2
-7 2 -19 0 -25z m-5967 -88 c-6 -11 -15 -22 -20 -25 -6 -3 -10 -10 -10 -16 0
-11 22 -8 33 6 5 6 7 4 5 -4 -5 -16 -35 -24 -44 -10 -3 5 -2 15 3 22 4 6 8 17
9 22 0 6 2 15 2 22 1 7 9 10 17 7 11 -5 12 -11 5 -24z m-222 -80 c30 -29 51
-98 37 -120 -3 -5 0 -10 8 -10 8 0 18 -7 21 -16 8 -20 8 -178 0 -198 -5 -13
-27 -16 -134 -16 -107 0 -129 3 -134 16 -3 9 -6 56 -6 105 0 78 2 90 20 101
14 9 20 24 20 50 0 55 16 87 52 103 52 22 83 18 116 -15z m7309 4 c28 -18 43
-52 43 -100 0 -20 6 -37 14 -40 19 -7 32 -189 15 -210 -9 -11 -39 -14 -130
-14 -141 0 -139 -2 -139 124 0 75 3 87 20 98 15 10 20 24 20 56 0 53 12 77 48
97 30 17 74 13 109 -11z m-2622 5 l70 -2 -80 -8 c-221 -23 -446 -161 -573
-352 -14 -20 -27 -36 -29 -34 -2 2 18 37 44 77 26 40 48 78 48 84 0 25 106
146 127 146 4 0 29 15 55 32 72 49 137 69 208 64 33 -3 92 -5 130 -7z m269
-93 c13 -17 26 -40 30 -51 14 -37 23 -105 15 -99 -5 3 -9 14 -9 25 0 37 -27
84 -75 132 -47 46 -48 47 -16 36 17 -6 42 -25 55 -43z m-3387 -68 c-3 -8 -6
-5 -6 6 -1 11 2 17 5 13 3 -3 4 -12 1 -19z m3319 -29 c27 -28 29 -36 29 -102
0 -62 -5 -81 -35 -141 -40 -80 -69 -103 -45 -37 35 100 39 219 10 294 -11 26
8 20 41 -14z m-493 -1 c6 -19 -13 -81 -31 -102 -10 -10 -29 -24 -44 -32 -29
-15 -118 -19 -118 -6 0 20 156 152 181 152 4 0 9 -6 12 -12z m611 -165 c-12
-116 -67 -256 -117 -300 l-21 -18 21 30 c44 65 46 80 4 35 l-42 -45 36 52 c44
63 92 183 101 253 9 70 26 63 18 -7z m-1314 17 c0 -5 -4 -10 -10 -10 -5 0 -10
5 -10 10 0 6 5 10 10 10 6 0 10 -4 10 -10z m3337 -77 c-3 -10 -5 -4 -5 12 0
17 2 24 5 18 2 -7 2 -21 0 -30z m-2119 -119 c-49 -99 -172 -189 -328 -240 -77
-25 -99 -28 -230 -28 -115 0 -164 5 -237 22 -51 12 -110 22 -130 23 -35 0 -36
1 -14 10 16 6 71 4 175 -9 191 -24 214 -25 306 -11 140 20 244 59 321 120 20
16 39 26 43 22 3 -3 6 0 6 8 0 8 17 29 38 46 21 18 44 49 52 69 8 19 16 31 18
25 2 -6 -7 -32 -20 -57z m852 -29 c0 -5 -5 -3 -10 5 -5 8 -10 20 -10 25 0 6 5
3 10 -5 5 -8 10 -19 10 -25z m1287 -12 c-3 -10 -5 -4 -5 12 0 17 2 24 5 18 2
-7 2 -21 0 -30z m10 -100 c-3 -10 -5 -2 -5 17 0 19 2 27 5 18 2 -10 2 -26 0
-35z m-6940 -85 c-2 -24 -4 -7 -4 37 0 44 2 63 4 43 2 -21 2 -57 0 -80z m-196
-6 c24 -22 32 -38 36 -77 3 -28 12 -54 19 -58 10 -6 14 -35 14 -112 0 -129 1
-129 -147 -123 -87 3 -107 7 -118 21 -19 26 -11 198 10 213 9 7 15 27 15 54 0
34 6 48 34 76 44 44 92 46 137 6z m7146 -19 c-3 -10 -5 -2 -5 17 0 19 2 27 5
18 2 -10 2 -26 0 -35z m303 32 c36 -19 60 -62 60 -108 0 -22 6 -37 15 -41 12
-4 15 -26 15 -111 0 -104 0 -106 -26 -115 -38 -15 -219 -13 -232 3 -5 6 -12
54 -15 105 -5 83 -3 96 14 113 12 12 19 33 19 60 0 33 6 47 34 75 38 38 70 43
116 19z m-303 -87 c-3 -7 -5 -2 -5 12 0 14 2 19 5 13 2 -7 2 -19 0 -25z
m-2912 -38 c117 -47 169 -59 270 -64 102 -5 229 17 309 53 26 12 51 20 54 17
7 -7 -64 -70 -98 -87 -14 -7 -39 -23 -57 -36 -18 -13 -36 -23 -40 -22 -9 2
-30 -5 -82 -28 -18 -8 -44 -17 -57 -19 -13 -2 -36 -6 -52 -9 -15 -3 -42 -7
-60 -9 -18 -3 -39 -10 -47 -16 -8 -6 -19 -9 -24 -5 -6 3 -19 1 -30 -4 -15 -8
-20 -7 -25 5 -3 9 -4 20 -1 25 4 5 -1 6 -9 3 -19 -7 -20 -16 -3 -33 10 -11 8
-12 -8 -4 -11 6 -26 8 -33 6 -8 -3 -10 2 -6 14 4 15 3 15 -8 -2 -14 -23 -20
-24 -61 -7 -16 7 -33 12 -39 12 -6 0 -20 8 -31 18 -11 9 -17 11 -13 4 14 -23
-32 8 -85 58 -58 54 -69 91 -33 115 13 8 24 11 24 5 0 -18 18 -11 25 11 5 15
10 17 20 9 8 -7 14 -7 17 -1 1 5 38 -6 80 -24 53 -24 84 -32 98 -27 17 6 11
12 -40 40 -33 19 -60 36 -60 39 0 3 6 3 13 0 6 -3 48 -20 92 -37z m-2848 -2
c-3 -8 -6 -5 -6 6 -1 11 2 17 5 13 3 -3 4 -12 1 -19z m268 -28 c28 -31 24 -79
-9 -107 -35 -30 -71 -29 -101 2 -31 30 -33 77 -5 105 27 27 90 27 115 0z
m4144 -6 c24 -30 26 -43 10 -77 -11 -25 -47 -47 -75 -47 -22 0 -74 55 -74 78
0 11 9 31 21 46 16 20 29 26 59 26 30 0 43 -6 59 -26z m-4441 -72 c-6 -29 -13
-50 -16 -47 -2 2 1 27 8 55 7 28 14 49 16 47 3 -2 -1 -27 -8 -55z m-41 -174
c-3 -8 -6 -5 -6 6 -1 11 2 17 5 13 3 -3 4 -12 1 -19z m-13 -52 c-3 -15 -8 -25
-11 -23 -2 3 -1 17 3 31 3 15 8 25 11 23 2 -3 1 -17 -3 -31z m2766 -1 c11 -13
10 -14 -4 -9 -9 3 -16 10 -16 15 0 13 6 11 20 -6z m3067 -67 c-3 -8 -6 -5 -6
6 -1 11 2 17 5 13 3 -3 4 -12 1 -19z m-6930 -20 c-3 -8 -6 -5 -6 6 -1 11 2 17
5 13 3 -3 4 -12 1 -19z m10 -55 c-3 -10 -5 -4 -5 12 0 17 2 24 5 18 2 -7 2
-21 0 -30z m6122 16 c22 -1 21 -2 -9 -9 -24 -6 -42 -4 -60 6 l-25 15 34 -5
c18 -4 45 -6 60 -7z m-3178 -186 c71 -61 177 -109 305 -138 148 -33 218 -39
325 -25 52 7 112 13 134 13 22 0 43 5 47 11 5 7 8 7 8 1 0 -44 -132 -94 -271
-102 -109 -6 -193 6 -301 42 -84 29 -102 31 -95 11 3 -8 -1 -17 -8 -20 -8 -3
-12 -12 -9 -21 4 -9 1 -15 -7 -16 -8 0 -5 -4 6 -9 20 -8 20 -8 1 -16 -13 -5
-21 -3 -24 4 -3 9 -15 10 -38 6 -33 -6 -86 15 -83 34 5 28 -2 34 -16 16 -14
-19 -14 -19 -9 2 4 14 -4 32 -25 55 -17 18 -31 39 -31 46 0 7 -4 13 -9 13 -5
0 -11 14 -15 31 -3 17 -10 28 -15 25 -11 -7 -23 22 -15 35 3 5 0 9 -5 9 -6 0
-11 5 -11 11 0 6 9 9 20 6 11 -3 20 -1 20 3 0 9 22 17 51 19 8 0 40 -20 70
-46z m4246 -5 c22 -18 36 -59 23 -72 -7 -7 -10 -3 -10 11 0 29 -10 53 -22 53
-5 0 -6 -6 -2 -12 5 -9 3 -9 -9 1 -9 7 -14 17 -11 23 9 14 -48 -2 -78 -23 -33
-23 -48 -7 -22 22 13 14 25 18 42 14 14 -3 21 -2 18 4 -8 13 51 -4 71 -21z
m-5527 -83 c0 -8 -9 -15 -20 -15 -25 0 -26 17 -2 23 9 3 18 5 20 6 1 0 2 -6 2
-14z m-1849 -72 c-4 -16 -12 -27 -17 -26 -16 2 -44 -17 -44 -31 0 -8 6 -19 13
-25 8 -6 12 -23 9 -41 -4 -28 -2 -30 27 -30 24 0 29 -3 24 -17 -4 -11 -3 -14
5 -9 7 4 17 4 23 0 22 -13 -16 -24 -91 -24 -52 0 -70 3 -60 10 8 5 25 10 36
10 20 0 21 4 17 53 -9 99 -9 122 2 129 5 4 -1 8 -15 8 -38 0 -8 15 38 18 40 2
40 2 33 -25z m3299 -63 c0 -5 -2 -10 -4 -10 -3 0 -8 5 -11 10 -3 6 -1 10 4 10
6 0 11 -4 11 -10z m-3275 -59 c2 -11 0 -21 -6 -21 -5 0 -9 12 -9 27 0 30 9 27
15 -6z m3658 -106 c57 -8 112 -51 97 -75 -12 -18 -13 -33 -2 -26 4 2 8 -4 9
-14 1 -11 -3 -19 -10 -17 -14 3 -16 -25 -2 -36 7 -6 6 -10 -3 -14 -6 -2 -10
-9 -6 -14 3 -5 0 -9 -6 -9 -6 0 -10 -10 -9 -22 5 -32 -8 -48 -36 -48 -13 0
-30 -6 -37 -13 -7 -7 -24 -13 -38 -14 -14 0 -38 -2 -55 -3 -16 -1 -41 1 -54 5
-17 6 -22 5 -17 -3 8 -13 -20 -6 -40 9 -6 5 -14 6 -17 3 -3 -4 -11 5 -18 19
-7 15 -17 23 -25 20 -17 -6 -18 9 -1 26 10 11 8 12 -9 3 -19 -10 -21 -9 -19
13 2 17 -1 22 -12 18 -9 -4 -13 0 -12 8 2 8 -2 24 -9 37 -7 12 -9 22 -5 22 4
0 2 4 -5 8 -9 7 -8 14 8 32 11 13 20 27 20 32 0 4 9 8 20 8 12 0 35 8 53 17
35 18 140 41 172 36 11 -1 42 -5 68 -8z m-2793 -65 c0 -5 -7 -10 -15 -10 -8 0
-15 5 -15 10 0 6 7 10 15 10 8 0 15 -4 15 -10z m-6 -57 c-3 -21 -13 -45 -21
-53 -14 -13 -14 -13 -4 8 8 16 9 22 1 22 -20 0 7 59 28 60 2 0 0 -17 -4 -37z
m6206 -291 c0 -5 -7 -17 -15 -28 -14 -18 -14 -17 -4 9 12 27 19 34 19 19z
m-40 -172 c-7 -61 -17 -113 -22 -116 -5 -3 -6 -14 -3 -23 3 -10 -1 -24 -10
-31 -8 -7 -15 -22 -15 -34 0 -28 -29 -71 -30 -44 0 9 5 20 10 23 8 5 7 11 0
20 -7 8 -9 18 -7 23 3 4 8 31 12 59 6 58 64 248 72 239 3 -3 0 -55 -7 -116z
m-3740 0 c0 -5 -4 -10 -10 -10 -5 0 -10 5 -10 10 0 6 5 10 10 10 6 0 10 -4 10
-10z m13 -42 c4 -12 4 -24 1 -27 -6 -7 -24 20 -24 37 0 21 17 13 23 -10z
m-2963 -98 c17 -39 30 -77 30 -84 0 -11 -80 158 -80 171 0 20 24 -22 50 -87z
m2980 56 c0 -11 -19 -15 -25 -6 -3 5 1 10 9 10 9 0 16 -2 16 -4z m5 -36 c3 -5
-1 -10 -9 -10 -9 0 -16 5 -16 10 0 6 4 10 9 10 6 0 13 -4 16 -10z m3705 -25
c0 -8 -2 -15 -4 -15 -2 0 -6 7 -10 15 -3 8 -1 15 4 15 6 0 10 -7 10 -15z m-72
-149 c-15 -29 -15 -30 -15 -3 0 13 5 24 13 24 10 0 10 -5 2 -21z m-37 -69
c-10 -9 -11 -8 -5 6 3 10 9 15 12 12 3 -3 0 -11 -7 -18z m-6542 -92 c0 -5 -6
-1 -14 9 -8 11 -15 24 -15 30 0 5 7 1 15 -10 8 -10 14 -23 14 -29z m1750 -312
c17 -15 31 -34 31 -42 0 -10 -8 -7 -27 10 -14 13 -23 19 -20 13 4 -7 1 -14 -6
-17 -8 -3 -12 6 -12 29 0 19 1 34 1 34 1 0 16 -12 33 -27z m3361 3 c0 -2 -8
-10 -17 -17 -16 -13 -17 -12 -4 4 13 16 21 21 21 13z m-249 -29 c-10 -9 -11
-8 -5 6 3 10 9 15 12 12 3 -3 0 -11 -7 -18z m54 -26 c-14 -28 -35 -49 -35 -36
0 7 42 65 47 65 2 0 -3 -13 -12 -29z m79 -83 c-112 -134 -440 -459 -569 -563
-132 -107 -146 -117 -122 -89 9 11 14 24 10 28 -5 4 -1 6 7 4 8 -2 14 3 13 10
-3 11 10 16 30 13 5 -1 6 2 3 7 -3 5 42 51 100 102 130 115 398 382 479 478
33 39 66 69 72 67 7 -2 21 6 30 19 10 13 20 23 21 21 2 -2 -31 -45 -74 -97z
m-3274 50 c0 -6 -6 -5 -15 2 -8 7 -15 14 -15 16 0 2 7 1 15 -2 8 -4 15 -11 15
-16z m-93 -133 c21 -19 33 -35 28 -35 -6 0 -25 16 -44 35 -42 45 -33 45 16 0z
m23 -75 c5 0 10 -7 10 -15 0 -8 4 -14 9 -12 4 1 62 -48 127 -109 66 -61 176
-162 246 -223 69 -62 129 -119 132 -127 3 -9 11 -12 16 -9 6 4 9 3 8 -2 -2 -5
13 -24 32 -42 44 -41 -86 59 -205 159 -113 94 -354 328 -407 395 -25 31 -28
37 -9 18 17 -18 35 -33 41 -33z m2261 -541 c-18 -11 -35 -18 -38 -15 -5 5 46
35 62 36 6 0 -5 -9 -24 -21z m-1321 -245 c22 -15 40 -29 40 -31 0 -5 -27 11
-75 44 -11 7 -16 13 -12 13 4 0 25 -12 47 -26z"/>
<path d="M6615 6760 c3 -5 8 -10 11 -10 2 0 4 5 4 10 0 6 -5 10 -11 10 -5 0
-7 -4 -4 -10z"/>
<path d="M6630 6629 c0 -5 5 -7 10 -4 6 3 10 8 10 11 0 2 -4 4 -10 4 -5 0 -10
-5 -10 -11z"/>
<path d="M6887 6852 c-10 -10 -17 -35 -17 -55 l0 -37 60 0 60 0 0 33 c0 67
-63 103 -103 59z"/>
<path d="M6912 6688 c-6 -7 -8 -34 -5 -60 5 -39 9 -48 25 -48 17 0 19 5 15 27
-3 15 -1 36 5 46 6 13 6 23 -3 33 -14 17 -23 18 -37 2z"/>
<path d="M7519 5869 c-13 -13 -19 -34 -19 -64 l0 -45 79 0 78 0 -7 40 c-11 61
-30 82 -74 85 -27 1 -45 -4 -57 -16z"/>
<path d="M7457 5734 c-4 -4 -7 -49 -7 -101 l0 -94 73 2 c39 1 80 5 89 10 10 6
19 5 23 -1 3 -5 17 -10 31 -10 l25 0 -3 98 -3 97 -111 3 c-60 1 -113 -1 -117
-4z m25 -26 c-7 -7 -12 -8 -12 -2 0 14 12 26 19 19 2 -3 -1 -11 -7 -17z m43 3
c-3 -6 -11 -8 -17 -5 -6 4 -5 9 3 15 16 10 23 4 14 -10z m55 10 c0 7 10 3 25
-11 23 -22 26 -31 23 -85 l-3 -60 -43 -3 c-47 -4 -48 -2 -56 71 -4 38 -1 52
14 67 10 10 15 22 12 26 -4 5 1 2 11 -5 14 -11 17 -11 17 0z m-69 -34 c-1 -12
-15 -9 -19 4 -3 6 1 10 8 8 6 -3 11 -8 11 -12z m-34 -29 c-3 -7 -5 -2 -5 12 0
14 2 19 5 13 2 -7 2 -19 0 -25z m33 -8 c0 -5 -4 -10 -10 -10 -5 0 -10 5 -10
10 0 6 5 10 10 10 6 0 10 -4 10 -10z m7 -68 c1 -28 -1 -32 -7 -17 -11 26 -12
55 -2 55 4 0 8 -17 9 -38z"/>
<path d="M7553 5693 c-16 -6 -17 -49 -2 -58 6 -4 7 -19 4 -36 -6 -28 -5 -29
24 -27 24 2 30 6 25 18 -4 8 -7 35 -8 60 -1 45 -13 56 -43 43z"/>
<path d="M7370 5231 c0 -6 4 -13 10 -16 6 -3 7 1 4 9 -7 18 -14 21 -14 7z"/>
<path d="M470 5100 c-13 -13 -20 -33 -20 -60 l0 -40 60 0 60 0 0 44 c0 35 -5
48 -22 60 -30 21 -54 20 -78 -4z"/>
<path d="M493 4932 c-6 -4 -11 -29 -10 -60 2 -47 4 -52 25 -52 20 0 23 4 18
28 -3 15 -2 34 3 41 6 9 6 22 0 33 -11 20 -18 22 -36 10z"/>
<path d="M7793 5112 c-18 -12 -32 -55 -26 -85 5 -26 8 -27 65 -27 l61 0 -6 47
c-3 29 -12 52 -23 60 -20 14 -53 17 -71 5z"/>
<path d="M7807 4933 c-3 -5 -4 -30 -2 -58 3 -44 6 -50 27 -53 21 -3 23 1 23
45 0 26 -4 54 -8 61 -9 13 -33 16 -40 5z"/>
<path d="M404 4352 c-19 -12 -34 -49 -34 -81 l0 -31 66 0 66 0 -7 43 c-9 59
-55 94 -91 69z"/>
<path d="M410 4159 c-9 -15 -8 -24 0 -35 7 -7 9 -25 6 -39 -5 -20 -3 -25 12
-25 16 0 20 10 25 51 4 29 4 56 1 60 -9 16 -33 9 -44 -12z"/>
<path d="M7866 4339 c-20 -16 -26 -29 -26 -60 l0 -39 66 0 67 0 -6 41 c-6 45
-31 79 -57 79 -10 0 -29 -9 -44 -21z"/>
<path d="M7880 4165 c-11 -13 -11 -20 0 -39 6 -13 9 -33 5 -45 -5 -16 -2 -21
13 -21 16 0 20 9 25 51 4 29 4 56 1 60 -8 14 -30 10 -44 -6z"/>
<path d="M4690 4055 c0 -8 5 -15 10 -15 6 0 10 7 10 15 0 8 -4 15 -10 15 -5 0
-10 -7 -10 -15z"/>
<path d="M4821 4061 c-8 -5 -9 -11 -3 -15 5 -3 12 1 16 9 6 17 6 18 -13 6z"/>
<path d="M4850 4050 c0 -5 5 -10 10 -10 6 0 10 5 10 10 0 6 -4 10 -10 10 -5 0
-10 -4 -10 -10z"/>
<path d="M2062 4208 c-27 -27 -1 -78 38 -78 29 0 54 43 40 69 -12 24 -58 29
-78 9z"/>
<path d="M6210 4210 c-25 -25 -25 -42 0 -65 27 -24 68 -13 76 22 5 20 2 31
-16 45 -28 23 -35 23 -60 -2z"/>
<path d="M7784 3605 c-10 -8 -14 -15 -8 -15 6 0 17 7 24 15 16 19 9 19 -16 0z"/>
<path d="M5924 1768 l-19 -23 23 19 c12 11 22 21 22 23 0 8 -8 2 -26 -19z"/>
<path d="M2600 1546 c0 -2 8 -10 18 -17 15 -13 16 -12 3 4 -13 16 -21 21 -21
13z"/>
<path d="M6057 7701 c3 -12 10 -21 15 -21 13 0 6 32 -9 37 -7 3 -9 -3 -6 -16z"/>
<path d="M6060 7546 c0 -5 59 -40 83 -49 35 -13 16 3 -33 28 -27 14 -50 23
-50 21z"/>
<path d="M6456 7532 c-3 -5 6 -14 20 -21 32 -14 31 -14 39 7 5 13 4 14 -6 5
-10 -10 -16 -10 -30 3 -9 8 -20 11 -23 6z"/>
<path d="M6174 7481 c3 -5 16 -11 28 -14 22 -6 22 -5 4 8 -22 17 -40 20 -32 6z"/>
<path d="M6424 7472 c3 -5 1 -12 -6 -14 -8 -3 -9 -6 -1 -11 6 -4 13 0 17 8 3
8 0 17 -6 21 -6 4 -8 3 -4 -4z"/>
<path d="M5980 7459 c8 -5 51 -28 95 -51 116 -58 266 -147 297 -176 36 -33 60
-15 35 26 -10 15 5 16 21 0 9 -9 12 -8 12 5 0 9 5 17 10 17 19 0 10 17 -15 30
-14 8 -24 19 -21 26 3 7 -2 10 -15 7 -11 -3 -27 1 -37 9 -27 22 -71 42 -79 35
-3 -4 -1 -7 6 -7 11 0 69 -37 81 -51 3 -3 20 -14 38 -23 18 -9 30 -21 27 -27
-4 -5 -11 -7 -16 -3 -5 3 -16 0 -25 -6 -11 -10 -22 -7 -56 15 -53 35 -346 185
-361 185 -7 0 -6 -5 3 -11z m425 -209 c3 -5 1 -10 -4 -10 -6 0 -11 5 -11 10 0
6 2 10 4 10 3 0 8 -4 11 -10z"/>
<path d="M6060 7456 c0 -7 88 -54 113 -61 12 -4 -5 10 -38 29 -57 34 -75 41
-75 32z"/>
<path d="M6230 7447 c0 -16 76 -54 87 -44 3 4 -1 7 -9 7 -9 0 -21 7 -28 16
-21 25 -50 37 -50 21z"/>
<path d="M6525 7425 c0 -13 3 -21 8 -18 4 2 7 10 7 18 0 8 -3 16 -7 18 -5 3
-8 -5 -8 -18z"/>
<path d="M5900 7406 c0 -10 57 -35 64 -29 3 4 6 2 6 -4 0 -14 48 -34 55 -23 4
6 1 10 -5 10 -7 0 -10 6 -7 13 3 8 -8 13 -35 14 -21 2 -47 7 -58 13 -11 6 -20
8 -20 6z"/>
<path d="M6381 7406 c13 -13 112 -66 116 -63 4 5 -102 67 -114 67 -3 0 -4 -2
-2 -4z"/>
<path d="M6207 7379 c7 -7 15 -10 18 -7 3 3 -2 9 -12 12 -14 6 -15 5 -6 -5z"/>
<path d="M5885 7368 c45 -27 103 -60 155 -88 124 -69 95 -66 -44 4 -82 42
-153 76 -160 76 -13 0 88 -60 194 -114 41 -21 80 -43 85 -49 6 -5 -1 -4 -13 3
-43 21 -35 2 10 -25 23 -15 57 -36 73 -46 17 -10 26 -19 22 -19 -10 0 -70 31
-77 39 -3 4 -29 22 -57 40 -29 18 -51 36 -48 40 4 7 -68 46 -142 77 -28 12
-32 12 -27 -1 5 -11 1 -14 -12 -10 -11 3 14 -11 54 -32 85 -44 97 -64 17 -28
-31 13 -53 20 -50 15 4 -6 1 -10 -5 -10 -16 0 9 -23 45 -43 27 -14 28 -16 8
-17 -12 0 -25 5 -28 11 -7 10 -94 51 -137 64 -27 8 39 -35 135 -89 37 -21 66
-41 63 -44 -3 -2 -17 3 -30 12 -14 9 -40 16 -58 16 -23 0 -29 3 -19 9 10 7 8
9 -10 8 -13 0 -32 3 -41 7 -11 5 -18 4 -18 -3 0 -6 3 -11 8 -11 4 0 22 -9 41
-21 55 -33 28 -33 -40 2 -45 22 -59 26 -49 14 8 -10 31 -25 50 -33 l35 -15
-27 -9 c-19 -7 -35 -5 -57 6 -51 27 -49 17 4 -14 59 -35 55 -38 -11 -10 -33
14 -43 16 -35 6 9 -11 9 -15 -1 -20 -7 -3 -3 -3 9 0 13 3 31 0 40 -6 15 -9 14
-10 -7 -4 -22 6 -23 5 -11 -10 7 -9 20 -16 29 -16 8 0 13 -3 10 -6 -3 -3 -29
2 -58 12 -42 14 -54 14 -63 4 -9 -10 -9 -11 1 -6 6 4 12 3 12 -2 0 -5 18 -17
40 -27 54 -24 42 -32 -15 -11 -25 10 -51 15 -58 13 -7 -4 -6 -6 4 -6 9 -1 22
-8 29 -17 12 -13 10 -14 -16 -3 -16 7 -33 16 -38 21 -6 4 -14 8 -19 8 -17 0
20 -28 72 -55 60 -30 62 -47 2 -20 -39 17 -71 15 -71 -4 0 -5 8 -11 18 -15 9
-3 35 -17 57 -31 45 -28 24 -35 -26 -9 -24 12 -34 13 -45 3 -20 -16 -17 -29 6
-29 12 0 26 -5 33 -10 7 -6 23 -19 37 -31 14 -11 19 -18 13 -14 -7 3 -13 4
-13 1 0 -4 56 -36 225 -127 120 -65 133 -59 247 116 87 134 90 139 75 155 -10
10 -8 11 8 6 20 -6 28 4 72 83 11 21 11 25 -4 37 -10 7 -22 14 -27 14 -5 0 -7
3 -4 6 4 3 16 0 28 -6 11 -6 26 -9 33 -7 7 2 -22 21 -63 42 -41 20 -77 41 -78
46 -2 5 -9 6 -15 2 -8 -5 -8 -2 0 8 10 12 10 18 1 27 -15 15 -3 15 25 0 21
-11 21 -11 2 -18 -19 -8 -19 -8 -1 -15 11 -5 21 -3 25 4 6 9 14 6 32 -9 l24
-21 -23 11 c-13 7 -26 9 -28 7 -5 -5 101 -57 114 -56 4 1 6 5 4 10 -1 5 5 9
13 9 8 0 15 9 15 19 0 11 6 21 13 24 7 2 8 8 3 13 -5 5 -10 4 -13 -2 -2 -6 -9
-18 -16 -27 -11 -15 -16 -14 -57 13 -25 16 -51 34 -58 40 -7 6 -17 8 -24 4 -6
-4 -8 -3 -5 3 8 14 -18 36 -35 31 -7 -3 -19 1 -26 9 -8 7 -18 10 -24 7 -6 -4
-8 -2 -5 3 4 6 -5 14 -20 18 -19 4 -23 9 -14 14 8 6 2 10 -18 14 -17 4 -31 11
-31 17 0 10 31 1 70 -20 15 -8 19 -7 17 9 -1 12 -6 17 -16 13 -8 -3 -12 -1 -8
5 4 6 -1 10 -11 9 -9 0 -16 5 -14 12 3 18 -23 14 -42 -7 -17 -19 -18 -18 -59
4 -46 25 -120 46 -82 23z m10 -138 c3 -5 2 -10 -4 -10 -5 0 -13 5 -16 10 -3 6
-2 10 4 10 5 0 13 -4 16 -10z m201 -77 c-5 -5 -96 44 -111 59 -5 6 18 -4 53
-22 34 -18 60 -35 58 -37z m-111 37 c3 -5 2 -10 -4 -10 -5 0 -13 5 -16 10 -3
6 -2 10 4 10 5 0 13 -4 16 -10z m45 -30 c0 -5 -2 -10 -4 -10 -3 0 -8 5 -11 10
-3 6 -1 10 4 10 6 0 11 -4 11 -10z m67 -36 c48 -33 49 -34 21 -27 -12 4 -29
13 -36 20 -8 7 -18 10 -24 7 -6 -4 -8 -2 -4 4 3 5 0 13 -6 15 -10 4 -10 6 -1
6 7 1 29 -11 50 -25z m-222 6 c3 -5 2 -10 -4 -10 -5 0 -13 5 -16 10 -3 6 -2
10 4 10 5 0 13 -4 16 -10z m404 -86 c2 -2 2 -7 -2 -10 -3 -3 -19 4 -36 17 -24
17 -33 20 -44 10 -11 -9 -17 -8 -28 5 -12 15 -11 16 11 10 24 -7 24 -6 6 8
-11 9 -23 16 -28 16 -4 0 -8 4 -8 9 0 8 114 -49 129 -65z m-44 -4 c3 -5 2 -10
-4 -10 -5 0 -13 5 -16 10 -3 6 -2 10 4 10 5 0 13 -4 16 -10z m15 -52 c0 -10
-25 2 -55 26 -17 14 -14 14 18 -1 20 -9 37 -21 37 -25z m-25 -26 c-3 -3 -11 0
-18 7 -9 10 -8 11 6 5 10 -3 15 -9 12 -12z m-608 -28 c-3 -3 -12 -4 -19 -1 -8
3 -5 6 6 6 11 1 17 -2 13 -5z m577 -10 c3 -8 2 -12 -4 -9 -6 3 -10 10 -10 16
0 14 7 11 14 -7z"/>
<path d="M6080 7370 c8 -5 23 -10 33 -10 9 0 17 -4 17 -8 0 -4 20 -18 45 -30
25 -12 45 -20 45 -18 0 8 -108 69 -130 72 -19 3 -22 2 -10 -6z"/>
<path d="M6255 7360 c3 -5 11 -10 16 -10 6 0 7 5 4 10 -3 6 -11 10 -16 10 -6
0 -7 -4 -4 -10z"/>
<path d="M6455 7320 c-3 -5 -2 -10 4 -10 5 0 13 5 16 10 3 6 2 10 -4 10 -5 0
-13 -4 -16 -10z"/>
<path d="M6230 7292 c0 -5 19 -18 42 -28 24 -10 57 -32 75 -47 18 -16 38 -27
44 -25 10 3 -27 30 -123 87 -21 13 -38 18 -38 13z"/>
<path d="M6130 7278 c0 -6 3 -8 7 -5 3 4 13 1 22 -6 14 -11 14 -10 2 6 -15 20
-31 22 -31 5z"/>
<path d="M6040 7220 c8 -5 20 -10 25 -10 6 0 3 5 -5 10 -8 5 -19 10 -25 10 -5
0 -3 -5 5 -10z"/>
<path d="M6287 7213 c-17 -4 -16 -6 4 -24 25 -22 37 -25 20 -6 -8 10 -7 17 1
25 12 12 7 13 -25 5z"/>
<path d="M5755 7110 c3 -5 11 -10 16 -10 6 0 7 5 4 10 -3 6 -11 10 -16 10 -6
0 -7 -4 -4 -10z"/>
<path d="M3873 7093 c9 -2 23 -2 30 0 6 3 -1 5 -18 5 -16 0 -22 -2 -12 -5z"/>
<path d="M4438 7093 c6 -2 18 -2 25 0 6 3 1 5 -13 5 -14 0 -19 -2 -12 -5z"/>
<path d="M3773 7083 c9 -2 25 -2 35 0 9 3 1 5 -18 5 -19 0 -27 -2 -17 -5z"/>
<path d="M4528 7083 c12 -2 30 -2 40 0 9 3 -1 5 -23 4 -22 0 -30 -2 -17 -4z"/>
<path d="M3693 7073 c9 -2 25 -2 35 0 9 3 1 5 -18 5 -19 0 -27 -2 -17 -5z"/>
<path d="M3585 7060 c-42 -11 -1 -11 50 -1 34 7 35 9 10 9 -16 0 -43 -4 -60
-8z"/>
<path d="M3916 6913 l-58 -4 6 -87 c4 -48 9 -103 12 -122 l5 -35 87 3 c106 4
112 5 105 31 -5 19 -13 21 -74 21 -67 0 -69 1 -69 25 0 24 3 25 60 25 58 0 60
1 60 26 0 26 -1 26 -62 22 -61 -3 -63 -2 -63 22 0 24 4 25 65 30 58 4 65 7 68
28 4 24 7 24 -142 15z"/>
<path d="M4151 6894 c-17 -14 -36 -43 -42 -64 -10 -33 -9 -44 10 -83 33 -69
108 -95 190 -66 30 10 31 13 31 65 0 51 -2 54 -24 54 -21 0 -25 -5 -28 -37 -3
-34 -6 -38 -34 -41 -72 -7 -118 86 -65 130 26 20 72 24 102 7 16 -8 25 -7 40
7 19 17 19 18 -8 36 -19 12 -47 18 -85 18 -46 0 -62 -5 -87 -26z"/>
<path d="M4415 6910 c-3 -5 -8 -48 -11 -97 -7 -89 -6 -90 22 -122 37 -42 101
-53 150 -26 18 10 36 25 39 34 6 15 34 184 31 188 0 0 -14 3 -31 5 l-30 3 -10
-84 c-8 -62 -16 -87 -30 -97 -26 -19 -49 -17 -70 6 -15 17 -16 31 -10 103 l7
84 -26 5 c-15 3 -29 2 -31 -2z"/>
<path d="M5520 6910 c0 -5 5 -10 11 -10 5 0 7 5 4 10 -3 6 -8 10 -11 10 -2 0
-4 -4 -4 -10z"/>
<path d="M3675 6885 c-46 -17 -65 -38 -65 -75 0 -40 31 -62 97 -69 49 -5 58
-9 58 -26 0 -18 -7 -20 -63 -20 -52 0 -63 -3 -68 -19 -8 -26 12 -36 72 -36 37
0 61 6 85 23 75 51 38 127 -62 127 -37 0 -59 9 -59 26 0 22 39 37 80 30 32 -5
38 -3 43 15 4 15 -1 23 -19 30 -33 12 -51 11 -99 -6z"/>
<path d="M5520 6886 c0 -2 9 -6 20 -9 11 -3 18 -1 14 4 -5 9 -34 13 -34 5z"/>
<path d="M4691 6759 c-13 -66 -22 -121 -20 -123 2 -2 16 -6 30 -10 24 -5 27
-3 33 29 4 19 11 35 16 35 24 0 43 -16 56 -50 12 -29 22 -39 46 -44 17 -3 32
-5 34 -3 2 1 -6 21 -16 44 -18 41 -18 42 1 48 21 7 49 54 49 83 0 50 -60 85
-176 105 l-30 6 -23 -120z m158 26 c32 -32 -18 -65 -75 -51 -24 6 -25 18 -9
73 5 15 62 0 84 -22z"/>
<path d="M3380 6826 c-25 -7 -44 -17 -44 -22 3 -15 45 -197 50 -216 4 -12 11
-14 32 -8 15 4 26 11 26 16 -1 5 -4 21 -8 35 -5 23 -2 27 22 32 21 4 34 -1 58
-24 26 -25 35 -28 64 -23 l34 7 -39 33 c-38 31 -39 33 -22 52 23 25 21 74 -4
106 -18 22 -28 26 -72 25 -29 -1 -72 -7 -97 -13z m114 -39 c11 -8 17 -23 14
-37 -2 -19 -13 -27 -45 -36 l-41 -12 -10 39 c-10 38 -9 39 22 48 42 13 40 13
60 -2z"/>
<path d="M4974 6761 c-9 -31 -24 -84 -34 -119 -19 -66 -19 -67 25 -74 16 -3
23 12 51 112 18 63 31 117 28 121 -2 4 -15 9 -29 11 -23 5 -26 1 -41 -51z"/>
<path d="M3170 6764 c-41 -14 -76 -26 -78 -28 -2 -2 13 -56 33 -119 l37 -115
92 30 c50 17 93 32 94 34 2 1 1 11 -2 22 -6 19 -7 19 -72 -1 -55 -16 -68 -17
-75 -6 -17 27 -8 38 45 55 43 14 52 20 49 35 -6 23 -18 23 -74 4 -34 -12 -44
-13 -51 -3 -16 26 -7 37 50 55 43 15 58 25 60 41 4 28 -11 27 -108 -4z"/>
<path d="M5078 6669 c-21 -62 -35 -115 -33 -119 2 -3 38 -17 80 -30 71 -22 79
-23 117 -9 54 19 83 58 83 114 0 56 -37 97 -111 125 -105 39 -95 45 -136 -81z
m143 18 c41 -27 51 -77 22 -109 -15 -16 -27 -19 -66 -15 -26 2 -50 7 -54 10
-3 4 -1 26 6 49 30 100 35 103 92 65z"/>
<path d="M2960 6684 c-51 -17 -140 -58 -140 -64 0 -5 16 -46 36 -92 20 -45 40
-93 45 -105 l8 -23 83 35 c94 40 111 53 111 89 0 29 -28 66 -49 66 -10 0 -12
9 -8 29 10 48 -35 81 -86 65z m28 -57 c15 -18 2 -34 -42 -52 -42 -18 -41 -18
-50 11 -5 18 0 24 31 37 47 20 48 20 61 4z m47 -102 c0 -13 -13 -26 -39 -39
-38 -19 -39 -19 -53 -1 -19 27 -17 34 20 50 43 19 72 15 72 -10z"/>
<path d="M5381 6558 l-103 -91 27 -14 c23 -13 29 -13 44 1 22 20 30 20 85 -4
39 -16 46 -23 46 -48 0 -21 7 -32 25 -40 14 -7 28 -12 30 -12 3 0 5 62 5 138
l0 139 -25 11 c-14 7 -27 12 -29 12 -1 0 -48 -41 -105 -92z m101 -28 c-2 -22
-6 -40 -7 -40 -2 0 -16 5 -31 10 l-27 11 28 29 c16 17 31 30 35 30 3 0 4 -18
2 -40z"/>
<path d="M2716 6577 c-17 -12 -15 -20 34 -118 29 -57 54 -105 55 -107 2 -2 14
2 28 10 l24 13 -50 108 c-27 59 -55 107 -62 107 -6 0 -19 -6 -29 -13z"/>
<path d="M5617 6444 c-32 -58 -57 -107 -55 -109 1 -1 36 -20 76 -40 88 -44
136 -44 183 1 50 48 51 119 3 168 -27 26 -124 86 -140 86 -5 0 -35 -48 -67
-106z m139 5 c33 -20 39 -33 35 -73 -4 -52 -66 -72 -122 -39 l-28 17 31 58
c17 32 35 58 41 58 5 0 25 -9 43 -21z"/>
<path d="M2560 6502 c-43 -21 -80 -75 -80 -116 0 -65 63 -126 130 -126 45 0
107 35 126 71 13 26 14 33 2 40 -22 14 -36 10 -43 -11 -9 -27 -61 -53 -91 -46
-60 15 -83 82 -44 124 22 23 63 38 79 28 10 -7 31 23 31 43 0 17 -72 13 -110
-7z"/>
<path d="M4489 6503 c16 -31 29 -36 47 -19 23 23 30 20 9 -4 -10 -11 -15 -23
-11 -28 4 -4 14 1 21 11 9 12 14 14 17 6 3 -9 9 -9 24 -1 11 7 14 12 5 12 -7
0 -11 6 -8 14 4 10 1 13 -9 9 -7 -3 -14 0 -14 6 0 6 -14 11 -31 11 -25 0 -30
-3 -25 -17 6 -14 3 -14 -15 3 -22 19 -22 19 -10 -3z"/>
<path d="M3510 6467 c-35 -15 -34 -15 -20 -32 15 -18 31 -10 23 12 -4 9 -2 14
3 10 6 -3 16 -2 23 2 21 14 -2 19 -29 8z"/>
<path d="M3448 6426 c-10 -7 -18 -16 -18 -18 0 -9 34 -4 46 7 12 10 9 25 -4
25 -4 0 -15 -7 -24 -14z"/>
<path d="M840 6290 c-6 -11 -8 -20 -6 -20 3 0 10 9 16 20 6 11 8 20 6 20 -3 0
-10 -9 -16 -20z"/>
<path d="M770 6284 c0 -10 5 -26 10 -34 8 -11 9 -7 4 15 -8 37 -14 45 -14 19z"/>
<path d="M3219 6232 c-35 -41 -35 -53 1 -40 35 12 61 48 35 48 -9 0 -13 5 -10
10 12 19 -2 10 -26 -18z"/>
<path d="M5454 6225 c16 -12 17 -18 8 -27 -14 -14 -16 -58 -3 -58 5 0 12 10
16 23 6 18 8 19 12 5 2 -10 -3 -28 -11 -40 -9 -12 -16 -17 -16 -10 0 7 -4 11
-8 8 -4 -3 -6 -21 -4 -40 2 -20 8 -33 13 -30 5 3 9 0 9 -6 0 -6 -7 -13 -15
-16 -8 -4 -13 -9 -10 -13 2 -4 5 -24 7 -44 1 -20 8 -39 16 -42 10 -4 12 0 8
10 -3 9 -2 13 4 10 11 -7 7 -62 -5 -73 -4 -4 -4 3 -1 15 6 17 4 22 -6 18 -16
-6 -21 -42 -7 -50 5 -4 9 -15 9 -26 0 -10 5 -19 11 -19 8 0 9 -13 5 -40 -4
-24 -2 -40 4 -40 5 0 7 -7 4 -15 -4 -8 -2 -15 2 -16 5 0 18 -2 28 -4 11 -2 27
1 35 6 14 9 14 10 -1 5 -9 -2 -24 4 -34 15 -9 10 -12 19 -6 19 6 0 12 -6 15
-12 3 -9 7 -7 12 5 4 10 2 30 -5 45 -8 15 -15 41 -17 57 -3 25 -1 27 7 13 14
-22 26 -23 34 -2 4 12 2 15 -9 10 -13 -5 -14 -2 -4 16 10 18 9 20 -5 15 -10
-4 -16 -2 -15 6 1 6 -3 25 -10 41 -6 16 -9 31 -7 34 3 2 8 -8 12 -23 6 -23 8
-25 16 -11 6 11 4 21 -7 32 -9 9 -14 23 -11 31 3 8 2 11 -4 8 -12 -8 -8 38 5
48 6 5 3 7 -7 3 -16 -5 -20 0 -17 22 1 4 4 6 8 5 4 -1 8 4 8 12 0 8 -5 13 -11
12 -6 -1 -10 10 -8 24 3 38 -25 99 -46 99 -15 -1 -15 -2 2 -15z m44 -220 c-3
-3 -9 2 -12 12 -6 14 -5 15 5 6 7 -7 10 -15 7 -18z m13 -122 c-12 -20 -14 -14
-5 12 4 9 9 14 11 11 3 -2 0 -13 -6 -23z m-1 -117 c0 -3 -4 -8 -10 -11 -5 -3
-10 -1 -10 4 0 6 5 11 10 11 6 0 10 -2 10 -4z"/>
<path d="M757 6223 c-10 -9 -9 -23 2 -23 5 0 11 7 15 15 5 15 -5 20 -17 8z"/>
<path d="M6418 6093 c7 -3 16 -2 19 1 4 3 -2 6 -13 5 -11 0 -14 -3 -6 -6z"/>
<path d="M6628 6088 c5 -5 16 -8 23 -6 8 3 3 7 -10 11 -17 4 -21 3 -13 -5z"/>
<path d="M6461 6074 c6 -8 17 -14 24 -14 7 0 45 -14 86 -31 41 -17 79 -32 84
-33 6 -1 24 -7 40 -14 45 -18 155 -41 155 -33 0 4 -23 14 -51 21 -27 8 -53 18
-56 23 -7 12 57 4 131 -17 94 -27 74 -12 -29 20 -52 17 -91 26 -88 21 4 -6 -5
-7 -22 -3 -25 6 -27 5 -16 -8 8 -9 9 -16 4 -16 -16 0 -50 34 -47 48 1 7 0 8
-3 2 -6 -13 -73 -13 -93 0 -8 5 -10 10 -5 11 10 1 -14 9 -88 27 -32 9 -36 8
-26 -4z m213 -62 c3 -5 -1 -9 -9 -9 -8 0 -15 4 -15 9 0 4 4 8 9 8 6 0 12 -4
15 -8z"/>
<path d="M6603 6073 c4 -6 1 -13 -5 -16 -7 -2 0 -4 15 -4 15 0 27 0 25 1 -2 1
-12 8 -22 16 -11 8 -17 10 -13 3z"/>
<path d="M6680 6070 c8 -5 22 -9 30 -9 10 0 8 3 -5 9 -27 12 -43 12 -25 0z"/>
<path d="M747 6039 c-4 -16 -3 -18 9 -8 16 13 19 29 5 29 -5 0 -11 -9 -14 -21z"/>
<path d="M6440 6047 c0 -8 120 -49 133 -44 7 2 -14 11 -45 21 -32 9 -64 19
-73 22 -8 3 -15 4 -15 1z"/>
<path d="M6780 6040 c8 -5 22 -9 30 -9 10 0 8 3 -5 9 -27 12 -43 12 -25 0z"/>
<path d="M2990 6019 c0 -5 5 -7 10 -4 6 3 10 8 10 11 0 2 -4 4 -10 4 -5 0 -10
-5 -10 -11z"/>
<path d="M4892 5991 c0 -17 3 -31 8 -31 16 0 18 15 6 39 -13 23 -13 23 -14 -8z"/>
<path d="M6876 6011 c5 -6 24 -13 43 -16 19 -3 38 -8 43 -11 4 -3 8 -1 8 4 0
5 -20 15 -44 21 -55 13 -63 14 -50 2z"/>
<path d="M6428 5989 c4 -4 39 -14 77 -23 39 -10 87 -24 108 -32 20 -7 59 -19
85 -24 26 -6 55 -13 65 -16 9 -3 17 -1 17 3 0 12 -94 46 -126 46 -13 0 -21 3
-19 7 7 11 -43 22 -57 14 -6 -4 -8 -3 -4 4 8 14 -43 25 -80 17 -19 -4 -24 -3
-16 2 8 7 1 9 -22 9 -19 -1 -32 -4 -28 -7z m105 -16 c-7 -2 -19 -2 -25 0 -7 3
-2 5 12 5 14 0 19 -2 13 -5z"/>
<path d="M6590 5995 c0 -6 61 -32 95 -40 45 -10 23 5 -37 26 -61 21 -58 20
-58 14z"/>
<path d="M6745 5940 c27 -12 43 -12 25 0 -8 5 -22 9 -30 9 -10 0 -8 -3 5 -9z"/>
<path d="M775 5918 c17 -6 38 -17 48 -26 9 -8 17 -10 17 -5 0 12 -61 43 -82
42 -7 0 1 -5 17 -11z"/>
<path d="M1131 5914 c0 -11 3 -14 6 -6 3 7 2 16 -1 19 -3 4 -6 -2 -5 -13z"/>
<path d="M6484 5922 c4 -7 16 -12 27 -12 11 0 18 -4 14 -9 -7 -13 2 -18 49
-26 27 -6 37 -4 32 3 -4 6 -14 8 -23 5 -11 -4 -14 -3 -9 5 5 8 1 10 -10 5 -11
-4 -15 -2 -11 4 4 6 -4 14 -17 17 -13 3 -32 9 -42 13 -12 4 -15 3 -10 -5z"/>
<path d="M6604 5909 c27 -11 50 -18 53 -16 5 6 -73 37 -90 36 -6 0 10 -9 37
-20z"/>
<path d="M6805 5920 c11 -5 27 -9 35 -9 13 -1 13 0 0 9 -8 5 -24 9 -35 9 l-20
0 20 -9z"/>
<path d="M6433 5913 c9 -2 17 -9 17 -14 0 -5 7 -9 15 -9 8 0 29 -9 47 -20 18
-11 27 -20 19 -20 -8 0 -12 -3 -8 -6 3 -3 14 -1 24 4 16 10 16 12 -9 21 -16 6
-28 15 -28 21 0 5 -9 10 -20 10 -11 0 -20 5 -20 10 0 6 -12 9 -27 9 -17 -1
-21 -3 -10 -6z"/>
<path d="M6390 5900 c0 -5 5 -10 11 -10 5 0 7 5 4 10 -3 6 -8 10 -11 10 -2 0
-4 -4 -4 -10z"/>
<path d="M724 5865 c-10 -8 -14 -14 -9 -15 15 0 40 18 34 24 -3 3 -14 -1 -25
-9z"/>
<path d="M816 5839 c9 -17 14 -42 11 -55 -2 -13 0 -24 4 -24 14 0 10 49 -6 80
-9 17 -18 30 -21 30 -2 0 3 -14 12 -31z"/>
<path d="M6561 5843 c-9 -10 -5 -11 21 -7 25 4 30 3 18 -5 -11 -8 -7 -9 20 -5
19 4 36 8 37 8 1 1 -17 6 -41 12 -32 7 -46 6 -55 -3z"/>
<path d="M700 5821 c0 -11 4 -22 9 -25 4 -3 6 6 3 19 -5 30 -12 33 -12 6z"/>
<path d="M5546 5821 c-4 -7 -5 -15 -2 -18 9 -9 19 4 14 18 -4 11 -6 11 -12 0z"/>
<path d="M690 5775 c0 -8 4 -15 10 -15 5 0 7 7 4 15 -4 8 -8 15 -10 15 -2 0
-4 -7 -4 -15z"/>
<path d="M740 5666 c0 -14 4 -27 10 -31 6 -4 6 -15 0 -30 -9 -22 -7 -25 15
-25 14 0 25 5 25 11 0 5 -4 8 -9 4 -6 -3 -6 7 0 27 15 54 12 68 -16 68 -20 0
-25 -5 -25 -24z m40 6 c0 -13 -12 -22 -22 -16 -10 6 -1 24 13 24 5 0 9 -4 9
-8z"/>
<path d="M5510 5681 c0 -6 5 -13 10 -16 6 -3 10 1 10 9 0 9 -4 16 -10 16 -5 0
-10 -4 -10 -9z"/>
<path d="M8030 5634 c0 -7 7 -27 15 -45 8 -19 14 -29 15 -23 0 7 -7 27 -15 45
-8 19 -14 29 -15 23z"/>
<path d="M900 5604 c0 -8 5 -12 10 -9 6 4 8 11 5 16 -9 14 -15 11 -15 -7z"/>
<path d="M2042 5588 c-17 -17 -15 -53 3 -68 20 -17 61 -5 68 19 11 42 -42 78
-71 49z"/>
<path d="M6232 5588 c-19 -19 -14 -55 10 -72 19 -13 25 -14 43 -2 24 16 31 51
15 72 -15 17 -52 18 -68 2z"/>
<path d="M8071 5520 c0 -8 4 -22 9 -30 12 -18 12 -2 0 25 -6 13 -9 15 -9 5z"/>
<path d="M8094 5450 c3 -14 9 -41 15 -60 45 -158 55 -190 58 -186 5 5 -50 209
-67 246 l-10 25 4 -25z"/>
<path d="M2262 5408 c-27 -27 -7 -78 29 -78 21 0 49 26 49 45 0 35 -53 58 -78
33z"/>
<path d="M6012 5408 c-7 -7 -12 -21 -12 -33 0 -12 5 -26 12 -33 7 -7 21 -12
33 -12 12 0 26 5 33 12 7 7 12 21 12 33 0 12 -5 26 -12 33 -7 7 -21 12 -33 12
-12 0 -26 -5 -33 -12z"/>
<path d="M3030 5381 c0 -5 -23 -8 -50 -7 -28 0 -50 -3 -50 -8 0 -4 -7 -6 -14
-3 -8 3 -29 -1 -45 -9 -17 -9 -36 -12 -42 -8 -8 4 -9 3 -5 -4 4 -7 1 -12 -8
-12 -9 0 -16 -4 -16 -10 0 -5 -7 -10 -15 -10 -8 0 -15 -7 -15 -15 0 -8 -4 -15
-10 -15 -12 0 -41 -55 -33 -64 4 -3 2 -6 -4 -6 -29 0 -50 -320 -29 -433 9 -48
26 -38 27 16 0 33 2 38 9 22 5 -11 9 -35 9 -52 2 -56 59 -217 102 -283 88
-137 231 -233 394 -266 146 -30 272 -7 449 82 60 30 111 52 114 49 3 -3 -5
-16 -18 -30 -38 -40 -8 -29 46 18 83 71 99 90 102 127 1 19 6 37 10 40 5 3 8
19 8 35 -1 17 5 37 13 45 9 10 10 15 2 18 -16 5 -14 22 3 22 7 0 25 6 39 13
23 12 24 14 9 25 -16 10 -16 11 1 11 9 1 17 8 17 17 0 10 -6 14 -15 10 -10 -3
-15 1 -15 12 0 10 -3 13 -8 7 -4 -5 -13 -11 -21 -13 -9 -2 -6 9 10 30 60 81
81 170 58 249 -7 24 -12 47 -11 52 1 4 -3 7 -8 7 -6 0 -10 7 -10 16 0 12 -5
10 -19 -7 -11 -13 -17 -26 -15 -29 3 -2 9 2 14 10 6 10 10 11 10 3 0 -7 -10
-21 -22 -33 -12 -11 -16 -20 -10 -20 7 0 12 -5 12 -11 0 -6 -7 -8 -16 -5 -13
5 -15 1 -10 -19 5 -20 3 -23 -11 -18 -10 3 -15 3 -11 -2 4 -4 3 -14 -3 -21 -8
-10 -17 -10 -37 -3 -15 6 -28 10 -29 10 -2 -1 -14 -1 -28 -1 -18 0 -23 4 -19
15 6 15 -11 22 -19 8 -2 -5 -2 -2 -1 4 2 7 -3 16 -10 20 -7 5 -18 18 -25 31
-6 12 -16 22 -22 22 -5 0 -26 16 -46 35 -20 19 -41 35 -47 35 -5 0 -30 22 -56
49 -25 26 -55 51 -68 55 -12 4 -20 12 -17 17 4 5 0 9 -8 9 -8 0 -27 11 -42 24
-60 52 -214 113 -312 123 -24 3 -43 10 -43 16 0 8 -3 8 -11 0 -9 -9 -15 -8
-26 3 -16 16 -33 19 -33 5z m304 -224 c50 -24 74 -31 65 -20 -12 14 -9 14 19
-2 18 -11 45 -30 60 -43 24 -20 24 -22 4 -12 -22 11 -23 10 -12 -9 6 -12 15
-21 20 -21 6 0 10 -5 10 -11 0 -6 18 -32 40 -58 22 -26 40 -53 40 -59 0 -7 5
-12 11 -12 5 0 7 -4 4 -10 -3 -5 5 -25 18 -42 14 -18 32 -49 41 -68 l17 -35
-28 35 c-14 19 -61 69 -103 111 -278 275 -652 301 -762 52 -10 -24 -20 -43
-22 -43 -6 0 14 80 29 115 7 19 32 54 55 79 41 45 69 58 150 71 19 3 51 10 70
15 19 5 71 8 115 7 70 -2 90 -7 159 -40z m-24 33 c8 -5 11 -10 5 -10 -5 0 -17
5 -25 10 -8 5 -10 10 -5 10 6 0 17 -5 25 -10z m65 -38 c-3 -3 -11 0 -18 7 -9
10 -8 11 6 5 10 -3 15 -9 12 -12z m-39 -166 c94 -47 106 -61 89 -103 -8 -18
-28 -39 -47 -49 -41 -22 -120 -22 -153 0 -56 37 -76 113 -45 171 13 24 19 26
50 21 19 -3 67 -21 106 -40z m-421 -23 c-28 -69 -23 -200 11 -295 19 -56 11
-59 -20 -6 -56 97 -80 202 -56 249 26 50 83 95 65 52z m-112 -129 c16 -78 49
-170 79 -217 69 -108 213 -202 360 -234 94 -20 275 -20 398 1 123 21 180 21
180 1 0 -12 -14 -15 -62 -15 -35 0 -112 -9 -172 -20 -60 -11 -142 -20 -182
-20 -133 0 -297 44 -395 106 -63 39 -143 123 -172 180 -15 27 -26 45 -26 39
-1 -5 10 -28 24 -50 13 -22 31 -53 40 -70 l16 -30 -27 30 c-15 17 -24 22 -20
13 11 -34 -4 -18 -29 32 -38 75 -80 270 -55 255 6 -4 10 5 10 20 0 40 24 25
33 -21z"/>
<path d="M6460 5257 c0 -1 13 -43 29 -92 18 -56 28 -104 25 -128 -3 -38 -36
-92 -48 -80 -3 3 -6 1 -6 -5 0 -21 -66 -13 -96 10 -48 37 -75 80 -111 178
l-13 35 6 -44 c13 -111 85 -204 167 -216 57 -9 110 8 138 43 26 33 23 81 -11
195 -30 100 -37 94 -9 -7 11 -43 18 -80 16 -83 -3 -3 -15 28 -27 69 -28 96
-41 128 -51 128 -5 0 -9 -1 -9 -3z"/>
<path d="M2068 5205 c6 -36 -36 -155 -67 -186 -14 -15 -36 -41 -49 -58 -13
-17 -31 -31 -40 -31 -12 0 -13 -3 -5 -11 17 -17 78 7 109 44 59 70 91 180 69
234 -17 39 -24 43 -17 8z"/>
<path d="M8175 5155 c6 -46 14 -93 20 -115 3 -8 7 -33 11 -55 3 -22 8 -44 12
-49 3 -5 0 -6 -6 -2 -18 11 -14 -15 7 -60 14 -28 16 -41 8 -46 -6 -4 -14 -2
-18 4 -10 16 -22 -10 -16 -35 3 -12 9 -58 12 -102 4 -44 11 -107 15 -140 7
-50 8 -43 4 38 -2 54 -7 109 -10 123 -4 15 -2 24 6 24 7 0 10 -7 6 -15 -3 -8
-1 -15 5 -15 12 0 5 60 -9 69 -4 3 -11 13 -15 23 -4 11 -1 15 11 14 9 -2 18
-11 19 -22 2 -10 6 -34 9 -53 5 -23 2 -36 -7 -43 -11 -8 -10 -9 4 -4 14 4 17
-1 18 -32 1 -20 3 -53 5 -72 2 -19 8 -78 12 -130 7 -65 10 -79 11 -45 3 126
-50 513 -94 685 -14 52 -22 77 -20 55z"/>
<path d="M8161 5064 c0 -11 3 -14 6 -6 3 7 2 16 -1 19 -3 4 -6 -2 -5 -13z"/>
<path d="M8161 4993 c4 -27 8 -56 8 -65 1 -10 5 -18 10 -18 15 0 23 57 12 77
-9 14 -10 11 -6 -17 3 -26 1 -23 -8 12 -16 63 -26 69 -16 11z"/>
<path d="M1783 4986 c1 -16 9 -32 17 -34 12 -4 13 -2 4 9 -7 8 -14 23 -17 34
-4 13 -5 9 -4 -9z"/>
<path d="M8181 4884 c0 -11 3 -14 6 -6 3 7 2 16 -1 19 -3 4 -6 -2 -5 -13z"/>
<path d="M7195 4773 c-17 -196 -49 -436 -86 -636 -11 -60 -19 -113 -17 -118 2
-5 25 11 51 35 45 44 102 66 126 51 14 -8 14 179 0 340 -10 116 -53 392 -62
402 -3 2 -8 -31 -12 -74z"/>
<path d="M1128 4825 c-28 -84 -58 -337 -65 -542 l-6 -173 33 0 c38 0 114 -41
124 -66 5 -14 4 -15 -9 -4 -13 11 -14 10 -9 -4 9 -23 61 -22 61 2 0 9 -3 19
-7 22 -15 10 -84 460 -108 705 -5 48 -10 72 -14 60z"/>
<path d="M6882 4779 c-1 -9 -13 -107 -27 -218 l-25 -203 65 -134 c35 -74 71
-158 80 -188 l16 -54 29 14 c32 16 31 13 61 199 32 202 49 360 38 363 -5 2 -9
8 -9 13 0 6 5 7 10 4 6 -3 10 1 10 9 0 9 -4 16 -9 16 -6 0 -11 15 -14 33 l-3
32 -9 -33 -8 -33 -14 28 c-8 15 -12 37 -9 49 3 12 -1 37 -9 55 -8 19 -15 30
-16 24 0 -5 -4 1 -8 15 -7 21 -9 16 -16 -30 l-9 -55 -6 45 -7 45 -8 -33 c-9
-39 -23 -31 -35 20 -7 30 -8 29 -10 -22 -2 -31 -5 -43 -7 -27 -5 31 -23 37
-23 7 0 -41 -19 -18 -23 28 -2 26 -4 40 -5 31z"/>
<path d="M8251 4544 c0 -11 3 -14 6 -6 3 7 2 16 -1 19 -3 4 -6 -2 -5 -13z"/>
<path d="M8282 4325 c5 -84 -3 -209 -12 -195 -7 11 -10 1 -11 -35 -1 -27 -3
-54 -4 -60 -2 -5 -4 -32 -5 -60 l-3 -50 -6 55 c-5 48 -7 38 -14 -70 -10 -143
-26 -267 -63 -458 -97 -513 -275 -952 -590 -1454 l-29 -46 -75 -4 c-41 -2
-165 -5 -275 -6 -194 -3 -201 -4 -236 -28 -49 -33 -182 -182 -174 -194 3 -5 0
-7 -9 -4 -9 3 -19 -3 -27 -18 -12 -22 -11 -23 8 -5 11 9 23 14 26 10 4 -3 19
4 33 18 l27 24 -13 -24 c-8 -15 -8 -21 -1 -17 6 4 11 2 11 -4 0 -6 17 2 37 17
l37 28 -27 -36 c-15 -20 -27 -40 -27 -45 0 -5 7 -1 14 9 8 10 27 20 42 22 16
1 30 8 32 14 2 6 8 11 14 11 6 0 8 -6 5 -14 -4 -10 0 -12 15 -8 14 3 19 1 14
-6 -4 -7 -2 -12 3 -12 6 0 11 5 11 10 0 6 5 10 12 10 9 0 9 -3 0 -12 -7 -7
-12 -15 -12 -19 0 -12 74 -3 78 9 2 7 12 4 24 -8 l20 -19 -21 -27 c-42 -53
-15 -52 42 1 27 26 39 19 12 -8 -28 -29 -1 -26 36 4 22 17 36 24 33 16 -3 -9
-12 -18 -20 -21 -8 -3 -14 -11 -14 -18 0 -8 3 -9 8 -3 4 6 14 11 22 13 11 3
11 -1 -3 -16 -9 -10 -17 -23 -17 -29 0 -6 -6 -14 -12 -16 -9 -4 -10 -6 -1 -6
6 -1 19 6 27 15 9 8 20 13 25 9 5 -3 13 0 17 6 4 8 3 9 -4 5 -7 -4 -12 -2 -12
3 0 16 29 13 46 -3 9 -9 10 -17 4 -21 -5 -3 -10 -1 -10 5 0 6 -5 8 -11 4 -8
-4 -7 -9 2 -15 12 -8 11 -11 -1 -19 -8 -5 -11 -10 -5 -10 5 0 27 17 49 37 l39
38 -46 -61 c-64 -85 -359 -381 -497 -499 -416 -356 -908 -633 -1430 -805 -96
-31 -209 -65 -250 -75 -41 -10 -70 -20 -64 -22 16 -5 234 51 369 94 688 222
1326 641 1822 1196 458 515 767 1094 932 1754 21 82 28 138 9 73 -8 -27 -12
-31 -19 -19 -5 10 -4 30 2 50 6 19 12 43 13 54 2 11 10 58 19 105 31 171 39
239 33 263 -3 14 -2 27 3 29 26 9 56 565 33 604 -11 17 -12 16 -10 -11z m-15
-357 c-3 -7 -5 -2 -5 12 0 14 2 19 5 13 2 -7 2 -19 0 -25z m-17 -63 c0 -8 -4
-15 -10 -15 -5 0 -7 7 -4 15 4 8 8 15 10 15 2 0 4 -7 4 -15z m-13 -97 c-2 -13
-4 -5 -4 17 -1 22 1 32 4 23 2 -10 2 -28 0 -40z m-1 -170 c-2 -13 -10 -57 -17
-98 -12 -72 -29 -116 -29 -74 0 22 27 154 36 178 9 23 15 20 10 -6z m-54 -260
c-8 -8 -9 -4 -5 13 4 13 8 18 11 10 2 -7 -1 -18 -6 -23z m4 -54 c-3 -8 -10
-12 -16 -9 -6 3 -10 -4 -10 -17 0 -13 -5 -30 -10 -38 -13 -20 -12 -4 1 44 8
29 13 36 20 25 6 -10 9 -8 10 11 0 14 3 19 6 12 3 -7 2 -20 -1 -28z m-26 -211
c-11 -17 -11 -17 -6 0 3 10 6 24 7 30 0 9 2 9 5 0 3 -7 0 -20 -6 -30z m-16
-72 c-19 -66 -63 -179 -64 -165 0 12 56 189 65 204 13 22 13 8 -1 -39z m-41
-1 c-3 -11 -9 -20 -15 -20 -5 0 -4 9 2 20 6 11 12 20 14 20 2 0 2 -9 -1 -20z
m-3 -36 c0 -8 -19 -13 -24 -6 -3 5 1 9 9 9 8 0 15 -2 15 -3z m-1240 -1284 c0
-5 -5 -10 -11 -10 -5 0 -7 5 -4 10 3 6 8 10 11 10 2 0 4 -4 4 -10z m70 -5 c-7
-9 -15 -13 -19 -10 -3 3 1 10 9 15 21 14 24 12 10 -5z m380 -117 c0 -11 -12
-10 -30 2 -12 7 -10 9 8 7 12 0 22 -5 22 -9z"/>
<path d="M1411 4183 c-10 -26 -10 -27 4 -9 8 11 15 23 15 28 0 15 -7 8 -19
-19z"/>
<path d="M6480 4198 c0 -9 5 -20 10 -23 13 -8 13 5 0 25 -8 13 -10 13 -10 -2z"/>
<path d="M6527 4174 c-7 -7 2 -34 12 -34 4 0 7 9 8 20 2 19 -8 26 -20 14z"/>
<path d="M2875 4150 c3 -5 8 -10 11 -10 2 0 4 5 4 10 0 6 -5 10 -11 10 -5 0
-7 -4 -4 -10z"/>
<path d="M6535 4105 c0 -14 3 -25 8 -25 4 0 7 -12 7 -26 0 -14 4 -23 8 -20 10
6 8 68 -2 85 -12 19 -21 12 -21 -14z"/>
<path d="M1376 4105 c-9 -26 -7 -32 5 -12 6 10 9 21 6 23 -2 3 -7 -2 -11 -11z"/>
<path d="M1301 4094 c0 -11 3 -14 6 -6 3 7 2 16 -1 19 -3 4 -6 -2 -5 -13z"/>
<path d="M3967 4083 c-4 -3 -7 -17 -7 -31 0 -33 87 -135 108 -127 8 3 21 0 30
-7 13 -11 14 -8 7 22 -8 39 -13 46 -69 107 -38 41 -55 50 -69 36z"/>
<path d="M1360 4055 c0 -8 -5 -15 -11 -15 -5 0 -8 -4 -4 -9 3 -5 1 -12 -5 -16
-9 -5 -15 15 -11 38 1 5 -3 6 -8 2 -6 -3 -7 -13 -4 -22 5 -12 2 -15 -10 -10
-9 3 -17 3 -17 -1 0 -10 59 -32 64 -24 8 14 17 72 12 72 -3 0 -6 -7 -6 -15z"/>
<path d="M3910 4047 c0 -14 4 -28 9 -32 6 -3 8 6 5 22 -7 37 -14 42 -14 10z"/>
<path d="M7283 4039 c13 -51 61 -121 134 -197 52 -53 64 -62 39 -30 -20 25
-36 49 -36 53 0 3 -10 16 -21 28 -26 27 -89 123 -89 135 0 5 -7 16 -17 23 -15
13 -16 11 -10 -12z"/>
<path d="M1540 4005 c24 -8 46 -13 48 -11 5 5 -59 26 -77 25 -9 0 4 -7 29 -14z"/>
<path d="M5380 3970 c0 -5 5 -10 11 -10 5 0 7 5 4 10 -3 6 -8 10 -11 10 -2 0
-4 -4 -4 -10z"/>
<path d="M945 3873 c-21 -27 -28 -39 -16 -28 23 19 66 75 59 75 -2 0 -21 -21
-43 -47z"/>
<path d="M1316 3905 c-10 -8 -15 -18 -12 -24 4 -6 -7 -23 -24 -39 -16 -16 -30
-37 -30 -46 0 -9 -5 -16 -11 -16 -6 0 -9 -7 -5 -15 3 -8 0 -14 -7 -12 -7 1
-12 -9 -13 -23 0 -14 -5 -24 -12 -23 -7 2 -9 -4 -5 -14 4 -11 3 -14 -5 -9 -8
5 -12 -1 -12 -18 0 -14 -3 -26 -7 -26 -8 0 -33 -47 -33 -62 0 -4 -9 -17 -20
-28 -12 -12 -18 -25 -15 -31 4 -5 1 -16 -5 -24 -6 -8 -9 -19 -5 -25 3 -6 -1
-24 -9 -42 -9 -17 -16 -45 -16 -62 0 -17 -6 -38 -13 -47 -7 -10 -11 -36 -9
-62 3 -40 6 -45 25 -41 11 2 25 8 31 14 5 5 18 10 29 10 30 0 72 50 97 115 53
139 117 454 108 532 -3 29 -5 30 -22 18z"/>
<path d="M7090 3851 c0 -5 7 -11 14 -14 10 -4 13 -1 9 9 -6 15 -23 19 -23 5z"/>
<path d="M886 3805 c-11 -8 -15 -15 -9 -15 6 0 16 7 23 15 16 19 11 19 -14 0z"/>
<path d="M867 3560 c-6 -16 -15 -30 -20 -30 -4 0 -6 -4 -2 -9 3 -5 -6 -18 -20
-29 -13 -11 -21 -23 -17 -27 4 -5 2 -6 -3 -2 -6 3 -33 -5 -60 -17 -38 -18 -56
-21 -80 -15 -16 5 -42 9 -57 9 -25 0 -28 -4 -28 -31 0 -17 9 -66 20 -110 11
-43 26 -130 34 -194 7 -63 15 -118 18 -121 3 -3 11 25 17 61 15 86 44 162 116
305 59 117 110 240 99 240 -3 0 -11 -13 -17 -30z m-160 -158 c23 -1 77 -32 69
-39 -3 -3 -11 -1 -18 3 -7 5 -15 9 -18 10 -3 0 -13 4 -23 8 -9 5 -26 6 -37 3
-22 -6 -35 7 -25 23 4 7 12 7 18 2 7 -5 22 -9 34 -10z"/>
<path d="M5472 3374 l-169 -186 -6 -210 c-4 -116 -7 -293 -7 -394 l0 -182 47
-16 c26 -9 50 -16 55 -16 4 0 8 126 8 280 l0 280 98 103 c204 216 273 293 295
327 15 23 46 47 89 69 56 28 72 32 107 26 23 -4 54 -18 69 -32 15 -14 20 -23
12 -20 -21 6 -15 -53 11 -109 10 -22 19 -53 19 -68 0 -15 4 -25 9 -22 11 7 21
-17 21 -54 0 -28 21 -55 33 -43 4 3 7 -3 7 -14 0 -12 6 -23 14 -26 8 -3 20
-28 27 -56 7 -28 16 -51 21 -51 4 0 8 -6 8 -14 0 -18 19 -33 53 -41 21 -6 27
-4 27 9 0 12 9 15 38 13 l37 -2 -3 60 c-1 33 -6 69 -11 80 -5 11 -19 52 -31
92 -12 40 -27 71 -34 70 -6 -1 -10 6 -8 16 2 9 -3 17 -12 17 -10 0 -13 10 -12
35 1 20 -3 35 -10 35 -17 0 -40 33 -39 55 1 29 -33 95 -49 95 -7 0 -18 10 -24
23 -7 15 -11 17 -11 6 -1 -12 -8 -15 -25 -12 -20 4 -25 0 -34 -34 l-10 -38 -1
42 c-1 35 -5 42 -23 46 l-23 4 23 2 c15 1 22 7 22 21 0 19 -7 20 -219 20
l-219 0 -170 -186z m483 156 c-3 -5 0 -10 9 -10 8 0 17 6 19 13 4 7 6 6 6 -4
1 -10 -9 -19 -24 -21 -19 -4 -25 -1 -25 13 0 11 5 19 11 19 5 0 7 -4 4 -10z
m67 -15 c0 -5 -5 -11 -10 -13 -5 -1 -9 4 -9 13 0 9 4 14 9 13 5 -2 10 -8 10
-13z"/>
<path d="M95 3360 c20 -104 99 -400 133 -500 415 -1226 1441 -2241 2661 -2634
192 -62 544 -146 557 -133 3 3 -21 10 -53 17 -385 76 -843 252 -1213 464 -151
87 -330 202 -330 212 0 4 6 2 13 -3 85 -62 337 -205 521 -293 235 -114 503
-215 493 -187 -2 7 -13 13 -25 15 -12 2 -22 8 -22 13 0 5 -9 9 -20 9 -11 0
-20 5 -20 12 0 6 -3 9 -6 5 -10 -10 -148 46 -160 64 -4 7 1 7 15 0 11 -7 21
-9 21 -6 0 2 23 -4 51 -15 55 -22 171 -42 163 -28 -3 4 -14 8 -25 8 -46 0
-202 64 -177 72 9 3 8 9 -5 22 -9 10 -17 13 -17 7 0 -6 -4 -11 -10 -11 -5 0
-9 6 -7 13 1 6 -4 11 -10 10 -7 -2 -13 2 -13 8 0 6 -7 8 -16 5 -10 -4 -13 -2
-8 6 5 8 2 9 -10 5 -11 -5 -15 -3 -10 5 5 7 2 9 -9 5 -13 -5 -14 -2 -5 24 11
31 21 39 16 13 -5 -25 133 -78 180 -69 46 8 86 52 99 107 8 34 11 37 12 16 0
-16 6 -28 11 -28 6 0 10 8 8 18 -2 10 2 16 11 14 7 -1 20 3 29 10 12 10 14 10
8 1 -13 -22 12 -14 31 10 19 23 70 29 110 12 31 -13 96 -17 88 -6 -3 6 -14 11
-23 11 -24 0 -112 32 -112 41 0 4 15 3 34 -2 51 -14 207 -50 236 -54 14 -2 34
-6 45 -9 42 -14 -44 24 -110 49 -65 23 -67 24 -25 19 24 -3 48 -8 52 -10 3 -2
10 1 14 7 4 7 3 9 -2 6 -6 -3 -16 -1 -24 4 -15 10 36 7 100 -6 25 -5 8 1 -235
76 -504 158 -981 435 -1378 802 -87 80 -111 98 -119 86 -8 -11 -9 -11 -5 3 3
9 0 21 -7 28 -21 16 -28 -13 -10 -39 18 -24 8 -28 -16 -6 -18 16 -54 10 -44
-7 4 -6 9 -6 14 2 5 9 9 9 14 1 4 -6 2 -11 -5 -11 -7 0 -5 -9 7 -22 19 -22 19
-23 -1 -8 -11 8 -30 23 -42 34 -13 11 -23 15 -23 9 0 -6 7 -16 15 -23 8 -7 15
-17 15 -23 0 -6 -12 0 -26 14 l-25 24 10 -28 c14 -37 14 -44 -1 -29 -18 18
-28 15 -28 -8 0 -11 -4 -20 -10 -20 -5 0 -10 5 -10 11 0 6 -6 9 -14 6 -8 -3
-17 -1 -20 6 -2 7 -5 4 -5 -6 -1 -14 -6 -17 -23 -12 -13 3 -18 3 -13 -2 6 -4
17 -17 25 -28 11 -14 4 -12 -23 9 -41 30 -60 30 -30 -1 10 -10 25 -28 33 -38
14 -19 14 -19 -5 -5 -11 8 -27 23 -36 32 -26 29 -32 21 -9 -12 33 -46 10 -36
-45 20 -27 28 -54 50 -59 50 -5 0 -1 -8 10 -19 35 -34 54 -61 51 -74 -1 -6 3
-11 8 -10 6 0 16 -5 23 -13 20 -22 -22 -12 -51 12 -56 47 -58 48 -51 29 5 -13
4 -16 -4 -11 -12 7 -6 -19 9 -39 7 -10 9 -16 9 -36 0 -5 4 -7 10 -4 6 3 7 -1
4 -10 -5 -13 -9 -12 -25 6 -10 11 -24 19 -31 16 -9 -4 -10 -6 -1 -6 12 -1 39
-41 28 -41 -3 0 -25 20 -51 45 -54 54 -66 58 -30 10 51 -67 17 -35 -76 73
-427 489 -713 1034 -900 1717 -39 144 -58 198 -43 125z m1533 -1957 c27 -34
31 -36 48 -23 18 14 18 14 5 -2 -19 -26 -37 -22 -61 12 -26 37 -57 42 -40 8
11 -22 10 -22 -4 -4 -9 11 -16 26 -16 33 0 26 39 12 68 -24z m-88 -58 c13 -8
13 -45 -1 -45 -5 0 -7 4 -4 10 3 5 -3 22 -14 37 -10 16 -22 39 -25 53 -5 18
-1 14 14 -12 11 -20 24 -40 30 -43z m-369 38 c13 -16 12 -17 -3 -4 -17 13 -22
21 -14 21 2 0 10 -8 17 -17z m300 -105 c41 -43 88 -51 121 -21 10 9 18 11 18
5 0 -19 -59 -44 -89 -37 -37 8 -122 99 -120 130 0 5 8 -1 17 -15 9 -14 33 -42
53 -62z m332 -24 c41 -32 49 -35 64 -23 17 12 17 12 1 -6 -17 -19 -19 -18 -63
13 -48 34 -65 39 -65 20 0 -6 -3 -9 -6 -5 -8 8 3 37 14 37 5 0 30 -16 55 -36z
m-16 -93 c9 9 13 8 13 0 0 -25 -32 -21 -70 9 -33 26 -41 29 -46 16 -3 -9 -10
-13 -16 -10 -5 3 -2 14 8 25 16 18 18 17 57 -16 31 -27 43 -32 54 -24z m-122
-50 c40 -32 71 -61 68 -65 -5 -5 -153 111 -153 120 0 10 16 0 85 -55z m334
-17 c22 -27 35 -35 50 -31 12 3 21 1 21 -4 0 -5 -12 -9 -27 -9 -20 0 -36 10
-56 35 -17 22 -37 35 -51 35 -25 0 -61 -34 -69 -65 -4 -19 -5 -19 -6 1 -2 36
36 74 74 74 26 0 40 -8 64 -36z m-202 -46 c-2 -13 -4 -5 -4 17 -1 22 1 32 4
23 2 -10 2 -28 0 -40z m338 -81 c-39 -72 -43 -91 -17 -106 9 -6 12 -11 7 -11
-17 0 -35 22 -35 45 0 19 65 135 76 135 3 0 -11 -29 -31 -63z m-214 -42 c30
-7 36 -4 67 31 l33 39 -22 -38 c-11 -20 -28 -41 -37 -46 -25 -14 -98 17 -132
55 -45 52 -36 57 14 8 24 -23 59 -45 77 -49z m369 -11 c-21 -37 -20 -72 1 -58
8 4 9 3 5 -5 -6 -9 -11 -9 -21 -1 -10 9 -16 7 -24 -8 -6 -11 -8 -22 -6 -26 3
-3 2 -4 -1 -1 -4 2 -20 -7 -36 -20 -60 -51 -155 -16 -187 68 -7 17 -7 27 -1
27 6 0 10 -7 10 -16 0 -9 15 -31 34 -50 27 -27 42 -34 74 -34 60 0 68 6 118
86 47 75 74 105 34 38z m-115 -54 c-3 -5 -12 -10 -18 -10 -7 0 -6 4 3 10 19
12 23 12 15 0z m260 -52 c0 -18 -6 -24 -27 -26 -15 -2 -36 2 -47 8 -20 10 -20
12 -4 45 l17 35 30 -20 c20 -12 31 -27 31 -42z m72 10 c-3 -8 -6 -5 -6 6 -1
11 2 17 5 13 3 -3 4 -12 1 -19z m-244 -23 c-3 -9 -8 -14 -10 -11 -3 3 -2 9 2
15 9 16 15 13 8 -4z m244 -17 c-3 -8 -6 -5 -6 6 -1 11 2 17 5 13 3 -3 4 -12 1
-19z m87 -55 c-14 -32 -28 -63 -30 -69 -3 -6 2 -14 10 -17 9 -4 16 -1 16 5 0
6 3 9 6 6 3 -4 -2 -19 -11 -35 -10 -18 -14 -21 -10 -7 4 14 1 21 -10 21 -8 0
-13 -2 -11 -5 3 -2 0 -9 -5 -16 -5 -6 -16 -20 -23 -31 -13 -18 -17 -18 -40 -6
-33 18 -34 34 -1 19 14 -6 27 -9 29 -7 2 2 25 48 50 102 24 53 47 97 50 97 3
0 -6 -26 -20 -57z m-117 1 c-27 -23 -74 -34 -62 -14 3 6 14 10 24 10 10 0 26
9 36 20 10 11 21 17 24 14 3 -3 -7 -17 -22 -30z m-143 20 c23 -9 20 -23 -4
-17 -11 3 -20 1 -20 -3 0 -5 -7 -17 -14 -27 -13 -17 -16 -17 -43 -2 l-28 16
31 -6 c25 -5 32 -2 44 20 15 28 13 27 34 19z m493 -43 c29 -27 37 -41 28 -45
-8 -3 -17 3 -20 14 -3 11 -20 31 -36 45 -17 14 -27 25 -22 25 4 0 27 -18 50
-39z m-49 -75 c6 -66 -34 -90 -107 -65 -24 8 -31 16 -26 28 4 9 16 40 27 68
l21 53 41 -23 c36 -19 41 -27 44 -61z m-387 7 c16 -10 29 -21 29 -26 0 -5 -15
0 -32 10 -27 15 -33 26 -34 53 -1 26 -1 28 3 8 3 -17 16 -34 34 -45z m36 20
c-3 -10 -5 -4 -5 12 0 17 2 24 5 18 2 -7 2 -21 0 -30z"/>
<path d="M2381 811 c-11 -7 -9 -10 8 -16 26 -8 49 4 30 16 -17 11 -21 11 -38
0z"/>
<path d="M2745 650 c-3 -5 1 -10 10 -10 9 0 13 5 10 10 -3 6 -8 10 -10 10 -2
0 -7 -4 -10 -10z"/>
<path d="M2725 620 c3 -5 13 -6 22 -3 12 5 14 3 8 -7 -5 -9 -4 -11 3 -6 20 12
13 26 -14 26 -14 0 -23 -4 -19 -10z"/>
<path d="M8221 3304 c0 -11 3 -14 6 -6 3 7 2 16 -1 19 -3 4 -6 -2 -5 -13z"/>
<path d="M2561 3108 c-27 -179 -60 -266 -110 -292 -42 -22 -53 -20 -15 3 17
10 36 34 43 52 7 19 16 41 21 49 11 22 21 73 22 112 0 18 4 38 8 43 12 15 33
121 28 136 -3 9 -12 2 -26 -21 -27 -44 -28 -63 -2 -31 30 35 24 12 -10 -39
-34 -51 -105 -226 -121 -298 -15 -68 -29 -216 -35 -372 l-5 -136 58 -81 c132
-184 522 -599 678 -722 44 -34 85 -68 90 -75 14 -17 260 -199 375 -278 167
-114 512 -306 597 -332 16 -5 58 12 155 62 455 237 856 535 1208 899 202 209
460 523 460 560 0 9 -37 -33 -82 -93 -338 -452 -767 -848 -1248 -1154 -214
-136 -440 -260 -475 -260 -16 0 -184 83 -249 123 -30 19 -35 25 -22 30 9 4 16
15 16 25 0 16 19 9 125 -45 l126 -64 112 59 c635 337 1188 822 1629 1430 l70
97 -6 55 c-3 30 -10 100 -15 155 -10 111 -48 237 -110 370 -21 44 -42 89 -46
100 -14 34 -19 -10 -5 -48 6 -18 13 -57 16 -87 8 -96 32 -161 75 -202 45 -43
37 -52 -9 -13 -57 48 -68 85 -118 403 -3 18 -9 32 -14 30 -5 -2 -79 -79 -164
-171 l-156 -168 0 -72 c0 -40 -3 -133 -7 -207 -3 -75 -3 -170 1 -212 l8 -77
81 -27 c132 -43 237 -85 237 -94 0 -22 -183 -225 -379 -421 -219 -218 -384
-358 -609 -516 -123 -86 -257 -170 -281 -175 -10 -2 -19 22 -31 93 -10 53 -34
153 -54 223 -29 102 -34 135 -27 164 14 66 92 232 114 244 22 11 25 9 163
-147 33 -36 58 -56 69 -53 19 3 39 53 140 354 83 245 84 283 1 54 -66 -183
-138 -356 -155 -373 -16 -16 -43 13 -185 203 -146 196 -220 280 -248 280 -10
0 -31 -8 -46 -17 l-26 -18 34 -6 c21 -4 2 -6 -50 -6 -47 0 -72 2 -56 4 l28 5
-23 24 c-31 33 -52 30 -99 -12 -52 -47 -372 -473 -365 -485 11 -17 26 -9 78
39 64 59 135 115 164 131 21 10 25 8 43 -21 11 -18 33 -67 50 -109 l29 -76
-30 -74 c-42 -102 -74 -216 -94 -334 -9 -55 -19 -102 -21 -104 -9 -9 -311 188
-459 299 -169 128 -290 234 -476 419 -177 178 -359 384 -359 407 0 11 89 48
245 101 l80 28 -3 279 c-2 154 -6 285 -10 292 -11 19 -306 334 -312 334 -4 0
-17 -69 -29 -152z m266 -223 c49 -34 34 -115 -25 -136 -17 -6 -37 -28 -54 -59
-27 -49 -28 -54 -29 -223 -1 -145 -3 -162 -10 -107 -5 36 -7 117 -5 181 3 94
8 124 26 159 l21 42 -20 22 c-21 22 -28 80 -13 102 22 33 75 43 109 19z m2766
4 c31 -16 37 -28 37 -71 0 -27 -6 -41 -20 -50 -26 -16 -25 -27 5 -79 24 -41
25 -51 23 -174 -3 -202 -15 -231 -17 -40 -1 169 -1 170 -31 221 -19 34 -38 54
-54 58 -30 7 -60 58 -51 87 9 27 45 59 68 59 10 0 28 -5 40 -11z m-3005 -704
c64 -83 186 -228 206 -244 10 -8 22 -24 28 -35 5 -12 -4 -5 -22 14 -106 114
-166 174 -173 172 -5 -1 -6 2 -2 8 4 6 -15 38 -42 73 -27 34 -59 78 -72 97
l-23 35 27 -30 c14 -16 47 -57 73 -90z m1646 -107 c-2 -3 0 -9 6 -13 5 -3 10
-11 10 -17 0 -7 -4 -7 -12 -1 -7 6 -21 13 -31 16 -15 6 -14 1 7 -24 27 -31 35
-56 15 -43 -7 4 -10 1 -7 -7 3 -8 11 -13 17 -12 17 4 13 -15 -6 -25 -12 -7
-14 -18 -10 -40 4 -18 1 -37 -8 -48 -12 -16 -11 -22 3 -37 14 -16 14 -17 0
-12 -22 9 -30 -39 -10 -59 14 -13 13 -14 -9 -9 -21 6 -22 4 -11 -9 10 -13 10
-17 0 -21 -8 -3 -5 -6 7 -6 34 -2 2 -20 -44 -26 -24 -3 -47 -8 -52 -10 -4 -3
-10 -1 -14 5 -3 5 -2 10 3 10 11 0 11 32 0 40 -4 3 -9 16 -11 28 -2 12 -9 28
-15 34 -18 18 -15 28 6 21 11 -4 9 1 -8 16 -14 12 -19 20 -12 16 21 -11 13 6
-14 27 -14 11 -23 23 -20 26 3 2 13 -1 23 -9 11 -9 14 -10 9 -2 -4 7 -27 27
-52 44 -25 17 -43 33 -40 36 3 3 19 -5 36 -17 41 -29 53 -16 15 15 -17 13 -25
24 -20 25 6 0 11 17 13 38 4 56 21 64 139 60 56 -1 99 -6 97 -10z m66 -18 c0
-15 -5 -12 -26 11 -19 22 -19 22 4 10 12 -6 22 -16 22 -21z m-40 -45 c0 -8 -2
-15 -4 -15 -2 0 -6 7 -10 15 -3 8 -1 15 4 15 6 0 10 -7 10 -15z m146 -137 c-7
-35 -21 -77 -46 -138 -12 -30 -24 -62 -25 -70 -2 -8 -4 -17 -4 -19 -1 -2 -8 2
-16 9 -13 11 -13 15 0 41 8 15 15 35 15 44 0 8 4 15 8 15 11 0 52 86 52 109 0
16 8 31 17 31 2 0 1 -10 -1 -22z m-436 -23 c0 -8 5 -15 12 -15 6 0 8 -3 5 -7
-4 -3 -3 -11 2 -17 13 -15 61 -137 61 -153 0 -24 -15 -13 -28 20 -50 124 -70
187 -62 187 6 0 10 -7 10 -15z m156 -227 c-3 -13 -8 -58 -11 -100 -3 -43 -10
-89 -15 -103 -5 -14 -6 -25 -2 -25 4 -1 -4 -10 -17 -21 -30 -25 -40 -12 -35
43 4 39 26 133 45 196 12 37 42 46 35 10z m118 14 c8 -13 38 -194 38 -231 0
-48 -23 -58 -40 -18 -8 18 -14 44 -13 60 1 15 -4 27 -10 27 -8 0 -7 5 2 16 10
13 10 17 -2 26 -10 7 -11 11 -2 14 7 3 10 11 8 17 -2 7 -6 31 -9 55 -5 33 -3
42 8 42 8 0 17 -4 20 -8z m-204 -90 c-16 -45 -28 -82 -25 -82 2 0 -2 -19 -10
-41 -17 -49 -18 -52 -6 -45 5 3 11 -1 14 -9 4 -9 1 -12 -7 -9 -7 3 -19 -2 -26
-11 -10 -12 -10 -15 1 -15 11 0 11 -2 2 -8 -7 -5 -22 -33 -32 -63 -29 -81 -26
-23 4 98 27 107 65 211 91 250 27 42 25 20 -6 -65z m304 -24 c42 -113 77 -239
75 -272 -1 -12 -5 -3 -10 19 -12 53 -40 131 -83 235 -20 47 -36 93 -36 103 0
40 18 11 54 -85z m-138 -40 c4 -42 2 -68 -4 -68 -15 0 -19 19 -20 105 -1 63 1
75 9 55 5 -13 12 -55 15 -92z m-189 -80 c-3 -8 -6 -5 -6 6 -1 11 2 17 5 13 3
-3 4 -12 1 -19z m170 -24 c12 -3 23 -15 25 -28 3 -22 48 -38 48 -17 0 18 26
12 45 -9 16 -18 17 -23 5 -45 -15 -29 0 -55 31 -55 15 0 19 -7 19 -35 0 -28
-4 -35 -19 -35 -31 0 -46 -26 -31 -55 11 -20 11 -27 0 -40 -14 -17 -50 -21
-50 -5 0 15 -27 12 -44 -5 -8 -9 -13 -22 -10 -29 7 -17 -21 -28 -52 -20 -15 4
-24 13 -24 25 0 28 -32 41 -58 23 -19 -13 -22 -13 -34 8 -7 13 -13 39 -13 58
0 29 -4 36 -22 38 -19 3 -23 10 -23 38 0 27 4 34 20 34 27 0 44 34 28 59 -10
17 -9 23 6 40 20 22 46 28 46 11 0 -17 40 -11 47 8 14 39 24 45 60 36z m240
-201 c-3 -10 -5 -2 -5 17 0 19 2 27 5 18 2 -10 2 -26 0 -35z m-500 -10 c-3
-10 -5 -4 -5 12 0 17 2 24 5 18 2 -7 2 -21 0 -30z m510 -60 c-3 -10 -5 -4 -5
12 0 17 2 24 5 18 2 -7 2 -21 0 -30z"/>
<path d="M2741 2851 c-16 -28 -14 -46 7 -64 25 -22 45 -21 67 3 15 16 17 26 9
48 -12 35 -67 44 -83 13z"/>
<path d="M5520 2850 c-14 -26 -5 -57 21 -71 44 -23 84 24 59 70 -15 28 -65 29
-80 1z"/>
<path d="M4170 2046 c0 -2 7 -7 16 -10 8 -3 12 -2 9 4 -6 10 -25 14 -25 6z"/>
<path d="M4110 1262 c-61 -62 -25 -157 60 -157 114 0 122 163 8 182 -32 5 -41
1 -68 -25z m112 -9 c11 -10 18 -30 18 -54 0 -37 -1 -38 -25 -27 -13 6 -22 14
-20 18 3 4 -2 13 -10 20 -8 7 -15 9 -15 6 0 -4 -6 -1 -14 6 -8 7 -12 16 -9 21
2 4 0 7 -6 7 -5 0 -9 -9 -8 -19 0 -11 5 -17 9 -15 4 3 8 -2 8 -11 0 -12 -6
-15 -19 -10 -14 4 -21 0 -24 -12 -4 -17 -4 -17 -12 0 -4 11 -1 27 9 43 29 43
86 56 118 27z"/>
<path d="M651 2954 c0 -11 3 -14 6 -6 3 7 2 16 -1 19 -3 4 -6 -2 -5 -13z"/>
<path d="M648 2885 c2 -14 8 -25 12 -25 14 0 19 27 7 39 -18 18 -25 13 -19
-14z"/>
<path d="M811 2452 c-5 -10 -6 -24 -2 -31 6 -9 10 -3 13 18 5 36 3 38 -11 13z"/>
<path d="M7035 1650 c-3 -5 -1 -10 4 -10 6 0 11 5 11 10 0 6 -2 10 -4 10 -3 0
-8 -4 -11 -10z"/>
<path d="M6875 1610 c-18 -20 -18 -22 31 -71 49 -51 49 -51 19 -46 -98 18
-142 18 -163 0 l-21 -18 83 -90 c84 -90 84 -90 105 -71 l21 19 -47 55 -47 54
55 -6 c30 -4 70 -9 89 -12 27 -4 40 0 52 13 16 17 12 23 -64 106 -44 48 -83
87 -87 87 -5 0 -16 -9 -26 -20z"/>
<path d="M6419 1403 c-13 -16 -12 -17 4 -4 16 13 21 21 13 21 -2 0 -10 -8 -17
-17z"/>
<path d="M6675 1400 c-64 -14 -105 -60 -112 -124 -8 -78 60 -144 139 -133 55
7 87 32 109 83 16 36 18 50 10 82 -18 66 -81 106 -146 92z m61 -73 c53 -46 26
-127 -42 -127 -38 0 -74 38 -74 77 0 29 41 73 69 73 11 0 32 -11 47 -23z"/>
<path d="M6161 1220 c-218 -150 -527 -305 -806 -406 -66 -24 -114 -43 -107
-43 7 -1 38 8 69 19 31 11 68 17 82 15 19 -4 21 -3 7 3 -15 7 -12 10 20 20 21
6 40 9 43 7 2 -3 -1 -5 -8 -5 -7 0 -10 -4 -7 -9 4 -5 -4 -7 -16 -4 -17 3 -19
2 -10 -5 11 -7 6 -12 -17 -20 -18 -6 -38 -9 -46 -6 -7 3 -22 1 -32 -6 -16 -9
-15 -10 7 -5 19 5 21 4 10 -4 -8 -6 -26 -8 -40 -6 -14 3 -19 2 -12 -1 10 -5 9
-9 -5 -20 -21 -15 -12 -13 112 27 66 21 165 34 148 19 -12 -11 -239 -100 -254
-100 -7 0 -10 -3 -6 -6 5 -5 41 4 164 42 10 3 7 -2 -7 -10 l-25 -16 30 6 c17
4 41 13 55 21 l25 14 -27 -6 c-44 -9 -33 2 20 19 43 14 45 14 27 -1 -14 -11
-15 -14 -4 -10 72 24 98 28 130 20 37 -11 62 -7 53 8 -3 5 -3 9 0 9 6 0 76
-135 76 -147 0 -12 -18 10 -34 42 l-16 30 0 -42 c0 -28 -5 -43 -12 -43 -7 0
-2 -9 12 -19 25 -20 46 -19 34 1 -4 7 -2 8 4 4 7 -4 12 -1 12 6 1 7 7 1 15
-14 15 -26 16 -27 50 -12 45 18 45 12 0 -15 l-36 -21 -11 25 c-11 25 -31 25
-21 0 7 -20 2 -19 -45 8 -37 21 -39 24 -26 42 28 39 -9 116 -62 129 -22 6
-136 -33 -157 -54 -8 -7 66 -204 83 -223 4 -4 19 -3 33 2 26 10 26 11 12 45
-15 34 -14 36 8 41 15 4 37 -1 59 -15 29 -16 41 -19 62 -10 33 12 36 12 36 0
0 -13 -66 -24 -87 -15 -38 17 -69 -5 -52 -37 8 -14 6 -18 -9 -18 -10 0 -27 -7
-38 -15 -18 -14 -17 -14 10 -5 16 6 31 8 34 5 3 -3 0 -5 -7 -5 -7 0 -9 -4 -6
-10 3 -6 -1 -7 -9 -4 -9 3 -16 1 -16 -6 0 -6 -4 -9 -8 -6 -4 2 -9 -4 -9 -15
-2 -19 6 -20 70 -2 29 8 19 -7 -15 -22 l-33 -14 28 -1 c15 0 35 4 45 9 9 5 49
21 87 37 202 79 635 323 751 423 6 5 36 27 66 48 65 45 118 89 118 98 0 3 -5
3 -10 0 -6 -4 -22 -9 -37 -11 -14 -3 -44 -19 -65 -36 -21 -17 -42 -27 -46 -24
-3 4 0 11 8 16 8 6 10 10 5 10 -6 0 -21 -7 -33 -16 -12 -8 -22 -11 -22 -5 0 5
8 15 18 21 16 11 16 11 -2 6 -13 -5 -17 -2 -12 9 9 24 -6 17 -49 -22 -22 -20
-33 -32 -25 -28 8 4 25 17 36 27 13 12 24 15 28 10 9 -15 -57 -52 -81 -46 -11
3 -24 1 -27 -4 -4 -7 -17 -7 -35 -2 -15 4 -35 4 -42 -1 -12 -7 -12 -9 0 -9 8
0 12 -3 9 -6 -10 -9 -58 27 -51 39 3 5 1 7 -4 4 -12 -8 -127 72 -117 82 4 3 9
0 11 -6 6 -18 32 -16 39 2 4 8 10 13 14 10 5 -3 11 -1 15 4 3 6 -4 15 -15 21
-11 6 -20 16 -19 23 0 9 2 9 5 0 7 -16 34 -5 34 14 0 8 9 28 21 44 11 16 22
37 23 45 1 9 9 19 16 24 8 5 12 12 8 15 -3 4 -26 -4 -50 -16 -43 -21 -43 -21
-24 -1 10 12 27 24 36 27 10 3 21 12 24 21 4 11 0 13 -22 8 l-27 -6 25 21 c14
11 22 22 19 26 -4 3 -13 0 -20 -7 -15 -14 -69 -40 -69 -33 0 2 15 18 33 34 17
17 30 31 27 30 -3 0 -56 -36 -119 -79z m509 -264 c0 -3 -4 -8 -10 -11 -5 -3
-10 -1 -10 4 0 6 5 11 10 11 6 0 10 -2 10 -4z m-483 -49 l23 -20 -21 -15 c-24
-17 -34 -9 -43 36 -6 36 0 36 41 -1z m-100 -9 c-3 -8 -6 -5 -6 6 -1 11 2 17 5
13 3 -3 4 -12 1 -19z m-162 -97 l-7 -69 -73 46 c-40 26 -71 49 -69 51 2 2 25
-10 51 -27 26 -17 50 -27 51 -22 2 6 10 10 18 10 8 0 15 5 15 10 1 6 3 15 4
20 1 6 3 22 4 37 0 14 4 24 7 20 3 -3 3 -37 -1 -76z m445 55 c0 -2 -16 -14
-35 -26 -31 -19 -37 -20 -56 -7 -19 14 -25 13 -70 -14 -27 -15 -49 -25 -49
-20 0 5 21 21 46 36 41 24 49 26 71 14 21 -11 29 -11 51 3 28 16 42 21 42 14z
m-296 -108 c4 -13 -7 2 -23 32 -17 30 -30 60 -30 65 -1 15 46 -70 53 -97z m24
47 c-2 -19 0 -37 4 -39 5 -3 4 -4 -2 -2 -7 1 -11 5 -11 9 1 4 1 21 1 37 0 17
3 30 6 30 3 0 4 -16 2 -35z m-38 -115 c29 15 38 11 10 -5 -34 -20 -39 -19 -52
10 -9 19 -14 22 -24 14 -8 -6 -12 -15 -9 -19 2 -4 -2 -16 -9 -26 -13 -17 -18
-17 -51 -5 -42 15 -51 11 -35 -18 6 -12 9 -21 6 -21 -2 0 -18 25 -34 55 -17
30 -28 55 -26 55 2 0 29 -16 59 -36 29 -20 58 -33 63 -30 5 3 13 34 17 68 l7
63 29 -58 c26 -50 32 -56 49 -47z m90 40 c-24 -19 -40 -25 -40 -15 0 5 51 34
60 34 3 0 -6 -8 -20 -19z m-486 -26 c36 -14 2 -84 -40 -84 -11 0 -41 57 -33
64 9 7 45 25 51 26 3 0 13 -3 22 -6z"/>
<path d="M5885 770 c-3 -5 -1 -10 4 -10 6 0 11 5 11 10 0 6 -2 10 -4 10 -3 0
-8 -4 -11 -10z"/>
<path d="M6461 1241 l-24 -18 71 -97 c40 -53 76 -96 80 -96 5 0 16 8 25 18 16
17 13 24 -49 108 -36 49 -69 92 -72 96 -4 4 -18 -1 -31 -11z"/>
<path d="M6380 1172 c-34 -5 -77 -38 -95 -72 -48 -93 31 -204 131 -185 44 8
114 73 114 105 0 30 -47 27 -62 -4 -15 -34 -61 -52 -94 -38 -23 11 -44 47 -44
78 0 23 47 64 73 64 22 0 37 16 37 40 0 10 -29 16 -60 12z"/>
<path d="M6376 1045 c-3 -8 -1 -15 4 -15 6 0 10 7 10 15 0 8 -2 15 -4 15 -2 0
-6 -7 -10 -15z"/>
<path d="M6230 980 c-8 -5 -11 -12 -8 -16 4 -3 14 1 23 10 18 17 9 21 -15 6z"/>
<path d="M6595 960 c-3 -5 -2 -10 4 -10 5 0 13 5 16 10 3 6 2 10 -4 10 -5 0
-13 -4 -16 -10z"/>
<path d="M6262 946 c7 -8 15 -12 17 -11 5 6 -10 25 -20 25 -5 0 -4 -6 3 -14z"/>
<path d="M5450 775 c-19 -7 -28 -13 -20 -13 8 0 31 6 50 13 19 7 28 13 20 13
-8 0 -31 -6 -50 -13z"/>
<path d="M3378 693 c7 -3 16 -2 19 1 4 3 -2 6 -13 5 -11 0 -14 -3 -6 -6z"/>
<path d="M3418 683 c6 -2 18 -2 25 0 6 3 1 5 -13 5 -14 0 -19 -2 -12 -5z"/>
<path d="M3468 673 c7 -3 16 -2 19 1 4 3 -2 6 -13 5 -11 0 -14 -3 -6 -6z"/>
<path d="M5352 647 c-50 -16 -92 -69 -92 -118 0 -81 49 -129 132 -129 146 0
186 190 52 246 -38 16 -46 16 -92 1z m85 -69 c46 -43 18 -128 -42 -128 -33 0
-75 42 -75 75 0 32 41 75 71 75 13 0 33 -10 46 -22z"/>
<path d="M2892 555 c-45 -52 -82 -99 -82 -104 0 -19 45 -20 65 -1 20 19 23 19
73 3 46 -15 52 -20 52 -44 0 -21 7 -29 30 -38 36 -12 35 -22 18 146 -12 126
-15 132 -63 133 -6 0 -48 -43 -93 -95z m98 -19 l0 -45 -30 10 -29 11 27 34
c15 19 28 34 30 34 1 0 2 -20 2 -44z"/>
<path d="M2895 600 c-3 -6 1 -7 9 -4 18 7 21 14 7 14 -6 0 -13 -4 -16 -10z"/>
<path d="M5126 574 c-44 -13 -81 -25 -83 -28 -5 -5 48 -219 57 -229 4 -4 19
-3 33 2 24 9 26 13 17 36 -14 36 -13 65 3 65 29 0 87 22 87 33 -1 32 -15 37
-65 22 -26 -8 -49 -14 -51 -12 -1 1 -5 14 -9 28 -6 24 -3 27 42 38 26 7 53 14
59 16 12 3 7 56 -5 54 -3 0 -42 -11 -85 -25z"/>
<path d="M3146 578 c-10 -33 -56 -215 -56 -220 0 -12 142 -40 173 -34 74 14
118 107 83 174 -21 40 -51 60 -118 78 -65 17 -78 17 -82 2z m137 -90 c38 -44
6 -112 -51 -110 -68 2 -72 6 -56 70 22 87 19 83 56 71 18 -6 41 -20 51 -31z"/>
<path d="M4958 533 c-21 -5 -23 -31 -7 -86 6 -21 9 -42 7 -47 -2 -5 -33 18
-71 49 -53 45 -73 57 -92 53 -14 -2 -25 -7 -24 -11 0 -3 10 -58 23 -121 22
-111 24 -115 47 -112 13 2 26 6 28 8 3 3 0 32 -6 67 -6 34 -9 63 -8 65 1 1 32
-22 67 -53 63 -53 104 -69 113 -42 6 19 -39 230 -50 233 -6 1 -18 0 -27 -3z"/>
<path d="M3507 488 c-11 -48 -30 -218 -25 -224 3 -3 40 -8 82 -11 120 -9 166
23 166 117 0 70 -40 110 -125 124 -22 4 -52 9 -66 12 -22 4 -28 1 -32 -18z
m104 -48 c50 0 78 -82 42 -122 -15 -17 -91 -26 -104 -13 -3 2 -1 36 4 75 8 55
13 70 24 66 8 -4 23 -6 34 -6z"/>
<path d="M4679 483 c-13 -3 -15 -12 -8 -51 4 -26 13 -80 19 -119 12 -72 12
-73 42 -73 27 0 29 2 24 27 -3 16 -10 62 -16 103 -19 129 -17 125 -61 113z"/>
<path d="M3776 419 c-3 -30 -8 -86 -11 -125 l-6 -71 91 -7 c51 -4 93 -6 95 -4
2 2 5 12 7 23 2 16 -3 20 -32 23 -85 6 -97 11 -93 36 5 23 8 24 59 19 53 -6
54 -5 54 21 0 24 -4 26 -39 26 -53 0 -71 8 -71 32 0 19 5 20 65 16 l65 -4 0
28 c0 26 -3 28 -37 28 -21 0 -61 3 -90 6 l-51 7 -6 -54z"/>
<path d="M4405 453 c-16 -3 -30 -30 -63 -121 -23 -64 -42 -120 -42 -124 0 -5
13 -8 28 -8 22 0 30 7 39 30 11 28 14 30 66 30 48 0 55 -3 65 -25 10 -21 16
-24 39 -19 16 4 28 7 29 8 4 5 -123 230 -131 231 -5 1 -19 0 -30 -2z m38 -108
l17 -35 -34 0 -34 0 11 35 c6 19 13 35 17 35 3 0 14 -16 23 -35z"/>
<path d="M2690 446 c0 -2 7 -6 15 -10 8 -3 15 -1 15 4 0 6 -7 10 -15 10 -8 0
-15 -2 -15 -4z"/>
<path d="M4105 328 l0 -123 88 -3 87 -3 0 26 c0 24 -2 25 -60 25 l-60 0 0 100
0 100 -28 0 -27 0 0 -122z"/>
<path d="M2740 430 c8 -5 20 -10 25 -10 6 0 3 5 -5 10 -8 5 -19 10 -25 10 -5
0 -3 -5 5 -10z"/>
<path d="M2875 420 c3 -5 8 -10 11 -10 2 0 4 5 4 10 0 6 -5 10 -11 10 -5 0 -7
-4 -4 -10z"/>
<path d="M2895 290 c3 -5 8 -10 11 -10 2 0 4 5 4 10 0 6 -5 10 -11 10 -5 0 -7
-4 -4 -10z"/>
<path d="M4970 115 c-30 -7 -44 -13 -30 -13 14 0 48 6 75 13 65 16 27 17 -45
0z"/>
</g>
</svg>
